<?xml version="1.0" encoding="utf-8"?>
<!-- Generator: Adobe Illustrator 15.0.1, SVG Export Plug-In  -->
<!DOCTYPE svg PUBLIC "-//W3C//DTD SVG 1.1//EN" "http://www.w3.org/Graphics/SVG/1.1/DTD/svg11.dtd" [
	<!ENTITY ns_flows "http://ns.adobe.com/Flows/1.0/">
]>
<svg version="1.1"
	 xmlns="http://www.w3.org/2000/svg" xmlns:xlink="http://www.w3.org/1999/xlink" xmlns:a="http://ns.adobe.com/AdobeSVGViewerExtensions/3.0/"
	 x="0px" y="0px" width="270px" height="100px" viewBox="0 0 270 100" enable-background="new 0 0 270 100" xml:space="preserve">
<defs>
</defs>
<linearGradient id="SVGID_1_" gradientUnits="userSpaceOnUse" x1="135.0005" y1="84.668" x2="135.0005" y2="-15.3315" gradientTransform="matrix(1 0 0 1 0 15.332)">
	<stop  offset="0" style="stop-color:#212224"/>
	<stop  offset="1" style="stop-color:#56595F"/>
</linearGradient>
<path fill="url(#SVGID_1_)" d="M270,95c0,2.75-2.25,5-5,5H5c-2.75,0-5-2.25-5-5V5c0-2.75,2.25-5,5-5h260c2.75,0,5,2.25,5,5V95z"/>
<linearGradient id="SVGID_2_" gradientUnits="userSpaceOnUse" x1="135.0005" y1="99" x2="135.0005" y2="1.0005" gradientTransform="matrix(1 0 0 -1 0 100)">
	<stop  offset="0" style="stop-color:#212224"/>
	<stop  offset="1" style="stop-color:#56595F"/>
</linearGradient>
<path fill="url(#SVGID_2_)" d="M5,1C2.794,1,1,2.794,1,5v90c0,2.205,1.794,4,4,4h260c2.206,0,4-1.795,4-4V5c0-2.206-1.794-4-4-4H5z"
	/>
<linearGradient id="SVGID_3_" gradientUnits="userSpaceOnUse" x1="135.0005" y1="98" x2="135.0005" y2="2.0005" gradientTransform="matrix(1 0 0 -1 0 100)">
	<stop  offset="0" style="stop-color:#56595F"/>
	<stop  offset="1" style="stop-color:#212224"/>
</linearGradient>
<path fill="url(#SVGID_3_)" d="M5,2C3.346,2,2,3.346,2,5v90c0,1.654,1.346,3,3,3h260c1.654,0,3-1.346,3-3V5c0-1.654-1.346-3-3-3H5z"
	/>
</svg>
