<?xml version="1.0" encoding="utf-8"?>
<!-- Generator: Adobe Illustrator 13.0.0, SVG Export Plug-In . SVG Version: 6.00 Build 14948)  -->
<!DOCTYPE svg PUBLIC "-//W3C//DTD SVG 1.1//EN" "http://www.w3.org/Graphics/SVG/1.1/DTD/svg11.dtd">
<svg version="1.1" id="Layer_1" xmlns="http://www.w3.org/2000/svg" xmlns:xlink="http://www.w3.org/1999/xlink" x="0px" y="0px"
	 width="140px" height="140px" viewBox="-12.49 -14.318 140 140" enable-background="new -12.49 -14.318 140 140"
	 xml:space="preserve">
<path fill="#FFFFFF" fill-opacity="0.4" d="M21.619,106.572c-5.4,0-10.449-2.012-14.215-5.655
	c-3.742-3.604-5.812-8.388-5.812-13.463V21.209c0-5.067,2.063-9.851,5.795-13.453c3.795-3.656,8.849-5.667,14.228-5.667h68.688
	c5.391,0,10.438,2.013,14.227,5.666c3.746,3.611,5.813,8.391,5.813,13.455l-0.006,66.244c0,5.104-2.063,9.858-5.812,13.453
	c-3.801,3.661-8.852,5.674-14.233,5.674L21.619,106.572L21.619,106.572z"/>
<linearGradient id="SVGID_1_" gradientUnits="userSpaceOnUse" x1="6674.9258" y1="-9293.4482" x2="6674.9258" y2="-9194.9414" gradientTransform="matrix(1 0 0 -1 -6617.418 -9188.9785)">
	<stop  offset="0" style="stop-color:#C9C9C9"/>
	<stop  offset="1" style="stop-color:#F1F0F0"/>
</linearGradient>
<path fill="url(#SVGID_1_)" d="M102.48,22.867c0-2.493-1.045-4.87-2.938-6.694c-2.022-1.956-4.761-3.033-7.696-3.033l-68.688-0.001
	c-2.938,0-5.67,1.079-7.703,3.039c-1.885,1.813-2.92,4.19-2.92,6.688v66.243c0,2.281,0.879,4.461,2.473,6.213
	c2.152,1.873,4.943,2.898,7.943,2.898l68.671,0.004c3.212,0,6.216-1.186,8.451-3.343c0.513-0.487,0.961-1.017,1.354-1.571
	c0.688-1.295,1.057-2.722,1.057-4.192L102.48,22.867z"/>
<path fill="#231F20" fill-opacity="0.4" d="M23.154,111.357c-6.217,0-12.035-2.317-16.396-6.537C2.404,100.622,0,95.042,0,89.109
	V22.867c0-5.933,2.396-11.511,6.754-15.709c4.379-4.22,10.203-6.543,16.396-6.543h68.688c6.199,0,12.021,2.323,16.396,6.543
	c4.354,4.208,6.771,9.786,6.771,15.71l-0.009,66.243c0,5.943-2.396,11.521-6.771,15.703c-4.387,4.226-10.211,6.549-16.404,6.549
	L23.154,111.357z M23.154,13.137c-2.938,0-5.67,1.079-7.705,3.039c-1.883,1.813-2.918,4.19-2.918,6.688v66.244
	c0,2.498,1.041,4.877,2.934,6.699c2.012,1.955,4.744,3.021,7.689,3.021l68.67,0.004c2.938,0,5.688-1.084,7.729-3.039
	c1.891-1.801,2.924-4.178,2.924-6.68l0.01-66.25c0-2.493-1.043-4.87-2.938-6.695c-2.021-1.955-4.763-3.032-7.699-3.032
	L23.154,13.137L23.154,13.137z"/>
<path fill="#FFFFFF" fill-opacity="0.4" d="M22.947,108.659c-5.941,0-11.508-2.218-15.666-6.24
	c-4.15-4.006-6.438-9.313-6.438-14.965V21.209c0-5.645,2.285-10.958,6.438-14.958C11.465,2.221,17.029,0,22.951,0h68.688
	c5.934,0,11.494,2.22,15.678,6.25c4.15,4.009,6.438,9.321,6.438,14.958l-0.004,66.244c0,5.672-2.289,10.979-6.446,14.965
	c-4.188,4.037-9.763,6.271-15.688,6.271L22.947,108.659z M22.947,10.44c-3.205,0-6.199,1.183-8.435,3.329
	c-2.09,2.015-3.233,4.656-3.233,7.439v66.244c0,2.782,1.149,5.438,3.25,7.452c2.209,2.146,5.194,3.314,8.42,3.314l68.67,0.004
	c3.211,0,6.215-1.186,8.451-3.343c2.094-2.005,3.236-4.646,3.236-7.433l0.012-66.25c0-2.778-1.154-5.423-3.254-7.445
	c-2.229-2.145-5.229-3.325-8.438-3.325L22.947,10.44L22.947,10.44z"/>
<path fill="#FFFFFF" fill-opacity="0.4" d="M22.27,107.616c-5.67,0-10.977-2.104-14.938-5.947c-3.947-3.81-6.125-8.849-6.125-14.215
	V21.209c0-5.358,2.172-10.403,6.115-14.205c3.983-3.844,9.297-5.959,14.942-5.959h68.689c5.656,0,10.965,2.115,14.945,5.958
	c3.942,3.809,6.127,8.854,6.127,14.207l-0.008,66.244c0,5.373-2.181,10.414-6.125,14.198c-3.992,3.854-9.313,5.968-14.968,5.968
	L22.27,107.616z M22.27,9.396c-3.479,0-6.729,1.285-9.147,3.622C10.826,15.23,9.56,18.14,9.56,21.209v66.243
	c0,3.079,1.271,5.981,3.57,8.2c2.4,2.33,5.648,3.609,9.141,3.609l68.676,0.021c3.479,0,6.729-1.305,9.174-3.627
	c2.302-2.201,3.563-5.104,3.563-8.188l0.01-66.246c0-3.063-1.271-5.977-3.565-8.196c-2.42-2.333-5.673-3.619-9.146-3.619
	L22.27,9.396L22.27,9.396z"/>
<linearGradient id="SVGID_2_" gradientUnits="userSpaceOnUse" x1="15098.0879" y1="15525.7676" x2="15098.0879" y2="15421.2852" gradientTransform="matrix(1 0 0 1 -15042.1191 -15419.1953)">
	<stop  offset="0" style="stop-color:#BABABA"/>
	<stop  offset="1" style="stop-color:#FFFFFF"/>
</linearGradient>
<path fill="url(#SVGID_2_)" d="M90.311,8.35c3.758,0,7.267,1.39,9.873,3.91c2.517,2.42,3.896,5.6,3.896,8.948l-0.008,66.242
	c0,3.36-1.375,6.528-3.883,8.938c-2.635,2.535-6.146,3.934-9.896,3.934l-68.668-0.016c-3.766,0-7.268-1.375-9.865-3.896
	c-2.51-2.42-3.893-5.595-3.893-8.959V21.208c0-3.356,1.379-6.533,3.879-8.943c2.619-2.523,6.129-3.915,9.879-3.915H90.311
	 M90.311,2.09H21.619c-5.383,0-10.432,2.012-14.229,5.667c-3.733,3.604-5.795,8.386-5.795,13.454v66.241
	c0,5.075,2.063,9.854,5.81,13.463c3.768,3.646,8.813,5.655,14.215,5.655l68.669,0.002c5.395,0,10.443-2.018,14.242-5.67
	c3.73-3.582,5.806-8.358,5.806-13.45l0.004-66.244c0-5.065-2.063-9.845-5.81-13.456C100.746,4.099,95.693,2.09,90.311,2.09
	L90.311,2.09z"/>
<g id="XMLID_2_">
	<g>
		<linearGradient id="SVGID_3_" gradientUnits="userSpaceOnUse" x1="15.1709" y1="52.5889" x2="96.751" y2="52.5889">
			<stop  offset="0" style="stop-color:#FFFFFF"/>
			<stop  offset="0" style="stop-color:#F6F6F6"/>
			<stop  offset="0" style="stop-color:#C8C8C8"/>
			<stop  offset="0" style="stop-color:#9D9D9D"/>
			<stop  offset="0" style="stop-color:#777777"/>
			<stop  offset="0" style="stop-color:#575757"/>
			<stop  offset="0" style="stop-color:#3B3B3B"/>
			<stop  offset="0" style="stop-color:#252525"/>
			<stop  offset="0" style="stop-color:#141414"/>
			<stop  offset="0" style="stop-color:#090909"/>
			<stop  offset="0" style="stop-color:#020202"/>
			<stop  offset="0" style="stop-color:#000000"/>
			<stop  offset="0.0344" style="stop-color:#1F0A0C"/>
			<stop  offset="0.0946" style="stop-color:#4E1A1E"/>
			<stop  offset="0.1585" style="stop-color:#78282E"/>
			<stop  offset="0.2249" style="stop-color:#9B343C"/>
			<stop  offset="0.2947" style="stop-color:#B83D47"/>
			<stop  offset="0.3689" style="stop-color:#CE454F"/>
			<stop  offset="0.4497" style="stop-color:#DE4A55"/>
			<stop  offset="0.5418" style="stop-color:#E74D59"/>
			<stop  offset="0.6703" style="stop-color:#EA4E5A"/>
			<stop  offset="0.7488" style="stop-color:#E84D59"/>
			<stop  offset="0.795" style="stop-color:#DF4A56"/>
			<stop  offset="0.8329" style="stop-color:#D14650"/>
			<stop  offset="0.8662" style="stop-color:#BD3F49"/>
			<stop  offset="0.8966" style="stop-color:#A3363F"/>
			<stop  offset="0.9248" style="stop-color:#832C32"/>
			<stop  offset="0.9514" style="stop-color:#5D1F24"/>
			<stop  offset="0.976" style="stop-color:#321113"/>
			<stop  offset="0.9994" style="stop-color:#010000"/>
			<stop  offset="1" style="stop-color:#000000"/>
		</linearGradient>
		<path fill="url(#SVGID_3_)" d="M96.751,79.374c-2.892,2.573-10.212,4.301-10.212,4.301c-18.043-25.18-48.036-38.167-71.368-56.991
			c1.83-1.727,3.66-5.181,5.49-5.181C51.77,28.411,75.56,47.408,91.554,72.449C94.902,76.784,96.751,79.374,96.751,79.374z"/>
	</g>
	<g>
		<path fill="none" stroke="#F4647A" d="M96.751,79.374c-2.892,2.573-10.212,4.301-10.212,4.301
			c-18.043-25.18-48.036-38.167-71.368-56.991c1.83-1.727,3.66-5.181,5.49-5.181C51.77,28.411,75.56,47.408,91.554,72.449
			C94.902,76.784,96.751,79.374,96.751,79.374z"/>
	</g>
</g>
<g id="XMLID_1_">
	<g>
		<linearGradient id="SVGID_4_" gradientUnits="userSpaceOnUse" x1="28.5659" y1="53.9053" x2="93.8594" y2="53.9053">
			<stop  offset="0" style="stop-color:#FFFFFF"/>
			<stop  offset="0" style="stop-color:#F6F6F6"/>
			<stop  offset="0" style="stop-color:#C8C8C8"/>
			<stop  offset="0" style="stop-color:#9D9D9D"/>
			<stop  offset="0" style="stop-color:#777777"/>
			<stop  offset="0" style="stop-color:#575757"/>
			<stop  offset="0" style="stop-color:#3B3B3B"/>
			<stop  offset="0" style="stop-color:#252525"/>
			<stop  offset="0" style="stop-color:#141414"/>
			<stop  offset="0" style="stop-color:#090909"/>
			<stop  offset="0" style="stop-color:#020202"/>
			<stop  offset="0" style="stop-color:#000000"/>
			<stop  offset="0.031" style="stop-color:#1F0A0C"/>
			<stop  offset="0.0853" style="stop-color:#4E1A1E"/>
			<stop  offset="0.1429" style="stop-color:#78282E"/>
			<stop  offset="0.2028" style="stop-color:#9B343C"/>
			<stop  offset="0.2657" style="stop-color:#B83D47"/>
			<stop  offset="0.3326" style="stop-color:#CE454F"/>
			<stop  offset="0.4055" style="stop-color:#DE4A55"/>
			<stop  offset="0.4885" style="stop-color:#E74D59"/>
			<stop  offset="0.6044" style="stop-color:#EA4E5A"/>
			<stop  offset="0.989" style="stop-color:#000000"/>
		</linearGradient>
		<path fill="url(#SVGID_4_)" d="M93.859,25.544c-8.235,6.477-15.445,13.92-21.722,21.985c-2.086,2.677-4.081,5.423-6.094,8.186
			c-8.546,9.792-14.548,21.777-23.552,31.794c-3.001,1.986-8.985-4.007-13.926-5.941c0,0,1.043-2.176,3.093-5.63
			c5.837-11.433,16.836-18.444,23.332-29.583c1.848-2.435,3.624-4.888,5.508-7.271c5.618-7.15,12.315-13.54,20.551-18.721
			C84.709,18.636,90.199,22.09,93.859,25.544z"/>
	</g>
	<g>
		<path fill="none" stroke="#EA4E5A" d="M28.566,81.567c4.941,1.935,10.925,7.928,13.926,5.941
			c9.003-10.017,15.006-22.002,23.552-31.794c2.013-2.763,4.007-5.509,6.094-8.186c6.276-8.065,13.486-15.508,21.722-21.985
			c-3.66-3.454-9.15-6.908-12.81-5.181c-8.235,5.181-14.933,11.571-20.551,18.721c-1.885,2.383-3.66,4.835-5.508,7.271
			c-6.496,11.139-17.495,18.15-23.332,29.583C29.609,79.392,28.566,81.567,28.566,81.567z"/>
	</g>
</g>
</svg>
