<?xml version="1.0" encoding="utf-8"?>
<!-- Generator: Adobe Illustrator 15.0.1, SVG Export Plug-In  -->
<!DOCTYPE svg PUBLIC "-//W3C//DTD SVG 1.1//EN" "http://www.w3.org/Graphics/SVG/1.1/DTD/svg11.dtd" [
	<!ENTITY ns_flows "http://ns.adobe.com/Flows/1.0/">
]>
<svg version="1.1"
	 xmlns="http://www.w3.org/2000/svg" xmlns:xlink="http://www.w3.org/1999/xlink" xmlns:a="http://ns.adobe.com/AdobeSVGViewerExtensions/3.0/"
	 x="0px" y="0px" width="140px" height="140px" viewBox="-12.49 -14.318 140 140" enable-background="new -12.49 -14.318 140 140"
	 xml:space="preserve">
<defs>
</defs>
<path fill="#FFFFFF" fill-opacity="0.4" d="M21.619,106.573c-5.4,0-10.449-2.013-14.215-5.656
	c-3.742-3.604-5.812-8.387-5.812-13.463V21.209c0-5.067,2.063-9.851,5.795-13.453c3.795-3.656,8.849-5.667,14.228-5.667h68.688
	c5.391,0,10.438,2.013,14.227,5.666c3.746,3.611,5.813,8.391,5.813,13.455l-0.006,66.244c0,5.104-2.063,9.858-5.811,13.453
	c-3.802,3.662-8.852,5.674-14.234,5.674L21.619,106.573L21.619,106.573z"/>
<linearGradient id="SVGID_1_" gradientUnits="userSpaceOnUse" x1="6402.3252" y1="9036.5488" x2="6402.3252" y2="8938.041" gradientTransform="matrix(1 0 0 1 -6344.8174 -8932.0781)">
	<stop  offset="0" style="stop-color:#C9C9C9"/>
	<stop  offset="1" style="stop-color:#F1F0F0"/>
</linearGradient>
<path fill="url(#SVGID_1_)" d="M102.48,22.867c0-2.493-1.044-4.87-2.938-6.694c-2.023-1.956-4.761-3.033-7.697-3.033l-68.688-0.001
	c-2.938,0-5.67,1.079-7.703,3.039c-1.885,1.813-2.92,4.19-2.92,6.688V89.11c0,2.281,0.879,4.461,2.473,6.213
	c2.152,1.873,4.943,2.898,7.943,2.898l68.671,0.004c3.212,0,6.216-1.186,8.451-3.343c0.513-0.488,0.961-1.017,1.354-1.572
	c0.688-1.294,1.056-2.721,1.056-4.192L102.48,22.867z"/>
<path fill="#231F20" fill-opacity="0.4" d="M23.154,111.357c-6.217,0-12.035-2.317-16.396-6.536C2.404,100.622,0,95.042,0,89.11
	V22.867c0-5.933,2.396-11.511,6.754-15.709c4.379-4.22,10.203-6.543,16.396-6.543h68.688c6.199,0,12.021,2.323,16.396,6.543
	c4.355,4.208,6.771,9.786,6.771,15.71l-0.009,66.244c0,5.943-2.396,11.521-6.771,15.703c-4.387,4.225-10.212,6.549-16.405,6.549
	L23.154,111.357z M23.154,13.137c-2.938,0-5.67,1.079-7.705,3.039c-1.883,1.813-2.918,4.19-2.918,6.688v66.244
	c0,2.497,1.041,4.877,2.934,6.698c2.012,1.955,4.744,3.022,7.689,3.022l68.67,0.004c2.938,0,5.688-1.084,7.729-3.039
	c1.891-1.801,2.924-4.178,2.924-6.68l0.01-66.25c0-2.493-1.043-4.87-2.938-6.695c-2.021-1.955-4.763-3.032-7.699-3.032
	L23.154,13.137L23.154,13.137z"/>
<path fill="#FFFFFF" fill-opacity="0.4" d="M22.947,108.659c-5.941,0-11.508-2.218-15.666-6.24
	c-4.15-4.006-6.438-9.313-6.438-14.965V21.209c0-5.645,2.285-10.958,6.438-14.958C11.465,2.221,17.029,0,22.951,0h68.688
	c5.934,0,11.494,2.22,15.678,6.25c4.15,4.009,6.438,9.321,6.438,14.958l-0.004,66.244c0,5.672-2.289,10.979-6.447,14.965
	c-4.188,4.037-9.762,6.271-15.688,6.271L22.947,108.659z M22.947,10.44c-3.205,0-6.199,1.183-8.435,3.329
	c-2.09,2.015-3.233,4.656-3.233,7.439v66.244c0,2.783,1.149,5.438,3.25,7.453c2.209,2.146,5.194,3.314,8.42,3.314l68.67,0.004
	c3.211,0,6.215-1.186,8.451-3.343c2.094-2.005,3.236-4.646,3.236-7.433l0.012-66.25c0-2.778-1.154-5.423-3.254-7.445
	c-2.229-2.145-5.229-3.325-8.438-3.325L22.947,10.44L22.947,10.44z"/>
<path fill="#FFFFFF" fill-opacity="0.4" d="M22.27,107.616c-5.67,0-10.977-2.104-14.938-5.947
	c-3.947-3.809-6.125-8.848-6.125-14.215V21.209c0-5.358,2.172-10.403,6.115-14.205c3.983-3.844,9.297-5.959,14.942-5.959h68.689
	c5.656,0,10.965,2.115,14.945,5.958c3.943,3.809,6.127,8.854,6.127,14.207l-0.008,66.244c0,5.373-2.18,10.414-6.125,14.199
	c-3.992,3.854-9.313,5.967-14.967,5.967L22.27,107.616z M22.27,9.396c-3.479,0-6.729,1.285-9.147,3.622
	C10.826,15.23,9.56,18.14,9.56,21.209v66.243c0,3.08,1.271,5.982,3.57,8.201c2.4,2.33,5.648,3.609,9.141,3.609l68.676,0.021
	c3.479,0,6.729-1.305,9.174-3.627c2.302-2.201,3.563-5.104,3.563-8.188l0.009-66.245c0-3.063-1.271-5.977-3.565-8.196
	c-2.42-2.333-5.673-3.619-9.146-3.619L22.27,9.396L22.27,9.396z"/>
<linearGradient id="SVGID_2_" gradientUnits="userSpaceOnUse" x1="14825.4863" y1="-15079.8672" x2="14825.4863" y2="-14975.3848" gradientTransform="matrix(1 0 0 -1 -14769.5195 -14973.2949)">
	<stop  offset="0" style="stop-color:#BABABA"/>
	<stop  offset="1" style="stop-color:#FFFFFF"/>
</linearGradient>
<path fill="url(#SVGID_2_)" d="M90.311,8.35c3.758,0,7.266,1.39,9.873,3.91c2.516,2.42,3.896,5.6,3.896,8.948l-0.008,66.242
	c0,3.361-1.375,6.529-3.883,8.938c-2.635,2.536-6.146,3.935-9.896,3.935l-68.668-0.016c-3.766,0-7.268-1.376-9.865-3.896
	c-2.51-2.42-3.893-5.594-3.893-8.959V21.208c0-3.356,1.379-6.533,3.879-8.943c2.619-2.523,6.129-3.915,9.879-3.915H90.311
	 M90.311,2.09H21.619c-5.383,0-10.432,2.012-14.229,5.667c-3.733,3.604-5.795,8.386-5.795,13.454v66.241
	c0,5.076,2.063,9.854,5.81,13.463c3.768,3.646,8.813,5.656,14.215,5.656l68.669,0.002c5.394,0,10.443-2.019,14.242-5.67
	c3.731-3.582,5.806-8.359,5.806-13.451l0.004-66.244c0-5.065-2.063-9.845-5.81-13.456C100.746,4.099,95.693,2.09,90.311,2.09
	L90.311,2.09z"/>
<path fill="#77787B" d="M84.485,87.014c0,2.706-1.037,5.419-3.101,7.476c-2.067,2.068-4.774,3.103-7.479,3.103H41.114
	c-2.706,0-5.415-1.03-7.479-3.103c-2.068-2.063-3.102-4.771-3.102-7.476V24.349c0-2.708,1.032-5.415,3.102-7.479
	c2.063-2.066,4.771-3.099,7.479-3.099h32.791c2.703,0,5.414,1.034,7.479,3.099c2.063,2.066,3.101,4.771,3.101,7.479V87.014
	L84.485,87.014z"/>
<linearGradient id="SVGID_3_" gradientUnits="userSpaceOnUse" x1="1027.4668" y1="-1350.8071" x2="1027.4668" y2="-1271.2163" gradientTransform="matrix(1 0 0 -1 -969.96 -1255.3291)">
	<stop  offset="0" style="stop-color:#D1D1D1"/>
	<stop  offset="0.3803" style="stop-color:#DADADA"/>
	<stop  offset="0.5398" style="stop-color:#E3E3E3"/>
	<stop  offset="0.792" style="stop-color:#F0F0F0"/>
	<stop  offset="1" style="stop-color:#FFFFFF"/>
</linearGradient>
<path fill="url(#SVGID_3_)" d="M41.114,95.478c-2.261,0-4.386-0.88-5.986-2.479c-1.595-1.598-2.478-3.725-2.478-5.984V24.352
	c0-2.26,0.878-4.386,2.478-5.986c1.599-1.596,3.727-2.479,5.983-2.479h32.792c2.258,0,4.383,0.88,5.983,2.479
	c1.599,1.601,2.476,3.725,2.476,5.986v62.662c0,2.261-0.877,4.388-2.476,5.984c-1.601,1.6-3.728,2.479-5.983,2.479H41.114
	L41.114,95.478z"/>
<linearGradient id="SVGID_4_" gradientUnits="userSpaceOnUse" x1="1030.1035" y1="-1330.5723" x2="1035.9769" y2="-1349.9188" gradientTransform="matrix(1 0 0 -1 -969.96 -1255.3291)">
	<stop  offset="0" style="stop-color:#000000"/>
	<stop  offset="1" style="stop-color:#000000"/>
</linearGradient>
<path fill="url(#SVGID_4_)" fill-opacity="0.36" d="M71.79,53.565l3.705,18.688l4.176,13.163c0.4,1.241,0.206,2.646-0.62,3.78
	c-0.832,1.129-2.115,1.729-3.412,1.729H54.502c-0.492,0-0.989-0.078-1.476-0.266c-0.479-0.178-0.918-0.438-1.286-0.756l-7.27-6.244
	L71.79,53.565z"/>
<radialGradient id="SVGID_5_" cx="1027.4697" cy="-1311.0132" r="22.9945" gradientTransform="matrix(1 0 0 -1 -969.96 -1255.3291)" gradientUnits="userSpaceOnUse">
	<stop  offset="0" style="stop-color:#525252"/>
	<stop  offset="1" style="stop-color:#000000"/>
</radialGradient>
<path fill="url(#SVGID_5_)" d="M47.464,84.9c-1.086,0-2.166-0.412-2.992-1.237c-0.829-0.826-1.242-1.904-1.242-2.992V30.7
	c0-1.084,0.413-2.166,1.242-2.991c0.826-0.828,1.906-1.24,2.992-1.24h20.1c1.082,0,2.16,0.412,2.99,1.24
	c0.828,0.827,1.236,1.907,1.236,2.991v49.97c0,1.086-0.408,2.163-1.236,2.992c-0.83,0.824-1.908,1.234-2.99,1.234h-20.1V84.9z"/>
<linearGradient id="SVGID_6_" gradientUnits="userSpaceOnUse" x1="57.5103" y1="82.7827" x2="57.5103" y2="28.5811">
	<stop  offset="0" style="stop-color:#0C6938"/>
	<stop  offset="0.9152" style="stop-color:#60A182"/>
</linearGradient>
<path fill="url(#SVGID_6_)" d="M47.464,82.783c-0.566,0-1.098-0.219-1.496-0.619c-0.402-0.404-0.624-0.928-0.624-1.495V30.696
	c0-0.564,0.222-1.097,0.618-1.496c0.401-0.4,0.936-0.619,1.502-0.619h20.1c0.561,0,1.096,0.221,1.495,0.619
	c0.396,0.399,0.618,0.932,0.618,1.496v49.973c0,0.567-0.223,1.094-0.618,1.495c-0.403,0.396-0.935,0.619-1.495,0.619H47.464
	L47.464,82.783z"/>
</svg>
