<?xml version="1.0" encoding="utf-8"?>
<!-- Generator: Adobe Illustrator 14.0.0, SVG Export Plug-In . SVG Version: 6.00 Build 43363)  -->
<!DOCTYPE svg PUBLIC "-//W3C//DTD SVG 1.1//EN" "http://www.w3.org/Graphics/SVG/1.1/DTD/svg11.dtd">
<svg version="1.1" id="Layer_1" xmlns="http://www.w3.org/2000/svg" xmlns:xlink="http://www.w3.org/1999/xlink" x="0px" y="0px"
	 width="96.38px" height="96.38px" viewBox="0 0 96.38 96.38" enable-background="new 0 0 96.38 96.38" xml:space="preserve">
<g>
	<linearGradient id="SVGID_1_" gradientUnits="userSpaceOnUse" x1="48.1899" y1="3.0566" x2="48.1899" y2="93.2142">
		<stop  offset="0" style="stop-color:#FFFFFF"/>
		<stop  offset="1" style="stop-color:#D2D3D3"/>
	</linearGradient>
	<path fill="url(#SVGID_1_)" d="M86.58,26.511C79.284,12.714,64.79,3.312,48.094,3.312c-16.712,0-31.22,9.421-38.509,23.242
		c-5.449,1.092-9.436,4.587-9.436,8.734v30.304c0,4.965,5.714,8.995,12.813,9.085c5.705,7.125,13.541,12.468,22.544,15.061
		c0.609,1.961,1.979,3.331,3.576,3.331h13.052c1.619,0,3.009-1.404,3.604-3.406c10.333-1.831,19.405-7.306,25.84-15.052
		c0.525,0.045,1.059,0.07,1.601,0.07c7.213,0,13.054-4.068,13.054-9.089V35.288C96.231,31.086,92.141,27.553,86.58,26.511z"/>
	<linearGradient id="SVGID_2_" gradientUnits="userSpaceOnUse" x1="48.0923" y1="16.5845" x2="48.0923" y2="82.4213">
		<stop  offset="0" style="stop-color:#FDE500"/>
		<stop  offset="1" style="stop-color:#EBB51C"/>
	</linearGradient>
	<path fill="url(#SVGID_2_)" d="M70.126,35.246c0-2.148,1.074-4.12,2.863-5.674c-5.806-7.359-14.797-12.09-24.896-12.09
		c-10.101,0-19.091,4.73-24.897,12.09c1.789,1.555,2.863,3.526,2.863,5.674V65.55c0,1.666-0.643,3.225-1.766,4.566
		c5.811,6.601,14.317,10.771,23.8,10.771c9.482,0,17.988-4.171,23.798-10.771c-1.122-1.342-1.766-2.901-1.766-4.566V35.246z"/>
	<g>
		<path d="M56.825,30.071V26.19c0-0.606-0.491-1.097-1.098-1.097c-0.605,0-1.097,0.491-1.097,1.097v3.78H40.144
			c-1.776,0-3.215,1.439-3.215,3.215v32.151c0,1.776,1.439,3.216,3.215,3.216h15.897c1.774,0,3.216-1.439,3.216-3.216V33.185
			C59.257,31.682,58.221,30.422,56.825,30.071z M44.431,64.444h-3.395v-3.394h3.395V64.444z M44.431,59.086h-3.395v-3.395h3.395
			V59.086z M44.431,53.728h-3.395v-3.395h3.395V53.728z M49.789,64.444h-3.394v-3.394h3.394V64.444z M49.789,59.086h-3.394v-3.395
			h3.394V59.086z M49.789,53.728h-3.394v-3.395h3.394V53.728z M55.147,64.444h-3.395v-3.394h3.395V64.444z M55.147,59.086h-3.395
			v-3.395h3.395V59.086z M55.147,53.728h-3.395v-3.395h3.395V53.728z M55.728,48.491H40.457v-14.2h15.271V48.491z"/>
	</g>
	<linearGradient id="SVGID_3_" gradientUnits="userSpaceOnUse" x1="48.0933" y1="90.7607" x2="48.0933" y2="7.9723">
		<stop  offset="0" style="stop-color:#999999"/>
		<stop  offset="1" style="stop-color:#CCCCCC"/>
	</linearGradient>
	<path fill="url(#SVGID_3_)" d="M83.741,29.904C77.234,16.8,63.718,7.793,48.094,7.793c-15.625,0-29.142,9.007-35.65,22.111
		c-4.952,0.238-8.881,3.577-8.881,7.671v25.647c0,4.248,4.228,7.692,9.443,7.692c0.183,0,0.361-0.014,0.542-0.022
		c5.418,9.097,14.596,15.684,25.39,17.634c0.31,1.292,1.282,2.235,2.435,2.235h8.468c1.403,0,2.541-1.396,2.541-3.118
		c0-1.722-1.138-3.118-2.541-3.118h-8.468c-0.927,0-1.735,0.611-2.179,1.521c-9.66-1.8-17.914-7.587-22.993-15.593
		c3.642-1.067,6.25-3.897,6.25-7.231V37.575c0-2.8-1.841-5.243-4.586-6.589c5.865-10.663,17.202-17.891,30.23-17.891
		c13.026,0,24.364,7.228,30.229,17.89c-2.745,1.347-4.587,3.79-4.587,6.59v25.647c0,4.248,4.229,7.692,9.442,7.692
		c5.218,0,9.445-3.444,9.445-7.692V37.575C92.623,33.481,88.695,30.143,83.741,29.904z"/>
	<path d="M41.373,90.761c-1.403,0-2.541-1.396-2.541-3.118l0,0c0-1.722,1.138-3.118,2.541-3.118h8.468
		c1.403,0,2.541,1.396,2.541,3.118l0,0c0,1.723-1.138,3.118-2.541,3.118H41.373z"/>
	<linearGradient id="SVGID_4_" gradientUnits="userSpaceOnUse" x1="86.585" y1="68.8516" x2="86.585" y2="30.2023">
		<stop  offset="0" style="stop-color:#000000"/>
		<stop  offset="1" style="stop-color:#969696"/>
	</linearGradient>
	<path fill="url(#SVGID_4_)" d="M83.178,29.922c-0.914,0-1.795,0.112-2.631,0.309c3.935,0.93,6.813,3.881,6.813,7.385v24.26
		c0,3.464,0.936,5.757,1.954,7.229c2.022-1.411,3.31-3.503,3.31-5.843V37.616C92.623,33.367,88.396,29.922,83.178,29.922z"/>
	<linearGradient id="SVGID_5_" gradientUnits="userSpaceOnUse" x1="9.6006" y1="68.8516" x2="9.6006" y2="30.2167">
		<stop  offset="0" style="stop-color:#000000"/>
		<stop  offset="1" style="stop-color:#969696"/>
	</linearGradient>
	<path fill="url(#SVGID_5_)" d="M13.007,29.922c0.914,0,1.795,0.112,2.631,0.309c-3.935,0.93-6.813,3.881-6.813,7.385v24.26
		c0,3.464-0.936,5.757-1.954,7.229c-2.023-1.411-3.309-3.503-3.309-5.843V37.616C3.563,33.367,7.79,29.922,13.007,29.922z"/>
</g>
</svg>
