<?xml version="1.0" encoding="UTF-8" standalone="no"?>
<!-- Generator: Adobe Illustrator 15.0.0, SVG Export Plug-In . SVG Version: 6.00 Build 0)  -->

<svg
   xmlns:dc="http://purl.org/dc/elements/1.1/"
   xmlns:cc="http://creativecommons.org/ns#"
   xmlns:rdf="http://www.w3.org/1999/02/22-rdf-syntax-ns#"
   xmlns:svg="http://www.w3.org/2000/svg"
   xmlns="http://www.w3.org/2000/svg"
   xmlns:sodipodi="http://sodipodi.sourceforge.net/DTD/sodipodi-0.dtd"
   xmlns:inkscape="http://www.inkscape.org/namespaces/inkscape"
   version="1.1"
   id="Layer_1"
   x="0px"
   y="0px"
   width="360"
   height="140"
   viewBox="0 0 360 140"
   enable-background="new 0 0 140 140"
   xml:space="preserve"
   inkscape:version="0.48.0 r9654"
   sodipodi:docname="logo.svg"
   inkscape:export-filename="D:\Symbian\Carbide\workspace\TweakS\gfx\logo.png"
   inkscape:export-xdpi="93.88575"
   inkscape:export-ydpi="93.88575"><metadata
   id="metadata3099"><rdf:RDF><cc:Work
       rdf:about=""><dc:format>image/svg+xml</dc:format><dc:type
         rdf:resource="http://purl.org/dc/dcmitype/StillImage" /><dc:title></dc:title></cc:Work></rdf:RDF></metadata><defs
   id="defs3097" /><sodipodi:namedview
   pagecolor="#ffffff"
   bordercolor="#666666"
   borderopacity="1"
   objecttolerance="10"
   gridtolerance="10"
   guidetolerance="10"
   inkscape:pageopacity="0"
   inkscape:pageshadow="2"
   inkscape:window-width="1025"
   inkscape:window-height="544"
   id="namedview3095"
   showgrid="false"
   showguides="true"
   inkscape:guide-bbox="true"
   inkscape:zoom="2.0785714"
   inkscape:cx="209.38526"
   inkscape:cy="70.713669"
   inkscape:window-x="0"
   inkscape:window-y="0"
   inkscape:window-maximized="0"
   inkscape:current-layer="g3044" />
<g
   id="g3044">
	<path
   d="M 48.297028,8.554 C 30.544988,8.554 9.58,14.561 9.58,20.821 l 6.570524,95.405 c 0,6.264 14.394464,11.35 32.146504,11.35 l 270.264872,3.455 c 17.77474,0 35.10424,-8.541 35.10424,-14.805 V 19.904 c 0,-6.261 -14.46819,-11.35 -32.2174,-11.35 H 48.297028 z"
   id="path3046"
   inkscape:connector-curvature="0"
   style="fill:#f0d9a8" />
	<path
   d="m 348.67944,123.131 c 0,4.451 -10.5657,8.053 -23.59241,8.053 H 32.951424 C 19.907327,131.184 9.359,127.582 9.359,123.131 V 21.368 c 0,-4.448 10.548327,-8.054 23.592424,-8.054 H 325.09572 c 13.02382,0 23.59532,3.605 23.59532,8.054 v 101.763 h -0.0116 z"
   id="path3048"
   inkscape:connector-curvature="0"
   style="fill:#bc9b6e" />
	<path
   d="m 24.607494,22.27 c 0.998976,11.56 -2.395239,23.383 -4.954574,34.916 -0.604568,2.729 -2.832831,5.814 -1.548844,8.506 1.318533,2.765 2.41539,5.542 3.22148,8.331 0.780179,2.703 1.289744,5.414 1.465358,8.131 0.190006,2.979 1.946129,5.42 3.267542,8.314 -0.01727,-0.85 -0.644872,-1.643 -1.232166,-2.461 -1.237924,-1.721 -0.400166,-2.971 0.12379,-4.721 0.996097,-3.324 0.607446,-6.672 -0.146819,-9.996 -1.505662,-6.645 -4.203184,-13.353 0.07485,-19.948 0,-2.971 -0.80609,-6.016 -0.259103,-8.971 0.538355,-2.908 2.73207,-5.883 1.617939,-8.802 -1.243681,-3.257 0.270617,-6.807 -0.267737,-10.13 -0.575778,-3.54 -1.488388,-7.078 -1.364595,-10.626 -1.9778,0.303 -0.07774,6.518 0.0029,7.457 0.333952,3.857 -0.210159,-2.426 0,0 z m 5.97946,14.698 c -0.316678,5.872 -0.535475,11.961 -3.077537,17.776 -1.140041,2.611 -4.850934,4.542 -4.07939,7.354 0.797453,2.917 4.010297,5.69 7.369965,8.35 -2.354934,-3.903 -4.335612,-7.694 -3.008442,-11.701 0.64487,-1.945 2.599638,-3.739 2.933591,-5.686 0.426076,-2.498 0.837758,-4.995 1.128525,-7.495 0.296527,-2.534 0.578658,-5.07 0.751392,-7.606 0.187127,-2.747 2.729189,-5.404 2.688885,-8.21 -0.08349,-5.363 -3.817413,-10.634 -3.667709,-16.001 -5.464139,0.597 -1.134284,8.833 -0.673661,10.781 0.970186,4.139 1.63521,8.321 -0.365619,12.438 -0.06047,1.111 3.74256,-7.701 0,0 z M 10.688048,42.08 C 8.6584291,35.554 15.760657,29.289 15.760657,22.802 15.210788,23.659 4.1702357,48.92 10.538346,48.92 c 0,-2.281 0.02591,-4.56 0.1497,-6.84 -2.0987133,-6.743 -0.21016,3.891 0,0 z m 4.86245,23.374 c -0.541232,-2.817 0.420317,-5.442 1.390504,-8.235 1.568997,-4.523 2.268569,-9.077 2.634187,-13.629 0.748513,-9.283 -0.02015,-18.592 1.260955,-27.869 -3.135113,0.848 -1.528693,4.162 -1.528693,5.511 0.500928,1.945 0.688056,3.899 0.667904,5.853 -0.04606,4.37 -1.114131,8.729 -2.282961,13.077 -2.257052,8.384 -5.141703,16.883 -2.141896,25.292 0,0 -5.14746,-14.432 0,0 z m 20.952579,-27.75 c -1.304138,6.078 -0.659266,12.298 -3.638919,18.322 -1.701427,3.443 -3.676346,6.473 -2.611156,10.012 0.935639,3.11 3.232997,6.134 5.268374,9.171 0.273494,-3.748 -0.765786,-7.358 -1.445204,-11.095 -0.814727,-4.479 1.617937,-9.051 2.219626,-13.54 0.397287,-4.528 0.601689,-9.249 2.504635,-13.731 3.437397,-5.058 1.232167,-10.174 -0.981702,-15.229 0.993219,5.372 1.733095,10.775 -1.315654,16.09 -0.213038,0.99 3.201328,-5.584 0,0 z m 1.309897,-16.086 c -0.564263,-2.735 -1.042159,-5.474 -1.099738,-8.217 -3.448912,0.202 0.526838,6.978 1.099738,8.217 -0.558505,-2.706 -1.24944,-2.707 0,0 z m 6.267349,14.126 c -3.696497,8.933 -1.626575,18.084 -3.471944,27.046 2.173564,-8.158 3.155265,-16.391 4.945938,-24.579 1.070946,-4.891 3.676345,-9.197 1.687029,-14.164 -0.90685,-2.262 -2.219626,-4.501 -3.543915,-6.737 -0.541232,-0.914 -0.670783,-3.905 -2.818437,-3.996 -0.05758,7.487 6.201134,14.939 3.201329,22.43 -0.480775,1.162 2.927833,-7.31 0,0 z m 6.961161,0.316 c -1.194739,2.893 -0.5729,5.927 -1.151555,8.847 -0.636236,3.198 -1.551724,6.387 -2.372208,9.58 -1.396263,5.429 -2.691765,10.964 -1.200499,16.407 -0.296526,-2.103 -0.07485,-4.186 -0.07485,-6.286 2.458574,1.423 1.062311,3.453 1.177467,5.019 1.799308,-4.708 2.475849,-9.198 2.781011,-13.985 0.333951,-5.202 0.990338,-10.396 1.882795,-15.589 0.834879,-4.845 2.904803,-9.458 1.727335,-14.339 -0.616083,-2.559 -1.589149,-5.104 -2.277204,-7.661 -0.336829,-1.245 1.4049,-5.234 -3.774227,-4.734 0.96155,7.581 6.370989,15.136 3.281936,22.741 -0.408803,0.991 3.123599,-7.696 0,0 z m -3.624525,41.843 c 0.135312,-0.716 0.09212,-0.548 -0.135312,0.504 0.04606,-0.168 0.08924,-0.336 0.135312,-0.504 0,-0.145 -0.07485,0.178 0,0 z M 58.693581,34.587 c -0.829122,7.107 -2.067044,14.095 -4.191668,21.178 -2.124621,7.088 -2.631308,13.948 -2.631308,21.038 0.238949,-2.625 -0.397286,-5.451 1.540208,-8.012 0,2.077 1.180347,4.126 1.180347,6.198 1.963404,-4.914 1.856885,-10.286 2.162047,-15.267 0.356983,-5.767 1.151558,-11.53 2.173565,-17.288 0.955792,-5.376 2.202353,-10.761 1.943252,-16.152 -0.12667,-2.662 -0.515322,-5.321 -0.915488,-7.979 -0.184249,-1.232 1.615059,-5.484 -3.613009,-4.986 1.473992,7.085 3.877867,14.158 2.352054,21.27 -0.13243,1.135 1.600664,-7.469 0,0 z m -4.799114,48.897 c -1.180345,-1.992 -1.949009,-4.021 -2.026741,-6.116 -0.05758,1.974 -1.114131,4.261 2.026741,6.116 z M 77.973524,21.256 c -0.777301,14.444 -0.696691,28.95 -6.900705,43.265 8.52728,-0.226 5.754906,-9.886 6.080221,-11.928 0.8867,-5.528 2.527669,-11.04 3.126477,-16.572 0.624721,-5.78 0.889578,-11.569 0.889578,-17.353 0,-1.427 -0.04894,-2.854 -0.06621,-4.281 0,0.065 -0.371378,-2.088 -2.786769,-1.073 0.0029,2.645 -0.241827,5.296 -0.342589,7.942 -0.195764,3.663 0.06908,-1.825 0,0 z m 7.162684,-2.042 c 0,11.051 -1.367473,22.05 -2.291597,33.093 -0.434713,5.196 -0.333952,10.139 -3.598615,15.226 -1.661122,2.586 1.229287,5.027 2.706159,7.563 1.741729,2.988 3.607252,6.166 3.607252,9.229 2.305992,-3.162 -0.834879,-6.076 -2.412513,-9.204 -1.701425,-3.371 -2.668732,-6.867 -0.49517,-10.241 1.9778,-3.066 1.258076,-6.268 1.482632,-9.401 0.259099,-3.581 0.725479,-7.159 1.433687,-10.732 1.355959,-6.846 2.452816,-13.621 2.677369,-20.489 0.109399,-3.287 0.09212,-6.57 -0.12667,-9.856 -0.095,-1.436 -2.54782,-1.568 -2.570851,-0.094 -0.01727,1.634 -0.118029,3.272 -0.411683,4.906 0,1.959 0.351226,-1.959 0,0 z m 2.087197,70.432 c 1.497025,-2.352 0.207282,-4.836 0.1497,-7.215 0,2.407 -0.1497,4.811 -0.1497,7.215 1.32717,-2.087 0,-1.736 0,0 z M 64.12893,32.35 c -1.520056,7.228 -2.838588,14.514 -3.469064,21.761 -0.299406,3.47 -1.240804,6.742 -2.231142,10.183 -1.019129,3.535 0.359861,6.801 1.807943,10.277 -1.163071,-6.781 -0.190007,-13.25 1.71582,-20.028 2.046894,-7.279 4.977606,-14.493 5.429592,-21.817 0.192885,-3.154 0.5729,-6.307 0.791695,-9.46 0.233191,-3.343 -1.396262,-6.641 -1.396262,-9.948 -3.733924,-0.801 -2.544942,1.632 -2.553578,2.13 -0.02879,1.765 -0.04894,3.529 -0.06334,5.294 -0.03168,3.869 -0.03168,7.739 -0.03168,11.608 -0.213039,1.015 0,-6.357 0,0 z m 7.865136,-6.176 c 0,4.679 0.616082,9.48 -0.414562,14.14 -1.096859,4.964 -5.291405,9.88 -3.903777,14.891 5.639749,-0.018 3.97575,-5.342 4.62638,-6.572 2.020981,-3.819 1.200498,-7.717 1.42793,-11.576 0.259101,-4.401 0.552747,-8.797 0.607447,-13.2 0.03167,-2.349 0.07773,-4.699 0.01433,-7.049 -0.02591,-0.932 1.695668,-3.92 -2.709038,-3.495 0.39153,4.291 -0.558505,8.567 0.351226,12.861 0,0.895 -0.713966,-3.371 0,0 z m 20.589837,8.279 c -0.380013,8.716 -3.834684,17.368 -5.078364,26.07 -0.578658,4.044 -2.697524,7.852 -1.548845,11.938 1.212013,4.319 4.301064,8.531 6.359474,12.805 -0.403045,-5.311 -2.792527,-10.563 -2.193717,-15.894 0.670782,-5.994 1.655363,-11.998 2.386602,-17.998 1.545965,-12.679 2.31463,-25.371 2.31463,-38.062 -0.693814,-0.064 -2.032498,-0.065 -2.723432,0 0.48941,7.045 0.875183,14.095 0.483652,21.141 -0.07485,1.704 0.28501,-5.126 0,0 z m 5.916125,43.053 c -0.135312,-1.308 -0.273495,-2.647 -0.195765,-3.976 -0.213037,1.316 -0.07774,2.652 0.195765,3.976 z M 97.668029,37.511 c -0.305163,6.639 -0.993219,13.246 -2.59964,19.864 -1.675517,6.886 -2.927834,13.584 -0.325316,20.455 0.250464,-2.426 1.105495,-4.988 4.105301,-7.213 1.056554,-2.826 0.993217,-5.628 1.016248,-8.475 0.04318,-6.028 -0.07485,-12.048 0.811848,-18.07 0.85503,-5.806 1.10549,-11.613 1.26096,-17.427 0.0748,-2.813 0.006,-5.627 -0.023,-8.44 -0.0114,-1.31 -0.0662,-2.619 -0.10652,-3.929 -0.0403,-1.332 -0.69094,-0.961 -4.007422,-0.961 0.143939,8.066 0.08349,16.131 -0.132431,24.196 -0.07485,1.621 0.213037,-7.999 0,0 z M 104.3413,22.416 c -0.81473,9.183 -0.82912,18.368 -0.82912,27.554 5.95931,0 3.38558,-5.217 3.41149,-6.479 1.46248,-4.425 2.21962,-8.886 2.24553,-13.338 0.0259,-4.36 0.77443,-8.719 -0.23319,-13.074 -0.23607,-1.028 -0.56138,-2.055 -0.97306,-3.077 -0.32532,-1.224 -2.15629,-0.791 -2.36069,0.271 -0.52972,2.712 -0.93564,5.427 -1.26096,8.143 -0.21304,2.391 0.28789,-2.405 0,0 z m 8.55895,19.132 c -0.30516,7.492 1.65537,15.629 -2.37509,23.013 -1.0364,1.902 -3.30209,3.627 -3.86923,5.584 -0.56714,1.958 -0.095,3.929 0.56138,5.878 1.23793,3.676 3.73105,7.271 6.18099,10.867 -0.99034,-6.221 -7.65786,-12.396 -5.13019,-18.598 1.10837,-2.721 4.4191,-5.181 5.96218,-7.864 0.23608,-3.115 0.70534,-6.217 0.39729,-9.333 -0.63048,-6.384 0.0864,-12.791 -0.1497,-19.178 -0.11223,-3.021 -0.15546,-6.04 -0.1353,-9.062 0.0115,-1.71 0.0431,-3.42 0.0893,-5.13 0.0345,-1.247 -0.97307,-3.241 0.21015,-4.411 -0.65926,-0.061 -1.84249,-0.053 -2.50751,0 0.52396,9.413 1.04216,18.824 0.76579,28.234 -0.0748,1.825 0.0748,-2.525 0,0 z m -2.99117,33.419 c 4.88549,6.299 5.11004,12.639 7.59452,19.035 2.16493,-5.139 -2.61116,-10.951 -4.53714,-16.072 -1.13428,-3.017 -2.67737,-6.094 -1.83961,-9.135 0.78018,-2.846 3.10344,-5.488 3.10344,-8.366 -1.90582,4.907 -4.79335,9.537 -4.32121,14.538 4.39319,5.664 -0.34259,-3.621 0,0 z m 20.95546,-35.981 c -0.89822,5.546 -1.06231,11.1 -2.11599,16.648 -0.48654,2.569 -0.30516,5.321 -2.41539,7.812 -2.52478,2.2 -3.12072,4.725 -3.06315,7.071 1.45673,-3.788 6.09174,-7.453 8.9073,-11.132 -0.3685,1.228 -0.34259,2.481 -1.022,3.695 -0.77155,1.376 -3.12072,2.268 -4.31258,3.554 -1.95478,2.111 -1.44809,4.906 0.4779,6.999 -0.38866,-4.517 5.01791,-8.665 5.18776,-13.083 0.2044,-5.26 0.11512,-10.517 0.0979,-15.776 -0.0173,-5.199 1.19762,-10.347 0.60169,-15.561 -0.60457,-5.298 -1.6899,-10.594 -1.58627,-15.899 -4.54577,-0.407 -2.53918,2.208 -2.496,3.169 0.10646,2.474 0.43472,4.945 0.79458,7.416 0.72547,5.024 1.5402,10.055 0.94427,15.087 -0.13531,0.834 1.03928,-8.774 0,0 z m 6.74524,-1.029 c -1.57763,8.445 -0.0605,17.11 0.75428,25.563 0.40304,-3.53 2.61691,-6.925 2.59675,-10.448 -0.0231,-4.456 1.1055,-8.832 1.13429,-13.3 0.0317,-5.023 -1.05079,-10.033 -2.00947,-15.042 -0.44047,-2.301 -0.84352,-4.604 -1.07671,-6.909 -0.10647,-1.017 1.78491,-4.917 -2.57372,-4.507 1.08822,8.208 1.10549,16.427 1.17458,24.643 -0.42032,2.248 -0.0576,-6.792 0,0 z m -16.84728,-3.49 c 0.22744,-3.003 -1.37035,-5.984 -1.61793,-8.994 -0.30229,-3.721 0.0749,-7.443 0.0374,-11.166 -0.026,-2.56 -1.21203,0.364 -1.26384,1.106 -0.14682,2.103 -0.33107,4.204 -0.36275,6.307 -0.0633,4.273 0.56426,8.563 3.20709,12.747 0,0 -4.52561,-7.159 0,0 z M 13.679218,93.973 c -0.85791,-4.26 -1.761883,-8.121 -0.541231,-12.395 1.226408,-4.296 1.957646,-8.693 -2.73207,-12.789 0,5.665 0,11.336 -1.047917,16.99 -0.264858,3.348 0.1698546,6.883 4.528497,9.934 0.0029,-0.578 -0.095,-1.162 -0.207279,-1.74 -0.213038,-1.061 0.210159,1.09 0,0 z M 114.99897,69.431 c 0.88093,-2.767 3.39132,-5.51 3.82892,-8.279 0.4779,-3.024 0.82049,-6.058 0.82049,-9.086 -3.04875,4.16 -2.306,8.496 -5.28565,12.591 -3.03148,4.169 -1.45097,8.508 1.39339,12.628 -1.37036,-2.591 -1.60931,-5.236 -0.75715,-7.854 0.82911,-2.602 -0.77155,2.37 0,0 z m 0.75715,7.853 c 0.58441,1.196 1.72445,2.349 2.77812,3.505 -1.0767,-1.154 -1.91446,-2.331 -2.77812,-3.505 0.14969,0.306 0.84351,1.146 0,0 z m 2.65433,-7.624 c 0.61896,-1.729 1.8137,-3.418 3.04874,-4.954 -1.94612,1.65 -2.85585,3.287 -3.04874,4.954 z m 12.10574,27.971 c 0.14971,0.588 0.33107,1.176 0.54411,1.762 -0.4635,-2.754 0.52396,-5.313 -0.61896,-8.096 0.2879,2.109 0.2879,4.223 0.0749,6.334 0.13819,0.588 0.21303,-2.113 0,0 z M 118.41045,69.66 c -1.24656,3.037 0.5585,5.296 2.76662,8.191 2.53342,3.324 4.32984,6.713 5.85567,10.107 -0.47215,-6.206 -9.52914,-12.032 -8.62229,-18.298 -0.63336,1.546 -0.21304,1.475 0,0 z m 7.57724,-31.256 c -0.55274,8.626 1.84537,17.898 -4.53137,26.302 8.58773,-7.371 4.93729,-16.553 5.53898,-24.351 0.69094,-8.964 -3.16101,-18.116 -0.87806,-27.042 -2.9854,-0.237 -1.68703,3.135 -1.64384,3.887 0.14393,2.361 0.59593,4.719 1.04504,7.075 0.90396,4.694 1.93173,9.436 0.46925,14.129 -0.0604,0.945 2.50752,-8.049 0,0 z m 21.01591,49.067 c 0,0.188 0.0749,0.361 0.0749,0.545 -0.003,0 -0.0749,-0.205 -0.0749,-0.545 z m -0.21303,-1 c 0.0749,0.408 0.14976,0.75 0.21303,1.002 -0.0633,-0.336 -0.13814,-0.676 -0.21303,-1.002 z m -4.16576,-37.914 c 0.20441,3.445 -2.26569,6.825 -2.03825,10.267 0.22744,3.402 -0.61896,6.372 -1.91159,9.71 -2.41538,6.25 6.3969,11.841 8.11273,17.937 0,-5.904 -4.65229,-11.627 -3.38271,-17.6 1.32142,-6.224 1.2005,-12.45 1.76764,-18.697 0.56427,-6.184 3.71378,-12.215 2.69753,-18.442 -1.00474,-6.142 -3.89803,-12.253 -3.65044,-18.417 -0.4635,0 -0.92412,0 -1.38763,0 0.0777,11.736 0.96732,23.511 -0.20728,35.242 0.27062,4.557 0.20728,-2.067 0,0 z m 5.55339,-0.252 c -0.13528,2.488 -0.15258,5.081 3.13799,7.361 0.74562,-2.575 0.50669,-5.095 2.1131,-7.623 2.50752,-3.945 3.48922,-7.99 3.67348,-12.024 0.19,-4.145 -0.46063,-8.289 -1.31567,-12.421 -0.25046,-1.205 -1.77914,-10.38 -3.29345,-10.282 3.90666,11.678 0.57003,23.411 -4.31545,34.989 -0.13528,2.464 4.9517,-11.735 0,0 z M 9.3608789,120.408 c 0,1.777 1.2551971,3.545 3.6849821,5.109 -0.970187,-4.486 -2.303113,-8.963 -3.6849821,-13.438 0,2.776 0,5.554 0,8.329 0,1.854 0,0 0,0 z M 24.728408,88.633 c 0,7.742 2.507515,15.354 5.685812,23.025 1.58339,3.818 3.290573,7.633 4.894117,11.451 0.846395,2.014 1.666879,4.025 2.415392,6.043 0.693813,1.861 0.535473,2.029 5.66278,2 -1.727334,-7.098 -4.920026,-14.141 -8.44955,-21.152 -1.784912,-3.543 -3.661949,-7.082 -5.515957,-10.623 -1.836734,-3.51 -4.692594,-7.162 -4.692594,-10.744 0,0.871 0,0.799 0,0 z m 6.687667,-2.764 c -1.004734,-4.197 0.498048,-8.68 0.498048,-12.916 -3.851959,4.482 -6.011128,8.678 -4.309702,13.357 1.707183,4.701 3.995903,9.346 6.592664,13.99 2.939349,5.264 5.372013,10.563 7.367086,15.879 1.068069,2.85 2.012346,5.705 2.835709,8.564 0.299406,1.045 0.460623,6.633 3.304968,6.406 -2.639944,-15.227 -12.704552,-30.118 -16.288773,-45.28 -0.28501,-1.189 0.282132,1.194 0,0 z m -4.876845,33.082 c 2.179323,2.113 2.34054,4.33 1.620817,6.541 -0.391529,1.205 -0.978824,2.398 -1.399141,3.604 -0.506687,1.453 3.408607,1.566 7.084953,1.828 -3.615888,-9.598 -8.901535,-19.109 -12.649852,-28.701 -3.30497,5.72 -0.195766,11.31 5.343223,16.728 4.1053,3.981 -5.343223,-5.226 0,0 z m 9.814146,-34.392 c -1.278228,-2.535 -1.410658,-5.055 -2.222507,-7.59 0.333953,1.773 -0.7773,3.523 -0.575776,5.313 0.267735,2.396 1.522932,4.775 2.346297,7.154 1.712939,4.949 3.710891,9.887 5.714601,14.82 1.966284,4.844 3.938326,9.686 5.619599,14.541 0.832,2.4 1.592027,4.803 2.245535,7.211 0.259101,0.955 -0.138192,5.396 2.96238,5.141 -2.210989,-15.499 -7.937106,-31.342 -16.090129,-46.59 -1.177468,-2.332 0.630477,1.179 0,0 z m -2.222507,-7.588 c -0.371376,-1.369 -0.731238,-2.721 -2.219625,-4.013 0.688055,1.339 1.393383,2.683 2.219625,4.013 -0.135312,-0.504 -0.345465,-0.556 0,0 z m 23.808442,54.181 c 0.394409,0 0.785938,0 1.180348,0 -0.852155,-8.299 -3.388459,-16.572 -7.519668,-24.75 2.354932,8.241 5.009271,16.477 6.33932,24.75 0,0 -1.330049,-8.265 0,0 z M 49.150053,85.766 c -2.21099,-3.576 -1.355959,-6.812 -1.004734,-10.397 0.161218,-1.642 -0.498049,-3.28 -0.662145,-4.921 -0.178492,-1.766 1.497023,-4.252 -1.24656,-5.843 0,2.617 0.02302,5.22 0.155459,7.837 0.138192,2.689 -1.643846,5.169 -1.900069,7.838 -0.572898,5.949 5.636872,11.561 9.313219,17.289 3.74256,5.832 6.26159,11.754 7.79604,17.701 0.722601,2.811 1.229286,5.627 1.545965,8.445 0.109398,0.98 0.0058,7.523 1.462477,7.434 -0.287889,-15.469 -7.758615,-30.233 -15.459652,-45.383 -1.448084,-2.342 0.500927,0.986 0,0 z m 10.660538,1.455 c -4.292429,-6.014 -6.402657,-12.228 -6.402657,-18.43 -1.6093,2.124 -0.676539,4.201 -1.258077,6.336 -0.667901,2.455 -0.06047,4.934 1.188984,7.354 2.688886,5.201 5.348983,10.318 7.12238,15.582 3.699377,10.984 6.085978,22.027 6.655999,33.086 0.184251,0 0.371378,0 0.558507,0 0.567141,-14.684 -1.603545,-29.395 -7.865136,-43.928 -2.855861,-4 6.402657,14.867 0,0 z m 20.106186,4.045 c 0.397287,-4.955 0.970187,-10.377 -3.256027,-15.168 2.726311,3.832 -0.06334,8.193 -0.0058,12.146 0.06621,4.67 0.06908,9.338 0.05758,14.008 -0.02591,9.623 0.860787,19.277 0.06908,28.895 3.368305,0.283 2.055529,-1.354 2.133261,-2.086 0.181369,-1.76 0.339707,-3.52 0.469258,-5.279 0.267738,-3.588 0.437593,-7.178 0.541232,-10.768 0.20728,-7.248 0.141073,-14.498 -0.0087,-21.748 0.348346,-4.352 0.273495,13.293 0,0 z m 7.306628,-6.832 c 0.322437,-1.377 0.1497,-2.77 0.1497,-4.148 -1.37611,3.66 -2.907681,7.063 -3.120718,10.768 -0.2591,4.508 -0.587296,9.016 -0.929883,13.521 -0.670782,8.857 -1.399142,17.717 -1.805066,26.578 3.443156,0.277 2.2369,-2.479 2.369328,-3.279 0.359863,-2.193 0.688056,-4.385 0.99034,-6.578 0.552747,-4.025 1.007613,-8.051 1.367474,-12.078 0.736997,-8.261 0.978823,-16.521 0.978823,-24.784 0.1497,-0.637 0,1.734 0,0 z m -17.17835,25.062 c -0.91261,-6.719 -0.26198,-13.771 -3.437398,-20.406 -1.4049,-2.93 -3.279059,-5.832 -4.591834,-8.77 -1.473992,-3.299 -1.897191,-6.27 -5.061093,-9.443 1.01625,4.734 1.128526,9.418 4.177274,14.08 3.420123,5.234 5.291405,10.367 6.431445,15.723 2.159169,10.152 2.058409,20.295 2.058409,30.467 0.558504,0.049 1.606421,0.053 2.159169,0 -0.552748,-7.19 1.710062,-14.526 -1.735972,-21.651 -0.420318,-3.094 3.051625,6.309 0,0 z m 3.532401,21.656 c 1.819459,-1.605 0.785938,-4.627 0.875182,-6.584 0.132432,-2.938 0.218797,-5.877 0.279254,-8.816 0.118028,-5.9 0.118028,-11.803 0.118028,-17.703 -1.727335,11.014 -3.319363,22.08 -1.27247,33.103 0,0 -2.009467,-10.808 0,0 z M 90.983241,95.963 c 0,11.758 -3.820292,23.463 -5.844154,35.189 2.110229,0.145 2.334784,-5.447 2.533425,-6.383 0.685179,-3.174 1.410659,-6.348 2.02962,-9.523 1.24944,-6.416 2.032498,-12.853 1.281109,-19.283 0,11.441 1.40202,12.014 0,0 z m 8.075292,-15.918 c -0.869425,-3.355 -1.90007,-6.934 0.829121,-10.218 -6.414172,3.792 -6.091737,9.353 -5.164732,13.589 1.180344,5.395 1.597785,10.807 1.468234,16.217 -0.250463,10.525 -2.576609,21.021 -4.57456,31.52 3.460429,0.285 2.858741,-3.424 3.123598,-4.342 0.62472,-2.164 1.24944,-4.326 1.845372,-6.488 1.188981,-4.313 2.271445,-8.629 3.060262,-12.951 1.655362,-9.102 1.946132,-18.245 -0.587295,-27.327 -0.210159,-0.809 4.862447,17.439 0,0 z m -2.720553,44.121 c 0,2.344 -0.921246,4.674 -1.943253,6.986 1.9778,-2.047 2.611157,-4.756 1.943253,-6.986 0,2.326 0.696693,2.326 0,0 z m 20.10619,-32.324 c -0.25623,-5.324 -2.01523,-10.645 -5.7434,-15.813 -3.64179,-5.048 1.57764,-10.592 3.52377,-15.599 -3.08041,5.352 -8.83244,9.763 -5.18201,15.352 3.94121,6.041 5.09852,12.258 4.57168,18.438 -1.05655,12.414 -8.51,24.617 -12.40514,36.936 4.30682,0.393 5.06973,-6.158 5.64838,-7.447 1.59779,-3.559 3.25315,-7.113 4.73578,-10.678 2.9192,-7.017 5.17337,-14.093 4.85094,-21.189 -0.27062,-5.59 0.57577,12.717 0,0 z m 10.87357,-18.205 c -1.92598,-2.094 -2.4269,-4.889 -0.47501,-7 0.90684,-0.981 2.85586,-1.675 3.68786,-2.664 1.2552,-1.493 1.1861,-3.052 1.64672,-4.586 -4.35576,5.702 -12.80531,11.221 -6.11765,17.066 6.41418,5.605 8.9217,11.686 9.41686,17.686 1.07095,12.895 -9.41686,24.586 -17.21578,37.016 4.07076,0 5.9881,0.492 6.59555,-1.055 1.10261,-2.807 2.306,-5.607 3.51225,-8.41 2.3866,-5.553 4.77896,-11.109 6.31053,-16.699 2.87601,-10.501 2.53055,-21.276 -7.36133,-31.354 -0.0777,-0.084 17.94702,18.289 0,0 z m 0.13531,57.515 c 5.17625,0.506 4.70124,-2.896 5.43248,-4.119 1.63232,-2.727 3.3424,-5.447 4.87972,-8.182 2.88753,-5.135 5.13019,-10.336 5.13019,-15.582 -5.3058,9.284 -11.83514,18.493 -15.44239,27.883 0,0 3.60725,-9.39 0,0 z m -14.95872,-13.246 c -1.13428,4.588 -7.08783,8.736 -8.98214,13.246 5.01503,0.502 5.63399,-3.25 6.50341,-4.48 2.0325,-2.871 3.17254,-5.807 2.47873,-8.766 -1.11701,4.512 1.17747,5.026 0,0 z m 13.43579,-37.584 c -0.95004,-3.521 -2.29735,-7.041 -4.53138,-10.494 0,3.561 2.26569,7.04 4.53138,10.494 -0.49805,-1.845 -2.2369,-3.409 0,0 z m 4.51122,10.975 c 0,-3.732 -2.13901,-7.354 -4.51122,-10.975 4.4479,17.045 -5.33459,33.979 -11.19889,50.83 3.80301,0.336 3.05738,-2.275 3.44891,-3.174 0.76867,-1.756 1.60643,-3.508 2.47009,-5.258 1.72158,-3.484 3.55831,-6.963 5.18776,-10.453 3.23876,-6.933 5.55915,-13.933 4.60335,-20.97 0,-0.184 0.2879,2.123 0,0 z m 16.01818,2.568 c 0,6.031 1.79066,11.799 -1.85691,17.762 -3.97286,6.498 -8.59061,12.955 -11.51844,19.525 1.77916,0 3.55831,0 5.33747,0 0.90397,0 1.79355,-3.814 1.99795,-4.342 1.53157,-3.953 3.2877,-7.896 4.93442,-11.846 1.54309,-3.705 3.15815,-7.293 2.58525,-11.039 -0.51245,-3.351 -1.47974,-6.702 -1.47974,-10.06 0,5.225 0,4.184 0,0 z m -2.7177,37.287 c 3.81454,0 4.70411,0.422 5.02368,-1.078 0.53547,-2.52 1.15156,-5.033 1.85688,-7.547 1.31278,-4.689 2.91344,-9.369 4.80487,-14.033 -7.13678,7.289 -10.48204,14.986 -11.68543,22.658 0,0 1.23505,-7.884 0,0 z m 21.34412,-94.051 c 0.86942,-2.142 3.06889,-23.787 -1.06232,-23.787 -5.47276,0 -4.58031,0.16 -4.61198,2.192 -0.0403,2.522 0.26198,5.044 0.81183,7.559 1.02489,4.701 2.90193,9.373 4.86247,14.036 0,0 -3.3971,-8.074 0,0 z m -5.07261,23.288 c -1.01338,3.509 1.39626,6.992 4.66669,10.291 -0.12383,-9.703 4.46803,-19.147 8.4409,-28.734 2.32327,-5.607 4.3097,-11.245 4.72426,-16.913 0.20728,-2.838 0.0202,-5.681 -0.70245,-8.51 -0.10935,-0.435 -0.43471,-3.207 -1.5143,-3.207 -1.33005,0 -2.66009,0 -3.99013,0 4.07075,15.825 -8.33153,31.377 -11.62497,47.073 -0.90397,3.131 3.35102,-15.965 0,0 z m 21.37289,31.994 c 1.35307,-2.186 2.74071,-4.352 3.47483,-6.576 -1.63522,2.185 -2.50752,4.353 -3.47483,6.576 0.27063,-0.436 0.33684,-0.772 0,0 z m 0,0 c -0.49518,0.953 -0.7082,1.473 -0.7082,1.473 0.28788,-0.483 0.49804,-0.975 0.7082,-1.473 z m 3.05162,-34.327 c -3.34239,9.666 -1.23792,19.217 -1.81369,28.907 6.15794,-5.475 3.56407,-12.119 3.73105,-17.958 0.18999,-6.721 2.42689,-13.442 5.64262,-20.065 3.12647,-6.432 10.13946,-13.031 10.28628,-19.568 0.0489,-1.943 -1.14004,-16.633 -7.4736,-16.057 6.03704,7.668 7.07057,15.158 2.9451,22.986 -3.84043,7.296 -10.67206,14.376 -13.31776,21.755 -0.83199,2.407 4.31259,-12.025 0,0 z m 17.8146,-27.652 c -0.30229,9.444 -2.22251,18.882 -5.88447,28.242 -1.68991,4.317 -4.01316,8.598 -6.2731,12.882 -2.09583,3.957 2.19083,8.948 3.9412,12.897 0.65928,-4.928 -0.46062,-9.968 1.0767,-14.87 1.98357,-6.313 4.02758,-12.62 5.49294,-18.952 1.51717,-6.559 2.57949,-13.132 2.93071,-19.712 0.17561,-3.291 0.17274,-6.583 -0.046,-9.875 -0.0662,-1.099 0.22744,-7.896 -2.35493,-7.706 1.00186,5.693 1.32141,11.394 1.11701,17.094 -0.33683,10.515 0.0749,-2.067 0,0 z m -25.18168,16.881 c 3.78863,-6.325 8.54743,-12.322 9.18654,-18.836 0.29654,-3.044 0.006,-6.095 -0.8291,-9.126 -0.46351,-1.679 -1.09112,-3.352 -1.88569,-5.015 -0.64199,-1.35 -1.18034,-0.995 -4.65803,-0.995 5.67427,11.247 4.59182,22.792 -1.81372,33.972 0.48366,-0.807 6.40266,-11.177 0,0 z m 0,0 c -1.32716,2.069 -2.02386,3.291 -2.02386,3.291 0.6967,-1.089 1.39051,-2.189 2.02386,-3.291 z m 9.25276,0.69 c 4.95746,-6.032 7.54846,-12.273 7.76149,-18.545 0.1007,-3.024 -0.32818,-6.05 -1.18898,-9.06 -0.48078,-1.684 -1.09686,-3.363 -1.82233,-5.036 -0.40305,-0.918 0.34258,-2.373 -3.43453,-2.021 5.51598,11.498 4.30972,23.199 -1.31565,34.662 9.87172,-12.013 5.77795,-11.78 0,0 z m -5.35762,9.357 c 2.03826,-3.101 3.80878,-6.222 5.35475,-9.356 -2.43843,3.077 -4.00166,6.197 -5.35475,9.356 2.08144,-3.167 0,0 0,0 z m 18.56598,7.924 c 1.12852,-2.643 2.02962,-5.295 2.93935,-7.948 -1.50853,2.63 -2.32327,5.277 -2.93935,7.948 1.1199,-2.631 0,0 0,0 z m 2.9336,-7.949 c 4.04196,-7.431 6.28749,-14.973 7.01874,-22.529 0.3829,-3.94 0.35986,-7.884 -0.0231,-11.824 -0.12094,-1.243 -0.57,-9.82 -3.02858,-9.64 2.35205,14.667 0.74562,29.4 -3.96711,43.993 7.93999,-14.587 4.65805,-14.42 0,0 z m 3.46618,9.563 c -2.02673,3.793 1.22065,7.515 2.23403,11.271 -1.14006,-4.223 0.0835,-8.271 1.04503,-12.5 1.36459,-6.289 2.50176,-12.583 3.31072,-18.884 0.76579,-5.939 1.23793,-11.883 1.31566,-17.829 0.046,-2.975 -0.0121,-5.949 -0.17561,-8.923 -0.0805,-1.488 -0.19002,-2.975 -0.32531,-4.462 -0.0835,-0.932 1.36746,-2.593 -2.72344,-2.231 2.91632,17.845 3.20709,35.852 -4.68108,53.558 -2.08143,3.892 7.87953,-17.686 0,0 z m 13.92522,-44.067 c -3.70514,4.385 -1.85978,9.123 -0.9011,13.597 0.84351,-1.938 -0.88671,-3.944 -0.30516,-5.937 0.73699,-2.542 2.3175,-5.1 1.20626,-7.66 -3.5353,4.182 1.81945,4.181 0,0 z m 2.92495,12.689 c 0.19863,-4.257 0.0864,-8.515 -0.18138,-12.771 -0.13528,-2.094 -0.3023,-4.188 -0.49517,-6.281 -0.095,-1.074 1.73885,-3.586 -3.15815,-3.126 1.25233,8.581 3.18982,17.151 3.69074,25.743 0.0633,-1.188 0.10647,-2.377 0.14388,-3.565 0.35986,-7.564 -0.0633,2.116 0,0 z m 7.87952,-13.728 c 0,3.505 -0.57002,7.008 -0.36562,10.55 0.27061,-3.518 2.71767,-7.033 0.36562,-10.55 z m 1.65535,15.648 c -0.80895,-0.79 -1.31565,-1.611 -1.65246,-2.44 0.41455,1.936 1.12563,3.866 2.29446,5.765 -0.003,-1.102 -0.44335,-2.226 -0.642,-3.325 -0.82624,-0.808 0.34836,1.936 0,0 z m -1.65535,-2.44 c -0.15834,-0.895 -0.29365,-1.774 -0.36562,-2.658 -0.0576,0.885 0.0749,1.763 0.36562,2.658 z m 8.11561,10.334 c -3.53817,-10.835 -5.66568,-21.125 -1.10264,-31.992 -4.5803,4.322 -3.63315,10.594 -3.55254,15.274 0.0864,5.601 1.47687,11.222 4.65518,16.718 0,0 -5.62824,-9.729 0,0 z M 225.55994,33.643 c -0.34258,-5.704 -0.33681,-11.409 -0.33681,-17.114 0,6.413 -3.89804,13.066 0.4203,19.4 -0.0633,-0.762 -0.0835,-1.524 -0.0835,-2.286 -0.3397,-5.608 0,1.352 0,0 z m 5.36626,40.865 c 0.88094,-20.357 -2.24265,-40.787 -1.32717,-61.19 -2.58523,-0.187 -1.56899,4.653 -1.59202,5.561 -0.0604,2.596 -0.1007,5.192 -0.12955,7.789 -0.0548,5.194 -0.0317,10.389 0.11809,15.583 0.30227,10.756 1.13715,21.514 2.9307,32.257 0.0633,-1.439 -3.40573,-20.369 0,0 z m 23.4601,20.023 c -0.0893,-1.367 -0.141,-2.719 -0.56713,-4.076 -0.003,1.367 0.44334,2.711 0.56713,4.076 0,0 -0.0747,-0.797 0,0 z M 241.29597,52.908 c 3.26754,9.761 5.08989,19.596 8.47259,29.33 -0.26486,-5.402 0.90109,-10.758 -1.16596,-16.122 -2.21386,-5.757 -3.9556,-11.537 -5.20503,-17.329 -2.54206,-11.8 -3.01996,-23.652 -1.42793,-35.473 -2.95375,-0.268 -2.64859,0.14 -2.77238,1.097 -0.23031,1.827 -0.41456,3.655 -0.54411,5.483 -0.26773,3.656 -0.33684,7.313 -0.22455,10.97 0.22743,7.357 1.21489,14.71 2.86737,22.044 1.95765,5.838 -3.00268,-13.295 0,0 z m 18.38173,22.856 c -1.68703,-9.836 -7.55709,-19.607 -10.87069,-29.396 -3.7109,-10.959 -5.81249,-22.032 -3.19845,-33.052 -3.39422,-0.275 -2.6342,4.509 -2.74071,5.501 -0.2735,2.564 -0.33107,5.131 -0.21304,7.697 0.26486,5.502 1.37324,10.996 3.0142,16.468 3.29922,10.992 8.75471,21.887 14.00869,32.782 0,0 -9.9696,-20.68 0,0 z M 252.08031,16.53 c -13.26882,8.865 -1.73885,19.875 4.31257,28.875 -5.68004,-9.666 -9.0685,-19.041 -4.31257,-28.875 -12.51743,8.363 -3.54393,7.323 0,0 z m 17.67929,39.34 c 0.21015,0.281 0.4203,0.563 0.63911,0.844 -6.70783,-14.48 -19.08708,-28.562 -9.33338,-43.314 -16.1765,13.631 -2.17068,28.865 8.56183,42.312 -0.11235,-0.378 -0.23031,-0.756 -0.34259,-1.135 0.15258,0.431 0.31092,0.862 0.47503,1.293 0.20727,0.278 -0.14102,-0.435 0,0 z m 16.63135,-10.345 c 0.57291,-10.768 -7.3786,-21.4 -3.47483,-32.21 -4.57168,-0.415 -3.74543,4.09 -3.94983,5.198 -0.58153,3.141 -0.54124,6.293 -0.006,9.434 1.00185,5.92 3.72816,11.794 7.43043,17.578 0,0 -6.66751,-10.42 0,0 z m 6.46311,6.391 c 2.42978,2.489 2.30887,5.395 7.99181,7.372 -2.27145,-2.616 -5.05533,-5.172 -6.33932,-7.882 -1.9778,-4.162 1.36171,-8.183 2.04977,-12.338 1.42217,-8.587 -1.8828,-17.165 -1.12564,-25.754 -1.73599,0 -3.46331,0 -5.19641,0 -2.76085,0 -1.88855,2.89 -1.96916,3.726 -0.35409,3.921 0.29077,7.845 1.15155,11.753 1.70143,7.688 4.45941,15.399 3.4374,23.123 2.16782,2.223 1.67553,-12.689 0,0 z m -12.86001,15.385 c 0.22167,-3.96 -4.51411,-7.907 -6.90358,-11.781 -2.79252,-4.522 -4.87108,-9.096 -6.25296,-13.696 -2.82995,-9.473 -2.61978,-19.036 0.0749,-28.51 -4.41622,-0.398 -3.29057,3.146 -3.53817,4.172 -0.57865,2.432 -0.98745,4.869 -1.20912,7.309 -0.43759,4.848 -0.1469,9.706 0.97018,14.541 2.19371,9.517 7.58011,18.968 16.85879,27.965 0,0 -17.41154,-16.881 0,0 z m 7.92271,25.135 c 0,1.23 0,2.436 0,3.654 0.34547,-1.242 0.28501,-2.451 0,-3.654 z m -3.75694,-27.404 c 1.06805,6.951 0.29075,13.981 1.6064,20.903 1.60068,-5.885 2.30025,-11.668 1.8684,-17.582 -0.22455,-3.072 -1.01912,-6.113 -1.85975,-9.171 -0.87807,-3.191 -3.65908,-6.128 -5.71173,-9.247 -7.91694,-12.043 -7.69816,-24.417 -3.34527,-36.623 -5.04958,-0.486 -3.4633,1.989 -3.63892,3.119 -0.37426,2.426 -0.56715,4.855 -0.61032,7.285 -0.0691,4.534 0.42032,9.067 1.35307,13.589 1.91447,9.303 5.70021,18.546 10.33812,27.727 0.48077,3.14 -8.97064,-17.755 0,0 z m 16.28301,-11.916 c 0,3.607 5.44397,6.339 9.31609,9.534 -1.64096,-3.635 -7.51104,-6.791 -7.51104,-10.587 0,-4.962 0.59594,-9.922 1.26096,-14.878 0.67655,-5.063 1.43657,-10.125 1.77916,-15.192 0.17273,-2.532 0.23608,-5.065 0.13815,-7.598 -0.0633,-1.625 -2.3319,-1.082 -6.45735,-1.082 4.73578,13.223 -0.26198,26.54 1.474,39.803 0,4.169 -1.73598,-13.271 0,0 z m 11.42057,-27.91 c 0.98456,5.121 0.21303,10.269 -0.74564,15.383 -0.45774,2.431 -0.97883,4.861 -1.379,7.293 -0.48365,2.921 0.50381,4.579 3.16679,7.336 -1.474,-0.884 -0.30228,-3.427 -0.31956,-4.459 -0.0374,-2.151 0.0604,-4.303 0.21016,-6.454 0.30804,-4.257 0.85792,-8.512 1.08823,-12.77 0.21015,-3.912 0.15257,-7.828 -0.59018,-11.733 -0.41456,-2.169 -1.02777,-4.334 -1.91159,-6.486 -0.97307,-0.239 -4.66093,0 -5.92188,0 2.11312,1.44 2.38085,3.847 3.46908,5.45 1.43944,2.121 2.59387,4.26 2.93359,6.44 0.77154,4.025 -0.69958,-4.492 0,0 z m 1.03351,30.012 c 0.48366,0.894 0.96731,1.426 0.96731,1.426 -0.19289,-0.485 -0.54123,-0.956 -0.96731,-1.426 z m 4.87397,-30.881 c 1.4049,3.427 0.006,6.863 -0.47214,10.293 -0.49518,3.556 1.49127,6.906 2.7695,10.411 0.65063,-2.16 0.0633,-4.376 0.16698,-6.547 0.15258,-3.315 2.139,-6.535 2.2772,-9.838 0.13528,-3.202 -1.12276,-6.383 -2.36646,-9.548 -0.58441,-1.422 0.56714,-6.371 -5.36913,-5.792 -0.009,3.7 1.79067,7.354 2.99405,11.021 2.36932,5.778 -1.18899,-3.623 0,0 z m -1.18899,25.635 c 0,4.167 3.67923,8.151 5.24248,12.25 1.71004,4.472 -2.39525,8.458 -2.57086,12.864 -0.1756,4.416 -1.22354,8.873 -1.0767,13.273 0.0691,2.213 0.29939,3.855 -1.61218,6.004 -1.57476,1.773 -2.91345,3.566 -1.51143,5.418 0.63048,-3.016 5.87296,-5.516 6.59842,-8.471 1.09399,-4.451 0.50958,-9.014 0.84353,-13.481 0.17273,-4.53 1.73884,-9.095 1.22928,-13.617 -0.53835,-4.829 -3.23587,-9.61 -7.14254,-14.24 0,3.663 2.65433,3.144 0,0 z m 9.38807,-17.501 c -1.53445,5.775 -0.15257,11.88 0.0231,17.681 0.17561,5.861 2.99118,11.729 1.30413,17.591 6.96116,0 2.96815,-7.633 2.40388,-9.086 -1.92022,-4.949 -1.20914,-9.63 -1.48838,-14.588 -0.29941,-5.416 0.28213,-10.718 0.76002,-16.115 0.23607,-2.681 -0.30804,-5.364 -0.97019,-8.034 -0.33683,-1.369 -0.71107,-2.736 -1.05079,-4.105 -0.40304,-1.626 0.39728,-2.079 -4.49683,-2.341 0.54411,3.506 2.31463,6.967 4.27229,10.406 1.71581,2.999 0.927,5.6 -0.75717,8.591 -0.33106,1.247 1.32717,-2.356 0,0 z m 18.52855,-3.455 c 0.095,20.035 1.95189,40.045 2.80404,60.076 0.67079,-9.035 1.31566,-18.014 1.31566,-27.063 0,-4.011 -0.0151,-8.017 -0.23607,-12.027 -0.30516,-5.542 -0.66502,-11.084 -0.97306,-16.626 -0.13815,-2.5 -0.26774,-5.001 -0.39728,-7.501 -0.12955,-2.375 0.61895,-5.41 -3.10921,-7.468 0.48653,3.538 0.59592,7.066 0.59592,10.609 0.0662,14.355 0,-2.055 0,0 z m -10.58856,12.229 c -1.77628,-3.411 -1.5949,-7.019 -1.00474,-10.467 0.5873,-3.44 3.53816,-6.713 -0.25621,-10.066 0,2.201 0.89821,4.401 0.28789,6.6 -0.56714,2.053 -2.34343,3.966 -2.64859,6.052 -0.54123,4.938 0.0577,9.957 3.98151,14.734 0,-2.283 -0.26774,-4.57 -0.35986,-6.853 -1.53445,-2.949 0.15546,3.939 0,0 z m 4.11106,-12.713 c 0,11.64 0.79745,23.319 5.28565,34.869 -0.67654,-7.634 -2.0469,-15.227 -1.90007,-22.873 0.0835,-4.305 0.36562,-8.608 0.54123,-12.913 0.0805,-2.044 0.38001,-4.084 0.35987,-6.129 -0.0202,-2.327 0.84638,-3.99 -4.56018,-5.574 0.36273,4.207 0.2735,8.413 0.2735,12.62 0,11.734 0,-0.978 0,0 z m -184.54277,30.48 c -2.6198,9.254 0.44623,18.93 4.51122,28.087 -0.0548,-12.115 -1.96628,-24.255 -0.003,-36.366 -2.01523,2.729 -2.58813,5.547 -4.50835,8.279 -0.76866,2.711 1.94612,-2.77 0,0 z m 58.92805,6.244 c -0.90109,3.916 -2.37509,7.955 -2.36933,11.876 0.009,4.121 2.85874,8.146 3.84332,12.236 1.70143,-5.326 -1.08534,-10.9 -1.59778,-16.254 0.36561,-5.661 0.23318,-11.471 5.78081,-16.875 -3.81452,2.802 -4.93729,5.963 -5.65702,9.017 -0.75427,3.282 0.77155,-3.262 0,0 z m 27.91087,15.15 c -0.61609,-6.553 -1.74174,-13.178 -3.83469,-19.692 0.88381,10.863 1.47974,21.754 4.83079,32.573 -0.29654,-4.32 0.17848,-8.558 -0.9961,-12.881 -0.34836,-3.714 0.90973,3.358 0,0 z m -3.83469,-19.691 c -0.20728,-2.126 -0.69094,-4.241 -2.29448,-6.562 0.79168,2.32 1.60354,4.436 2.29448,6.562 z m 4.8135,-7.807 c -1.36746,-4.132 -2.9854,-8.258 -5.29715,-12.341 6.41992,18.869 8.29984,37.952 12.74196,56.888 -0.046,-6.646 -0.0893,-13.297 -0.48365,-19.941 -1.34155,-8.231 -4.22044,-16.417 -6.96116,-24.606 -1.39625,-4.23 1.95765,5.837 0,0 z m -12.80243,31.401 c -8.38333,-12.994 0.79458,-26.43 -1.45672,-39.556 -2.45568,7.207 -5.79521,14.401 -6.12629,21.672 -0.16985,3.649 0.68231,7.248 2.09873,10.86 1.29837,3.304 4.51986,6.438 5.89885,9.726 -0.86081,-0.599 -0.28502,-2.054 -0.41457,-2.702 -1.66687,-2.58 0.33683,1.668 0,0 z m 39.72297,-5.211 c 1.9346,-8.816 -5.21656,-17.355 -8.95912,-25.982 -1.52582,3.507 0.78018,7.02 2.15341,10.482 1.33292,3.361 2.01522,6.802 2.68024,10.187 1.40491,7.188 4.05924,14.351 4.97186,21.56 -0.0151,-5.423 -0.95868,-10.825 -0.84639,-16.247 0.90109,-4.109 -0.0662,3.213 0,0 z m 6.06869,-12.94 c -1.59489,-3.864 -3.76847,-7.698 -5.00926,-11.58 2.70039,7.741 4.91426,15.634 3.87498,23.438 -1.16883,8.768 2.00084,17.557 -1.37323,26.291 3.83469,0 3.42013,0.096 3.50362,-1.229 0.095,-1.596 0.0691,-3.191 0.0805,-4.787 0.026,-3.662 0.0317,-7.326 0.0374,-10.988 0.009,-7.039 1.19761,-14.146 -1.11414,-21.145 -1.33292,-3.229 1.11991,3.381 0,0 z m 60.19765,0.529 c -0.88383,4.825 -1.44232,9.653 -1.91159,14.483 -0.23031,2.379 -0.0317,4.732 -0.13814,7.109 -0.0747,1.814 -2.40676,3.922 -1.8684,5.672 0.12955,0.416 3.01421,0.529 3.19558,0.145 0.42031,-0.902 0.71684,-1.781 0.71684,-2.697 0,-2.303 0.006,-4.604 0.19,-6.906 0.4779,-5.975 3.67347,-11.872 -0.18424,-17.806 -0.28789,1.568 0.90972,1.401 0,0 z m -180.79446,64.465 c 1.26384,-0.367 0.39154,-1.051 -0.0749,-1.84 0.026,0.614 0.0489,1.227 0.0749,1.84 0,0 0,-0.603 0,0 z m 5.2799,-19.515 c -7.41891,5.771 -8.70002,11.531 -5.35475,17.682 0.0749,-5.94 2.05842,-11.86 5.35475,-17.682 -5.35762,4.168 -3.33376,5.888 0,0 z m 1.7993,8.351 c 1.87416,-13.93 1.74749,-27.898 5.37778,-41.796 -3.61014,8.823 -5.33746,17.729 -6.06583,26.636 -0.38577,4.732 -0.48654,9.469 -0.41456,14.201 0.0345,2.201 0.10647,4.402 0.2044,6.604 0.0374,0.848 -0.66214,5.666 1.53158,5.52 -0.69095,-3.717 -1.09975,-7.444 -0.63337,-11.165 1.8281,-13.586 -0.46638,3.725 0,0 z m 21.37579,-29.939 c 1.11988,-1.871 2.3175,-3.732 3.68498,-5.584 -9.14625,7.533 -11.15284,15.111 -11.0895,23.246 0.0317,4.117 0.28501,8.232 0.38578,12.35 0.0633,2.592 0.33971,5.18 0.69381,7.768 0.16697,1.221 -1.71582,3.842 3.7627,3.324 -2.0987,-13.682 -4.95457,-27.553 2.56223,-41.104 0.84639,-1.416 -7.51969,13.555 0,0 z m 1.94613,9.039 c -2.11888,5.529 -4.42199,11.074 -4.53715,16.664 -0.0576,2.795 0.44624,5.59 1.65537,8.354 0.59882,1.369 1.27823,2.719 1.73885,4.098 0.27062,0.813 -0.60745,3.254 2.87889,2.949 -3.11497,-10.655 -4.36151,-21.382 -1.73596,-32.065 -3.60727,9.406 -2.70329,10.99 0,0 z m -16.1362,-5.223 c -2.92496,6.855 -3.45755,13.799 -3.5468,20.721 -0.0403,3.135 -0.0633,6.27 0.27638,9.402 0.18425,1.703 0.44334,3.404 0.73988,5.107 0.17273,0.992 -0.9846,2.443 3.15238,2.057 -0.8176,-5.945 -3.95848,-11.787 -3.59286,-17.758 0.40592,-6.519 2.97102,-13.003 2.97102,-19.529 -3.56407,8.356 0,9.405 0,0 z m 8.96775,-6.271 c -5.03519,7.346 -7.08784,14.889 -7.31526,22.428 -0.11809,3.875 0.22742,7.748 0.79457,11.617 0.2591,1.762 0.56427,3.521 0.89245,5.281 0.15546,0.832 -0.57864,4.467 2.42692,4.232 -3.23012,-14.605 -4.20895,-29.068 3.20132,-43.558 -10.14234,14.795 -5.3461,10.455 0,0 z m 14.33689,11.494 c -5.06398,5.625 -6.59555,11.535 -6.34795,17.406 0.13241,3.137 0.74562,6.27 1.51717,9.393 0.34834,1.404 0.73123,2.809 1.11988,4.209 0.40016,1.42 0.78019,1.057 4.34713,1.057 -1.39914,-10.678 -3.13799,-21.391 -0.63623,-32.065 -9.39096,10.432 -2.50752,10.697 0,0 z m 17.87503,-19.852 c -9.24124,8.281 -13.32063,17.117 -14.47506,25.963 -0.58441,4.465 -0.46638,8.938 -0.0151,13.402 0.25334,2.436 0.5988,4.869 0.99897,7.305 0.15259,0.939 -0.4635,5.488 2.57949,5.246 -1.89144,-17.39 3.24163,-34.752 10.911,-51.916 -18.43355,16.526 -7.8421,17.557 0,0 z m -5.70021,51.916 c 1.37612,0 2.74935,0 4.12547,0 -0.65928,-2.676 -1.3646,-5.348 -2.00947,-8.021 -1.1199,2.658 -1.84537,5.336 -2.116,8.021 0,0 0.28214,-2.789 0,0 z m 20.04287,-41.47 c -8.74897,6.658 -12.26697,13.955 -13.01261,21.229 -0.38001,3.703 -0.072,7.41 0.54988,11.105 0.34259,2.033 0.78592,4.064 1.26959,6.096 0.24182,0.994 -1.12566,3.453 3.33376,3.041 -2.34919,-13.848 -3.65044,-28.028 7.85938,-41.471 -16.85016,12.824 -11.52996,13.47 0,0 z m 12.52318,33.449 c -3.30498,1.898 -4.85958,2.93 -4.85958,5.188 0.75139,1.094 0.14675,3.281 4.64941,2.836 -1.4193,-2.653 -2.05552,-5.405 0.21017,-8.024 -2.08144,1.193 -2.34918,2.717 0,0 z m 5.37777,1.035 c 4.48532,-5.227 5.33746,-10.24 5.33746,-15.672 -0.78017,4.379 -1.35884,8.482 -5.57354,12.611 -1.83961,1.801 -5.63398,9.313 1.04505,10.047 -1.03929,-2.338 -1.72446,-4.621 -0.80897,-6.986 1.79354,-2.09 -0.90685,2.346 0,0 z m -22.35173,6.986 c 1.67553,0 3.35103,0 5.02655,0 -1.2264,-5.471 -3.233,-10.912 -4.19453,-16.391 -2.06995,5.428 -1.71873,10.938 -0.83202,16.391 0,0 -0.89532,-5.5 0,0 z m 12.12015,-2.839 c 0,-11.066 5.91323,-22.037 5.16761,-33.109 -0.31957,-4.781 0.30516,-9.539 -0.52397,-14.328 -0.832,-5.01 -1.69855,-10.017 -2.00082,-15.035 -3.02572,4.964 -3.44027,10.039 -2.21675,15.082 1.47975,6.064 1.15155,11.828 0.0173,17.898 -1.06808,5.729 -2.17933,11.459 -2.79828,17.197 -0.30518,2.873 -0.49517,5.746 -0.49806,8.621 0,1.445 0.0489,2.891 0.14976,4.336 0.0691,0.984 -1.32139,2.563 2.90481,2.176 -0.14689,-0.944 -0.20152,-1.891 -0.20152,-2.838 0,-0.69 0,0.947 0,0 z m 22.05519,-10.389 c 1.10838,-10.445 1.37899,-20.938 0.36561,-31.385 -0.47213,-4.934 -0.6132,-9.859 -1.08533,-14.771 -0.51821,-5.343 -3.65044,-10.611 -4.85958,-15.937 3.06891,12.89 2.28008,25.813 2.42978,38.737 0.0776,7.033 0.49518,14.104 -0.27061,21.135 -0.20152,1.871 -10.48781,16.576 0.69669,15.447 -1.90295,-4.408 -3.00268,-9.084 2.72344,-13.226 0.13242,-1.272 -5.78658,4.187 0,0 z m 6.80282,0.467 c 2.12174,-10.957 3.65907,-22.045 -2.56508,-32.887 1.01912,8.42 0.37424,16.848 -0.42033,25.266 -0.3829,4.082 -1.07671,7.824 -3.54968,11.818 -0.87231,1.408 -2.3175,9.182 4.18303,8.563 -1.63809,-4.255 -2.3319,-8.69 2.35206,-12.76 0.21591,-1.102 -4.73002,4.109 0,0 z m 5.78082,4.679 c 0.79457,-1.365 0.642,-2.736 0.642,-4.119 -1.03641,2.561 -3.39134,5.006 -3.79151,7.602 -0.17273,1.08 -1.97205,5.078 3.01996,4.6 -1.03064,-2.674 -1.56325,-5.43 0.12955,-8.083 0.34834,-0.599 -1.65537,2.596 0,0 z m 8.21636,2.424 c 0.13242,-2.926 0.22743,-5.813 -2.21963,-8.645 0,3.717 -0.13814,7.436 -0.0576,11.148 0.009,0.375 -0.93275,4.027 1.99507,3.152 0.006,-1.885 0.28215,-3.77 0.28215,-5.655 0.13528,-2.957 0,0.971 0,0 z m 19.27707,-16.453 c 0,-2.621 0,-5.242 0,-7.861 -4.24926,5.006 -2.2254,10.813 -1.87992,15.967 0.14387,2.572 1.01048,5.076 1.52579,7.641 0.28502,1.414 0.43185,2.832 0.50382,4.25 0.0403,0.816 -1.51141,2.432 2.20812,2.115 -2.13614,-7.374 -2.19085,-14.715 -2.35781,-22.112 0,-2.639 0.0604,2.631 0,0 z m 9.38806,10.875 c 0.41744,-4.158 -1.19186,-8.264 -2.56797,-12.381 -0.80898,-2.414 -1.49992,-4.842 -1.26672,-7.275 0.19865,-2.143 1.61794,-4.248 1.61794,-6.395 -0.98458,2.775 -3.1236,5.447 -2.89905,8.268 0.27925,3.455 2.35207,6.859 3.41149,10.291 0.4088,1.313 0.66791,2.631 0.57867,3.951 -0.11235,1.625 -1.85113,3.234 -0.88959,4.807 2.01235,3.291 3.46044,6.625 4.4738,9.971 0.23319,0 0.46351,0 0.69669,0 -2.20811,-3.688 -3.78575,-7.464 -3.15526,-11.237 0.42032,-4.217 -0.62185,3.695 0,0 z m -21.77307,4.432 c -0.14976,-11.904 -0.14689,-23.813 -0.14689,-35.719 -5.06109,8.875 -3.8462,17.953 -3.46619,26.943 0.19576,4.658 -0.49229,9.301 -0.49229,13.957 0,0.68 0.13528,2.666 4.16,1.617 0,-2.263 -0.0548,-4.531 -0.0548,-6.798 -0.1469,-11.676 0,1.849 0,0 z m 6.88632,-8.506 c 0.12382,-12.9 0.13814,-25.801 0.13814,-38.701 0,4.32 -2.28584,8.715 -2.96524,13.037 -0.7917,5.051 -0.9961,10.111 -0.97595,15.172 0.0172,5.037 0.19288,10.074 0.44624,15.111 0.11808,2.293 0.0431,4.576 0.48365,6.865 0.25046,1.275 0.46062,2.553 0.63911,3.832 0.60456,0.164 3.22723,0 4.04772,0 -0.95867,-5.133 -2.00084,-10.17 -1.8137,-15.316 0.0633,-6.539 -0.0776,2.164 0,0 z m 16.21391,-11.535 c -1.62656,-3.922 1.96342,-7.656 3.62165,-11.494 -6.68765,5.813 -5.087,11.979 -1.5805,17.963 3.94408,6.732 6.66463,13.529 8.41211,20.377 0.27925,0 0.55276,0 0.83201,0 -1.87415,-4.619 -3.77999,-9.244 -4.58608,-13.904 -0.76867,-4.472 -4.18015,-8.563 -6.69919,-12.942 -1.73884,-4.184 1.81083,3.15 0,0 z m 5.42961,-1.037 c 2.00371,4.211 5.63685,8.305 7.60315,12.516 2.34918,5.049 4.78471,10.092 6.73085,15.162 0.75714,0 -1.78203,-13.094 -2.20812,-14.295 -1.65535,-4.737 -6.31342,-9.085 -12.12588,-13.383 1.73597,3.65 3.53527,2.615 0,0 z m 7.15979,-1.049 c 7.90256,9.336 11.743,18.354 13.29473,28.064 2.97389,-0.49 3.1495,-0.268 2.78676,-1.576 -0.38577,-1.385 -0.80608,-2.771 -1.27246,-4.154 -0.92701,-2.756 -2.03539,-5.504 -3.38846,-8.238 -2.41251,-4.883 -5.36049,-9.588 -11.42057,-14.096 1.32717,1.568 1.75326,1.304 0,0 z m 7.09647,1.049 c 6.71647,3.234 7.43043,7.676 9.08292,11.482 2.00082,4.604 3.65907,9.227 4.83365,13.865 3.59861,-1.063 0.71684,-4.262 0.15546,-5.826 -0.86942,-2.428 -1.88279,-4.852 -3.04587,-7.266 -2.03537,-4.244 -3.56694,-8.671 -11.02616,-12.255 2.71193,1.308 2.71768,1.308 0,0 z m 23.32767,-5.823 c 0,-3.285 0,-6.568 0,-9.854 -2.07568,11.455 -0.14976,22.725 1.32717,34.174 2.51328,-8.021 -1.32717,-16.302 -1.32717,-24.32 0,-0.978 0,0.981 0,0 z m -7.17709,0.602 c -3.24449,4.359 -0.10646,8.846 1.35596,13.207 1.56037,4.658 2.91057,9.326 4.08515,13.998 1.2984,-1.559 -0.74563,-4.1 -1.17458,-5.736 -0.67079,-2.564 -1.3358,-5.131 -1.9231,-7.697 -1.04791,-4.567 -2.34343,-9.19 -2.34343,-13.772 -2.7119,3.65 0,1.826 0,0 z"
   id="path3050"
   inkscape:connector-curvature="0"
   style="fill:#7f5434" />
	<path
   d="m 66.03,37.753 c 0.025,0.368 0.538,10.454 0.558,10.934 -0.354,0.324 -10.05,9.17 -10.409,9.481 C 55.71,58.114 45.345,56.929 44.924,56.885 44.653,56.548 37.084,47.1 37.084,47.1 l 0.043,1.744 c 0.224,7.159 0.243,7.581 2.791,12.175 4.56,8.163 15.792,9.449 24.237,6.031 0.204,0.302 0.47,0.653 0.47,0.653 0,0 3.571,4.225 4.153,4.91 -0.761,0.688 -22.56,20.814 -22.56,20.814 -1.832,1.678 -2.878,3.943 -2.994,6.377 0,0.131 0,0.242 0,0.369 0,2.199 0.803,4.271 2.301,5.881 l 1.231,1.357 c 3.305,3.57 8.978,3.717 12.66,0.316 0,0 21.155,-19.518 21.96,-20.26 0.713,0.83 19.412,22.877 19.412,22.877 1.182,1.387 2.813,2.221 4.602,2.363 1.81,0.146 3.553,-0.41 4.935,-1.584 1.563,-1.344 2.396,-3.24 2.396,-5.16 0,-1.541 -0.535,-3.104 -1.607,-4.365 0,0 -19.117,-22.533 -19.787,-23.313 0.176,-0.164 0.354,-0.327 0.354,-0.327 1.969,-1.813 2.973,-4.285 2.973,-6.729 0,-1.798 -0.561,-3.575 -1.672,-5.107 0.688,-0.609 28.611,-26.378 28.611,-26.378 0.377,-0.344 0.578,-0.838 0.602,-1.383 0.023,-0.034 0.023,-0.068 0.023,-0.103 0,-0.637 -0.27,-1.305 -0.764,-1.821 -0.938,-1.015 -2.412,-1.192 -3.277,-0.391 0,0 -28.26,26.055 -28.771,26.549 -3.278,-2.079 -7.616,-1.754 -10.655,0.848 -0.602,-0.684 -3.814,-4.488 -3.814,-4.488 0,0 -0.315,-0.314 -0.582,-0.57 2.166,-3.552 3.974,-8.71 3.974,-13.647 0,-1.575 -0.175,-3.127 -0.603,-4.591 -0.893,-3.148 -2.746,-5.404 -5.494,-6.701 l -0.494,-0.245 c -2.723,-1.295 -4.529,-2.156 -12.53,-4.534 l -1.875,-0.562 c -0.015,0.007 8.451,9.368 8.697,9.648 z m 17.626,26.269 c 0.065,-0.058 0.135,-0.083 0.202,-0.083 0.066,0.047 0.086,0.106 0.086,0.158 0,0.055 -0.02,0.104 -0.086,0.161 0,0 -1.875,1.726 -2.481,2.297 -0.108,-0.113 -0.108,-0.122 -0.202,-0.234 0.558,-0.537 2.481,-2.299 2.481,-2.299 z m 3.551,3.852 c 0.088,-0.089 0.248,-0.104 0.291,-0.049 0.022,0.014 0.022,0.049 0.022,0.066 0,0.068 -0.049,0.146 -0.11,0.213 0,0 -2.035,1.881 -2.638,2.455 -0.11,-0.115 -0.11,-0.125 -0.224,-0.236 0.605,-0.551 2.659,-2.449 2.659,-2.449 z m 3.552,3.855 c 0.092,-0.104 0.223,-0.112 0.291,-0.057 0,0.032 0,0.057 0,0.086 0,0.101 -0.045,0.155 -0.09,0.188 0,0 -2.166,2.021 -2.813,2.604 -0.09,-0.123 -0.09,-0.141 -0.205,-0.244 0.608,-0.544 2.817,-2.577 2.817,-2.577 z M 47.226,97.742 c 0,-0.064 0.043,-0.139 0.086,-0.191 0,0 23.099,-21.313 23.904,-22.06 0.109,0.125 0.109,0.138 0.197,0.246 -0.735,0.692 -23.879,22.044 -23.879,22.044 -0.088,0.092 -0.248,0.104 -0.291,0.049 l -0.017,-0.088 z m 3.658,3.975 -0.087,-0.033 -0.02,-0.092 c 0,-0.063 0.043,-0.146 0.087,-0.199 0,0 22.938,-21.148 23.744,-21.889 0.115,0.105 0.115,0.121 0.204,0.232 -0.735,0.688 -23.726,21.891 -23.726,21.891 -0.065,0.053 -0.133,0.09 -0.202,0.09 z m 3.463,3.808 -0.023,-0.078 c 0,-0.078 0.049,-0.146 0.092,-0.193 0,0 22.783,-21.016 23.588,-21.756 0.088,0.115 0.11,0.125 0.196,0.236 -0.734,0.682 -23.563,21.738 -23.563,21.738 -0.085,0.096 -0.244,0.11 -0.29,0.053 z"
   id="path3052"
   inkscape:connector-curvature="0"
   style="fill:#f0d9a8" />
	
		<radialGradient
   id="SVGID_1_"
   cx="162.46291"
   cy="971.71088"
   r="79.909103"
   gradientTransform="translate(-83.8398,-943.3838)"
   gradientUnits="userSpaceOnUse">
		<stop
   offset="0"
   style="stop-color:#7F5434"
   id="stop3055" />
		<stop
   offset="0.1767"
   style="stop-color:#7A5132"
   id="stop3057" />
		<stop
   offset="0.3854"
   style="stop-color:#6C462B"
   id="stop3059" />
		<stop
   offset="0.6104"
   style="stop-color:#54361F"
   id="stop3061" />
		<stop
   offset="0.8452"
   style="stop-color:#331E0F"
   id="stop3063" />
		<stop
   offset="1"
   style="stop-color:#190C03"
   id="stop3065" />
	</radialGradient>
	<path
   d="m 121.985,34.615 c -0.735,-0.795 -1.854,-0.962 -2.504,-0.358 L 90.423,61.06 c -3.129,-2.246 -7.592,-1.998 -10.631,0.805 l -0.182,0.156 -4.156,-4.902 c -0.269,-0.303 -0.56,-0.582 -0.85,-0.83 4.758,-7.446 6.744,-20.549 -1.68,-24.546 -3.036,-1.432 -4.509,-2.233 -12.95,-4.745 l 7.524,8.343 0.582,11.38 -10.79,9.827 -11.721,-1.34 -6.949,-8.676 c 0.223,7.19 0.223,7.527 2.723,12.015 4.536,8.144 15.815,9.135 23.946,5.646 0.199,0.328 0.422,0.653 0.67,0.969 l 4.516,5.291 -22.96,21.174 c -3.464,3.199 -3.755,8.516 -0.65,11.861 l 1.227,1.354 c 3.107,3.355 8.421,3.48 11.886,0.285 l 22.381,-20.65 19.791,23.322 c 2.23,2.613 6.142,2.939 8.755,0.717 2.614,-2.225 2.95,-6.145 0.717,-8.756 L 91.496,76.051 92.235,75.364 c 3.351,-3.09 3.728,-8.142 0.959,-11.514 l 28.945,-26.704 c 0.653,-0.599 0.583,-1.728 -0.154,-2.531 z M 88.841,65.246 c 0.246,0.292 0.197,0.762 -0.111,1.066 l -3.082,2.83 -0.916,-1.066 3.033,-2.805 c 0.339,-0.291 0.802,-0.303 1.076,-0.025 z m -4.629,-3.817 c 0.313,-0.3 0.811,-0.311 1.076,-0.023 0.268,0.291 0.223,0.762 -0.111,1.051 l -2.906,2.694 -0.918,-1.076 2.859,-2.646 z M 47.783,96.008 c -0.267,-0.289 -0.224,-0.756 0.111,-1.063 l 24.301,-22.439 0.916,1.072 -24.257,22.41 c -0.334,0.289 -0.805,0.301 -1.071,0.02 z m 4.623,3.818 c -0.335,0.301 -0.805,0.313 -1.07,0.02 -0.249,-0.271 -0.224,-0.76 0.11,-1.051 L 75.592,76.506 76.51,77.575 52.406,99.826 z m 3.551,3.856 c -0.333,0.299 -0.803,0.311 -1.071,0.021 -0.27,-0.293 -0.222,-0.764 0.112,-1.061 l 23.99,-22.139 0.915,1.072 -23.946,22.107 z M 92.281,70.16 89.039,73.144 88.123,72.058 91.319,69.12 c 0.33,-0.3 0.806,-0.3 1.065,-0.019 0.274,0.294 0.207,0.759 -0.103,1.059 z"
   id="path3067"
   inkscape:connector-curvature="0"
   style="fill:url(#SVGID_1_)" />
	<path
   d="M 52.226,98.072 C 52.091,96.476 51.96,94.869 51.848,93.222 L 51.761,93.3 c -0.228,1.832 -0.358,3.713 -0.407,5.6 0.025,-0.021 0.048,-0.057 0.068,-0.094 l 0.804,-0.734 z M 49.967,65.246 c -0.086,-1.453 -0.173,-2.9 -0.266,-4.375 -0.087,-1.787 -0.198,-3.554 -0.267,-5.205 l -0.673,-0.078 c 0,0.167 -0.019,0.337 -0.039,0.503 -0.247,3.237 0.2,6.065 0.645,8.958 0.204,0.063 0.403,0.131 0.6,0.197 z M 39.561,55.043 c 0.333,0.849 0.785,1.752 1.454,2.97 0.023,-2.783 0,-5.595 0.043,-8.398 l -1.115,-1.386 c -0.315,2.279 -0.402,4.546 -0.382,6.814 z m 8.154,0.599 c 0,-0.055 0,-0.11 0.025,-0.179 l -0.181,-0.021 c 0.198,1.249 0.402,2.425 0.514,3.439 10e-4,0.002 -0.111,-1.171 -0.358,-3.239 z m 12.598,36.995 c 0,-0.049 0,-0.078 0,-0.111 l -0.309,0.316 c -0.025,0.25 -0.049,0.512 -0.068,0.764 -0.092,1.131 -0.271,2.27 -0.63,3.479 -0.397,0.76 -0.713,1.598 -0.935,2.471 l 1.182,-1.1 c 0.247,-0.98 0.469,-1.977 0.63,-3.025 0.038,-0.939 0.106,-1.868 0.13,-2.794 z m -3.44,8.275 c 0.043,-0.146 0.069,-0.301 0.112,-0.455 -0.18,0.311 -0.359,0.576 -0.538,0.844 l 0.426,-0.389 z m 4.555,-8.154 c -0.02,1.129 -0.044,2.242 -0.267,3.354 -0.155,0.412 -0.291,0.822 -0.421,1.252 l 1.695,-1.574 c 0.02,-0.049 0.044,-0.1 0.069,-0.146 0.043,-1.174 0.086,-2.346 0.13,-3.52 0,-0.59 0.025,-1.174 0.025,-1.764 l -1.231,1.133 c 0,0.425 0,0.841 0,1.265 z m 15.907,-8.799 -0.338,0.313 c 0.092,0.885 0.229,1.766 0.355,2.646 0.092,0.645 0.182,1.299 0.271,1.941 l 0.24,-0.23 C 77.8,88.074 77.732,87.525 77.666,86.99 77.56,85.975 77.423,84.971 77.335,83.959 z m 1.45,-1.33 -0.27,0.234 c 0.11,1.463 0.358,3.047 0.647,4.574 l 0.533,-0.506 C 79.382,85.628 79.068,84.345 78.828,83.076 78.81,82.92 78.785,82.773 78.785,82.629 z M 60.183,99.787 c -0.271,1.764 -0.296,3.537 -0.136,5.301 l 1.139,-1.061 c -0.111,-1.855 -0.068,-3.689 0.334,-5.475 l -1.337,1.235 z M 47.695,64.378 c 0.218,-1.493 0.442,-2.982 0.669,-4.479 -0.538,1.365 -1.007,2.724 -1.429,4.099 0.242,0.136 0.513,0.262 0.76,0.38 z M 77.447,40.221 c -0.604,-1.642 -1.367,-3.941 -1.744,-6.434 -0.131,-0.146 -0.268,-0.279 -0.401,-0.412 -0.021,0.424 -0.045,0.85 -0.045,1.271 0.694,2.066 0.694,4.969 2.553,6.814 -0.003,10e-4 -0.141,-0.425 -0.363,-1.239 z m -35.338,13.3 c 0.18,2.523 0.489,4.959 0.825,7.291 0.228,0.259 0.449,0.506 0.673,0.737 0,-0.11 0,-0.219 0,-0.335 0.043,-2.746 0.11,-5.627 0.154,-8.251 l -1.25,-1.553 c -0.155,0.75 -0.268,1.453 -0.402,2.111 z m 25.395,19.667 c 0.044,0.529 0.068,1.054 0.092,1.601 0,0 0,-0.623 0,-1.666 l -0.092,0.065 z m -7.321,-7.942 c 0.019,0.161 0.019,0.311 0.038,0.471 0.271,-0.043 0.519,-0.112 0.785,-0.17 0,-0.436 0,-0.88 0,-1.303 0,-2.02 -0.043,-3.998 -0.092,-5.931 -0.043,-1.161 -0.111,-2.356 -0.174,-3.496 0.111,0.86 0.198,1.708 0.334,2.567 -0.024,1.899 0.13,3.643 0.334,5.295 0,0.915 0.02,1.841 0.02,2.771 0.382,-0.087 0.761,-0.179 1.139,-0.289 -0.087,-2.772 -0.243,-5.564 -0.446,-8.47 0.179,-1.396 0.203,-2.913 0.116,-4.625 l -2.951,2.683 c 0.068,1.563 0.181,3.218 0.311,4.813 0.16,1.936 0.339,3.824 0.586,5.684 z m 8.304,17.83 0,0 1.115,-1.018 c 0,-0.277 0,-0.605 0,-0.984 0,-1.391 0.023,-2.814 0.023,-4.255 l -0.693,0.639 c -0.066,1.845 -0.198,3.694 -0.445,5.618 z m 10.184,-2.277 c 0.052,-2.813 0.852,-5.287 1.295,-8.347 -1.047,2.67 -1.489,5.554 -1.518,8.544 l 0.223,-0.197 z M 69.273,47.804 c -0.426,-2.973 -1.052,-6.309 -1.453,-9.505 0.066,0.267 0.135,0.524 0.222,0.783 0,0 -0.155,-0.872 -0.446,-2.438 -0.023,-0.066 -0.023,-0.146 -0.048,-0.201 l 0.068,1.095 c 0.043,0.214 0.112,0.415 0.16,0.627 0.378,3.695 0.781,7.092 0.979,10.118 0.136,3.116 0.247,6.197 0.204,9.481 -0.224,3.741 -0.111,7.36 -0.025,10.912 l 0.693,0.823 c 0,-3.179 0,-6.308 0,-9.122 0,-1.159 0,-2.31 0,-3.494 0.29,-2.835 -10e-4,-5.952 -0.354,-9.079 z m -12.42,35.229 -1.699,1.564 c -0.093,1.291 -0.156,2.574 -0.223,3.859 l 1.627,-1.508 c 0.116,-1.307 0.204,-2.612 0.295,-3.915 z M 94.979,68.222 c -0.086,-1.018 -0.377,-2.016 -0.867,-2.95 -0.023,0.624 -0.066,1.25 -0.094,1.884 -0.065,2.036 -0.086,4.07 -0.108,6.087 0.58,-1.015 0.938,-2.123 1.052,-3.237 0.017,-0.601 0.017,-1.207 0.017,-1.784 z M 63.42,28.071 c 0,0 0,0 -0.025,0 0.044,0.188 0.087,0.378 0.136,0.558 0,0 -0.049,-0.214 -0.111,-0.558 z M 73.648,63.91 c 0,-2.024 0,-4.012 0,-5.943 0,0.066 0,0.135 -0.021,0.2 0,-1.138 0,-2.289 0,-3.439 0,-2.614 -0.066,-5.216 -0.16,-7.817 -0.268,-2.847 -0.469,-5.539 -0.778,-8.266 -0.828,-2.669 -1.474,-5.316 -1.99,-7.916 -0.219,-0.102 -0.465,-0.214 -0.688,-0.314 0.619,5.395 1.447,10.834 2.432,16.362 0.16,2.904 0.291,5.828 0.334,8.644 0.022,1.004 0.045,2.009 0.092,3.006 0.045,1.496 0.088,2.979 0.156,4.477 -0.111,1.095 -0.111,2.156 -0.044,3.183 -0.204,2.269 -0.315,4.569 -0.427,6.883 l 0.559,0.635 -0.578,0.537 c -0.064,1.77 -0.11,3.533 -0.135,5.313 l 1.25,-1.139 c 0,-0.949 0,-1.898 0,-2.834 0.108,-1.162 0.088,-2.277 0,-3.371 -0.002,-2.785 -0.002,-5.525 -0.002,-8.201 z M 48.829,96.008 c 0,0 -0.019,0 -0.019,0.012 0.112,3.334 0.377,6.684 0.65,10.021 0.291,0.197 0.601,0.379 0.915,0.533 -0.228,-3.871 -0.408,-7.736 -0.426,-11.592 l -1.12,1.026 z m 7.797,-39.516 -1.274,-0.155 c -0.018,2.076 0.135,4.123 0.296,6.053 0.112,1.206 0.224,2.457 0.31,3.711 0.403,0 0.781,0 1.164,-0.023 -0.048,-1.596 -0.111,-3.174 -0.204,-4.671 -0.089,-1.564 -0.201,-3.214 -0.292,-4.915 z m -0.087,46.662 -0.6,0.549 c -0.315,0.289 -0.81,0.303 -1.053,0.012 -0.27,-0.277 -0.222,-0.758 0.088,-1.049 l 0.495,-0.443 c 0.043,-1.832 0.13,-3.65 0.266,-5.467 l -1.163,1.086 c -0.068,3.191 -0.068,6.387 0.023,9.604 0.291,-0.021 0.578,-0.043 0.874,-0.086 -0.025,-0.703 -0.025,-1.406 -0.049,-2.104 0.067,0.277 0.16,0.568 0.271,0.896 0.043,0.383 0.112,0.75 0.181,1.129 0.285,-0.066 0.6,-0.154 0.915,-0.26 -0.229,-1.263 -0.34,-2.556 -0.248,-3.867 z M 122.501,35.56 c -0.088,-0.31 -0.268,-0.634 -0.516,-0.915 -0.334,0.783 -0.313,1.677 -0.225,2.57 0,0.103 0,0.192 0.021,0.279 l 0.357,-0.322 c 0.18,-0.169 0.291,-0.384 0.356,-0.605 0.007,-0.334 0.007,-0.669 0.007,-1.007 z m -19.992,53.481 c -0.736,5.629 -1.41,11.279 -1.92,16.953 l 0.625,0.713 c 0.422,-5.824 0.961,-11.648 1.475,-17.453 l -0.18,-0.213 z m -27.115,-3.283 -0.735,0.666 c 0.021,1.656 0.086,3.344 0.086,5.098 l 0.649,-0.604 c 0,-1.166 0,-2.32 0,-3.475 0,-0.574 0,-1.129 0,-1.685 z m 20.859,-4.07 c 0.023,0.137 0.023,0.27 0.023,0.402 0.088,6.246 0.021,12.486 -0.066,18.732 l 0.469,0.555 c 0.021,-6.313 0.047,-12.609 0.09,-18.988 0,-0.043 0,-0.078 0,-0.135 l -0.516,-0.566 z m -2.32,-2.758 c 0,0.691 0,1.336 0,1.773 0.625,6.229 0.982,12.512 1.16,18.801 l 0.227,0.279 C 95.251,93.258 95.159,86.719 95.029,80.215 L 93.933,78.93 z m 9.089,-24.134 c -0.137,-1.753 -0.153,-3.52 -0.022,-5.339 l -0.981,0.916 c -0.021,1.663 0.18,3.285 0.492,4.913 l 0.511,-0.49 z m -30.556,38.833 1.14,-1.061 c 0,-1.725 0,-3.449 0.022,-5.188 l -1.229,1.117 c 0.022,1.724 0.044,3.421 0.067,5.132 z m -6.164,5.539 c -0.024,0.066 -0.048,0.137 -0.048,0.193 l 0.469,-0.451 c 0.02,-0.111 0.02,-0.195 0.02,-0.314 0,-0.689 0,-1.357 0,-2.012 -0.131,0.971 -0.267,1.854 -0.441,2.584 z m 37.97,-8.053 c -0.559,5.629 -1.317,11.25 -1.985,16.854 0.181,0.199 0.379,0.377 0.558,0.561 0.735,-5.521 1.541,-11.061 2.08,-16.633 l -0.653,-0.782 z m 8.804,-50.936 c 0,0.744 0,1.493 0,2.221 0.106,0.983 0.155,1.965 0.198,2.948 l 0.472,-0.448 c -0.024,-1.797 0,-3.604 0.086,-5.438 l -0.756,0.717 z m -3.377,3.115 -0.735,0.655 c 0.204,0.595 0.444,1.164 0.735,1.733 0,-0.001 0,-0.874 0,-2.388 z m 1.945,3.559 0.291,-0.278 c 0,-1.81 0,-3.619 0.092,-5.43 l -0.764,0.682 c 0.224,1.688 0.334,3.362 0.381,5.026 z m -14.786,8.286 -0.182,0.146 c 0.021,0.349 0.045,0.672 0.068,0.982 -0.563,1.588 -0.717,3.275 -0.762,5.017 l 1.205,-1.104 c 0.021,-1.655 0.021,-3.34 0.021,-5.115 -0.131,0.288 -0.268,0.578 -0.354,0.87 0.004,-0.236 0.004,-0.505 0.004,-0.796 z m 8.063,-2.096 c 0,-0.335 0,-0.693 0,-1.093 0.313,-1.6 0.334,-2.562 0.334,-4.569 l -1.184,1.083 c -0.156,1.63 0.045,3.261 0.445,4.959 l 0.405,-0.38 z m -4.113,3.806 c -0.131,-1.854 0,-3.663 0.18,-5.527 l -0.936,0.859 c -0.043,1.71 0.064,3.418 0.248,5.125 l 0.508,-0.457 z m 5.563,36.737 c -0.576,5.301 -1.695,10.467 -2.634,15.568 0.179,0.102 0.334,0.178 0.49,0.256 0.823,-5.125 1.765,-10.164 2.592,-15.277 l -0.448,-0.547 z m 5.071,5.971 c -0.646,3.232 -1.205,6.48 -1.678,9.738 0.271,-0.129 0.517,-0.289 0.762,-0.479 0.402,-2.902 0.824,-5.834 1.316,-8.762 -0.086,-0.096 -0.152,-0.186 -0.221,-0.285 l -0.179,-0.212 z m 8.559,-65.58 c 0,0.145 0,0.29 0.02,0.434 -0.02,1.509 -0.063,3.019 -0.086,4.534 0,0.081 0,0.158 0.021,0.236 l 0.735,-0.669 c 0,-1.029 0,-2.057 0,-3.074 -0.045,-0.502 -0.069,-1.016 -0.112,-1.505 -0.201,-0.023 -0.4,-0.011 -0.578,0.044 z m -4.584,4.043 c 0.021,1.764 0.021,3.552 0.021,5.315 l 0.648,-0.604 c 0,-1.271 0.043,-2.546 0.137,-3.809 -0.023,-0.522 -0.051,-1.049 -0.094,-1.584 l -0.712,0.682 z m -65.425,51.328 -1.231,1.141 c -0.019,1.207 -0.019,2.438 0,3.652 l 1.163,-1.07 c 10e-4,-1.249 0.025,-2.491 0.068,-3.723 z m -3.149,14.158 v 0.01 l 0.693,0.762 c -0.088,-1.25 -0.2,-2.512 -0.311,-3.818 -0.158,0.983 -0.29,2.001 -0.382,3.046 z m 7.821,-37.454 c -0.025,-0.388 -0.048,-0.89 -0.092,-1.473 -0.538,-2.379 -0.804,-4.826 -0.915,-7.37 -0.02,-0.358 -0.044,-0.717 -0.044,-1.073 l -1.052,-0.111 c 0.048,0.378 0.092,0.749 0.159,1.129 0.267,2.521 0.757,4.946 1.518,7.291 0.087,0.514 0.179,1.065 0.291,1.607 0.042,0 0.087,0 0.135,0 z m -9.919,32.651 c 0,-0.539 0,-1.076 0.019,-1.607 -0.068,0.531 -0.068,1.068 -0.019,1.607 z m 7.636,1.145 c -0.311,0.291 -0.781,0.305 -1.046,0.023 -0.025,2.389 0.043,4.787 0.179,7.182 0.509,0.166 1.046,0.291 1.584,0.348 -0.18,-2.488 -0.446,-5.02 -0.693,-7.563 l -0.024,0.01 z m 5.52,2.955 c -0.044,1.27 0.091,2.5 0.311,3.604 0.16,-0.088 0.315,-0.182 0.494,-0.281 -0.179,-1.49 -0.224,-3.047 0,-4.711 0.044,-0.123 0.067,-0.244 0.112,-0.365 l -0.848,0.779 c -0.027,0.321 -0.069,0.642 -0.069,0.974 z M 71.104,48.866 c 0,0 0.021,-0.739 0.046,-2.089 -1.723,-5.819 -2.954,-11.605 -3.757,-17.391 -0.334,-0.11 -0.668,-0.234 -1.028,-0.355 0.267,2.088 0.606,4.143 1.009,6.198 l 0.106,0.122 0.048,0.659 c 0.892,4.378 2.075,8.678 3.576,12.856 z m 21.597,20.147 c 0,0 0.045,-1.662 0.183,-4.589 0.137,-1.609 0.246,-3.217 0.334,-4.84 0.022,-0.377 0.022,-0.746 0.022,-1.115 l -0.692,0.639 c 0.021,1.518 0.067,3.038 0.088,4.541 0.022,1.802 0.047,3.585 0.065,5.364 z M 67.261,35.085 c -0.451,-2.01 -0.897,-4.09 -1.317,-6.188 -0.228,-0.079 -0.47,-0.169 -0.736,-0.259 0.509,1.999 1.027,3.976 1.584,5.918 l 0.469,0.529 z m 17.422,26.139 c 0,-0.533 0.023,-1.064 0.049,-1.604 -0.358,0.045 -0.719,0.101 -1.075,0.179 0,0.013 0,0.013 0,0.021 0,0.717 0,1.436 -0.021,2.141 l 0.578,-0.521 c 0.133,-0.121 0.289,-0.183 0.469,-0.216 z M 77.738,37.037 c 0.131,1.138 0.4,2.088 0.778,2.982 -0.153,-1.039 -0.399,-2.045 -0.778,-2.982 z M 63.215,97.143 c -0.469,2.262 -1.001,4.125 -1.046,5.979 l 1.381,-1.271 c 0.067,-1.959 0.382,-3.887 1.163,-5.768 0,-0.164 0.024,-0.334 0.024,-0.504 l -1.473,1.352 c -0.024,0.083 -0.024,0.153 -0.049,0.212 z m 31.027,-34.251 1.144,-1.053 c 0.063,-1.797 0.092,-3.57 0.112,-5.448 l -0.539,0.493 c -0.313,1.762 -0.558,3.672 -0.717,6.008 z m 6.299,23.846 c 0,0.246 0,0.488 0,0.732 -0.401,5.551 -0.91,11.193 -1.336,16.891 l 0.246,0.291 c 0.444,-5.83 1.004,-11.613 1.604,-17.314 l -0.514,-0.6 z m -7.926,-9.353 -0.427,-0.496 c -0.021,0.838 -0.043,1.676 -0.112,2.402 0.291,5.932 0.582,11.813 0.873,17.678 l 0.601,0.729 C 93.312,91.61 92.992,85.536 92.615,79.46 c 0,-0.696 0,-1.393 0,-2.075 z m 5.808,6.853 c 0.045,6.238 -0.246,12.396 -0.537,18.555 l 0.402,0.477 c 0.514,-6.164 0.916,-12.326 0.514,-18.6 l -0.379,-0.432 z m 9.869,11.623 c -0.668,4.699 -1.764,9.373 -2.746,13.992 0.139,0.033 0.248,0.061 0.4,0.078 0.873,-4.52 1.926,-9.029 2.682,-13.67 l -0.336,-0.4 z m 0.875,1.018 c -0.676,4.381 -1.23,8.742 -1.635,13.105 0.34,-0.053 0.691,-0.117 1.025,-0.205 0.445,-3.92 1.01,-7.854 1.547,-11.783 l -0.937,-1.117 z M 85.153,82.098 c 0.847,1.225 1.496,2.873 1.966,4.904 0.226,1.271 0.444,2.568 0.646,3.865 l 0.582,0.688 C 88.062,89.975 87.765,88.409 87.453,86.856 86.785,84.883 86,83.322 85.153,82.098 z m -2.302,-0.957 c 0.428,1.451 1.01,3.336 1.496,5.191 0.07,0.244 0.137,0.506 0.205,0.738 l 0.736,0.869 c -0.184,-0.734 -0.359,-1.473 -0.537,-2.197 -0.626,-1.719 -1.343,-3.396 -1.9,-4.601 z m 7.462,-3.868 c -0.85,3.389 -0.311,7.16 0.31,11.213 0.272,2.217 0.521,4.416 0.742,6.631 l 0.153,0.174 C 91.141,91.164 90.801,87.029 90.58,82.895 90.423,80.842 90.313,78.967 90.313,77.273 z M 70.189,90.549 c 0.044,1.709 0.062,3.404 0.062,5.104 l 1.12,-1.02 c 0,-1.717 0,-3.438 0,-5.172 l -1.182,1.088 z m -1.702,6.756 0.494,-0.459 c -0.115,-0.705 -0.271,-1.422 -0.494,-2.178 0,0.873 0,1.758 0,2.637 z m 8.8,-19.961 c 0.229,-1.492 0.383,-2.802 0.383,-3.931 -0.108,0.906 -0.203,1.81 -0.442,2.916 -0.538,2.002 -0.56,4.075 -0.402,6.188 l 0.354,-0.338 c -0.091,-1.583 -0.091,-3.18 0.107,-4.835 z m -8.305,-1.864 0.645,-0.579 c 0,-1.226 0,-2.437 0,-3.664 l -0.645,0.592 c 0.019,1.218 0.019,2.433 0,3.651 z M 67.33,59.764 c 0.285,-3.798 -0.181,-7.918 -0.606,-11.357 -0.023,-0.124 -0.043,-0.258 -0.069,-0.381 l -1.162,1.071 c 0.247,2.839 0.674,6.232 0.65,9.158 0.271,2.626 0.601,5.364 0.847,8.019 0.024,0.047 0.024,0.092 0.024,0.146 l 0.402,0.483 C 67.33,64.646 67.33,61.952 67.33,59.764 z m -9.119,6.221 c 0.18,-0.011 0.358,-0.021 0.538,-0.044 -0.088,-1.673 -0.223,-3.372 -0.378,-4.958 -0.068,-1.752 -0.137,-3.439 -0.247,-5.182 l -0.65,0.578 c 0.092,1.42 0.228,2.783 0.427,4.178 0.091,1.875 0.203,3.664 0.31,5.428 z m 2.727,-37.891 c -0.043,-0.27 -0.067,-0.538 -0.087,-0.817 -0.247,-0.067 -0.45,-0.135 -0.693,-0.2 0,0.065 0.025,0.121 0.025,0.188 l 0.755,0.829 z m 10.408,45.209 c 0,-1.584 0,-3.161 0,-4.71 -0.355,1.816 -0.601,3.626 -0.803,5.447 l 0.803,-0.737 z m -8.551,4.246 -1.299,1.194 c 0,1.218 0,2.435 0,3.646 l 1.299,-1.188 c 0,-1.224 0,-2.437 0,-3.652 z m 1.603,-24.105 c -0.155,-0.983 -0.286,-1.978 -0.421,-2.97 l -0.383,0.346 c 0.338,1.965 0.649,3.908 0.984,5.864 0,-10e-4 -0.069,-1.151 -0.18,-3.24 z m -8.51,41.244 c 0.161,-1.891 0.334,-3.771 0.494,-5.658 l -1.565,1.447 c -0.086,1.801 -0.154,3.604 -0.202,5.402 l 1.273,-1.191 z m 14.253,-13.12 1.205,-1.146 c 0,-1.738 0,-3.479 0,-5.203 l -0.979,0.905 c -0.134,1.812 -0.203,3.622 -0.226,5.444 z m -7.372,1.561 -1.273,1.182 c -0.024,1.762 -0.024,3.5 -0.044,5.254 l 1.25,-1.15 c 0.025,-1.772 0.067,-3.52 0.067,-5.286 z m 1.028,4.279 1.43,-1.33 c 0.067,-1.752 0.067,-3.506 0.067,-5.256 l -1.362,1.238 c -0.043,1.786 -0.092,3.559 -0.135,5.348 z m 0.18,-7.306 1.294,-1.182 c -0.044,-1.162 -0.087,-2.336 -0.155,-3.511 l -1.071,0.979 C 64.02,77.635 64,78.864 63.977,80.102 z m -3.596,10.453 c 0.019,-1.205 0.043,-2.396 0.043,-3.621 -0.068,1.26 -0.18,2.541 -0.268,3.82 l 0.225,-0.199 z m 24.171,-20.96 c 0.02,-2.157 0.043,-4.279 0.063,-6.59 0,-0.01 0,-0.024 0,-0.033 l -1.005,0.931 c 0,0.196 0,0.411 0,0.61 -0.245,1.675 -0.289,3.227 -0.225,4.737 0.021,0.747 0.09,1.492 0.156,2.246 -0.693,2.896 -1.852,4.82 -1.162,7.395 0,0 0.049,-0.782 0.229,-2.152 0.8,-2.346 1.386,-3.318 1.81,-4.93 0.085,-0.752 0.108,-1.487 0.134,-2.214 z m 3.39,-2.56 c 0.023,0.685 0,1.363 -0.02,2.07 -0.023,0.697 -0.066,1.417 -0.16,2.133 -0.154,0.607 -0.379,1.396 -0.379,1.941 -0.154,0.471 0.023,0.76 0.961,0.58 0,0 0.092,-0.438 0.18,-1.195 l -0.401,-0.479 0.472,-0.443 c 0,-0.717 0,-1.375 0,-1.979 0,-1.186 0.022,-2.214 0.022,-3.25 l -0.675,0.622 z m 0.069,-6.179 c -0.045,1.378 -0.088,2.738 -0.131,4.11 0,0.092 0,0.175 0,0.252 0.242,-0.16 0.533,-0.184 0.777,-0.058 0,-0.417 0,-0.825 0.021,-1.26 0.114,-1.222 0.204,-2.43 0.297,-3.636 -0.297,-0.131 -0.605,-0.241 -0.918,-0.344 -0.022,0.318 -0.022,0.629 -0.046,0.936 z m 4.604,13.172 c 0,-1.063 0,-2.123 0,-3.197 v -3.213 c -0.05,0.581 -0.067,1.157 -0.113,1.738 0.063,0.16 0.046,0.325 -0.021,0.494 -0.022,0.325 -0.043,0.662 -0.067,0.979 -0.043,1.076 -0.108,2.14 -0.131,3.199 -0.023,0.442 -0.023,0.897 -0.043,1.354 0.131,-0.123 0.241,-0.261 0.377,-0.396 l -0.002,-0.958 0,0 z M 81.242,85.52 81.824,84.971 c -0.425,-1.049 -0.869,-2.01 -1.271,-2.873 0.175,1.131 0.423,2.271 0.689,3.422 z m -9.896,-3.174 -1.226,1.15 c -0.023,1.723 0.021,3.438 0.044,5.162 l 1.207,-1.107 C 71.346,85.822 71.346,84.08 71.346,82.346 z m -7.752,11.472 c -0.02,0.313 -0.02,0.629 -0.044,0.938 l 1.318,-1.207 c 0,-0.18 0.023,-0.346 0.023,-0.514 0.112,-1.662 0.18,-3.318 0.247,-4.957 l -1.409,1.309 c -0.043,1.474 -0.087,2.959 -0.135,4.431 z M 72.4,86.6 73.629,85.463 c 0,-1.756 0.021,-3.486 0.021,-5.225 l -1.248,1.154 C 72.375,83.129 72.375,84.865 72.4,86.6 z m 2.969,-6.426 c -0.429,1.424 -0.603,2.859 -0.67,4.307 l 0.692,-0.633 c -0.022,-1.219 -0.022,-2.452 -0.022,-3.674 z"
   id="path3069"
   inkscape:connector-curvature="0"
   style="fill:#190c03" />
	<path
   d="m 18.692,112.506 v 3.967 H 33.11 v 4.787 H 18.692 v 3.898 h -3.993 v -12.652 h 3.993 l 0,0 z"
   id="path3071"
   inkscape:connector-curvature="0"
   style="fill:#190c03" />
	<path
   d="m 20.593,87.283 12.518,6.557 v 2.953 l -6.864,3.131 6.864,2.992 v 2.979 l -12.518,6.436 v -4.938 l 6.598,-2.992 -6.598,-3.146 V 98.48 l 6.785,-3.131 -6.785,-3.143 v -4.923 z"
   id="path3073"
   inkscape:connector-curvature="0"
   style="fill:#190c03" />
	<path
   d="m 27.675,72.485 v 9.294 c 1.879,0 2.817,-0.902 2.817,-2.709 0,-0.926 -0.396,-1.628 -1.185,-2.12 v -4.289 c 1.127,0.343 2.004,0.849 2.619,1.513 1.123,1.205 1.683,2.817 1.683,4.844 0,2.57 -0.783,4.504 -2.349,5.803 -1.168,0.971 -2.592,1.455 -4.274,1.455 -1.996,0 -3.618,-0.605 -4.868,-1.818 -1.25,-1.217 -1.874,-2.932 -1.874,-5.143 0,-2.729 0.99,-4.672 2.972,-5.842 1.119,-0.656 2.414,-0.981 3.894,-0.981 h 0.565 v -0.007 z m -2.523,4.142 c -1.411,0.313 -2.118,1.149 -2.118,2.51 0,0.752 0.227,1.359 0.676,1.824 0.356,0.367 0.84,0.6 1.442,0.699 v -5.033 z"
   id="path3075"
   inkscape:connector-curvature="0"
   style="fill:#190c03" />
	<path
   d="m 33.11,55.852 v 4.438 h -1.389 c 0.531,0.424 0.916,0.852 1.158,1.279 0.424,0.756 0.637,1.611 0.637,2.572 0,1.557 -0.536,2.938 -1.604,4.152 -1.274,1.442 -2.966,2.167 -5.067,2.167 -2.137,0 -3.846,-0.741 -5.117,-2.222 -1.016,-1.18 -1.525,-2.529 -1.525,-4.059 0,-0.889 0.186,-1.723 0.555,-2.506 0.215,-0.445 0.569,-0.91 1.064,-1.387 h -1.229 v -4.438 h 12.518 l -10e-4,0.004 0,0 z m -6.256,4.304 c -0.787,0 -1.458,0.277 -2.005,0.834 -0.555,0.555 -0.828,1.225 -0.828,2.012 0,0.879 0.332,1.598 0.992,2.164 0.537,0.453 1.151,0.684 1.841,0.684 0.687,0 1.304,-0.23 1.837,-0.684 0.662,-0.557 0.994,-1.275 0.994,-2.164 0,-0.795 -0.274,-1.471 -0.817,-2.018 -0.548,-0.555 -1.217,-0.828 -2.014,-0.828 z"
   id="path3077"
   inkscape:connector-curvature="0"
   style="fill:#190c03" />
	<path
   d="m 33.11,37.318 v 6.207 l -5.098,4.869 h 5.098 v 4.438 H 12.852 v -4.438 h 12.247 l -4.506,-4.627 v -6.068 l 5.774,6.273 6.743,-6.654 z"
   id="path3079"
   inkscape:connector-curvature="0"
   style="fill:#190c03" />
	<path
   d="m 27.02,22.602 c 3.114,0 5.146,1.367 6.091,4.104 0.335,0.951 0.5,1.977 0.5,3.076 0,2.299 -0.696,4.436 -2.091,6.404 l -3.856,-2.051 c 1.305,-1.439 1.955,-2.85 1.955,-4.23 0,-0.619 -0.145,-1.146 -0.436,-1.58 -0.329,-0.506 -0.793,-0.758 -1.391,-0.758 -0.543,0 -0.996,0.277 -1.361,0.838 -0.275,0.416 -0.553,1.113 -0.832,2.096 -0.351,1.188 -0.596,1.936 -0.729,2.244 -0.207,0.482 -0.45,0.896 -0.728,1.242 -0.809,0.98 -2.029,1.473 -3.664,1.473 -1.706,0 -3.121,-0.51 -4.243,-1.523 -1.318,-1.188 -1.98,-2.771 -1.98,-4.748 0,-1.988 0.5,-3.934 1.498,-5.842 l 3.724,1.916 c -0.819,1.043 -1.229,2.098 -1.229,3.164 0,0.514 0.133,0.975 0.393,1.377 0.3,0.461 0.698,0.693 1.191,0.693 0.49,0 0.908,-0.303 1.259,-0.904 0.166,-0.271 0.445,-1.082 0.842,-2.432 0.492,-1.697 1.195,-2.9 2.105,-3.629 0.772,-0.62 1.766,-0.93 2.982,-0.93 z"
   id="path3081"
   inkscape:connector-curvature="0"
   style="fill:#190c03" />
	<path
   d="m 19.9,110.875 v 3.967 h 14.418 v 4.787 H 19.9 v 3.898 H 15.907 V 110.875 H 19.9 l 0,0 z"
   id="path3083"
   inkscape:connector-curvature="0"
   style="fill:#f0d9a8" />
	<path
   d="m 21.8,85.652 12.518,6.555 v 2.955 l -6.864,3.129 6.864,2.994 v 2.979 L 21.8,110.699 v -4.938 L 28.398,102.767 21.8,99.621 V 96.848 L 28.585,93.717 21.8,90.572 v -4.92 z"
   id="path3085"
   inkscape:connector-curvature="0"
   style="fill:#f0d9a8" />
	<path
   d="m 28.882,70.852 v 9.293 c 1.879,0 2.817,-0.898 2.817,-2.709 0,-0.922 -0.396,-1.627 -1.185,-2.116 v -4.291 c 1.127,0.342 2.004,0.849 2.619,1.512 1.123,1.207 1.683,2.82 1.683,4.847 0,2.57 -0.783,4.504 -2.349,5.801 -1.168,0.973 -2.592,1.457 -4.274,1.457 -1.996,0 -3.618,-0.605 -4.868,-1.818 -1.25,-1.219 -1.874,-2.932 -1.874,-5.143 0,-2.729 0.99,-4.672 2.972,-5.842 1.119,-0.656 2.414,-0.981 3.894,-0.981 h 0.565 v -0.01 z m -2.522,4.143 c -1.411,0.313 -2.118,1.147 -2.118,2.511 0,0.752 0.227,1.358 0.676,1.824 0.356,0.367 0.84,0.6 1.442,0.699 v -5.034 z"
   id="path3087"
   inkscape:connector-curvature="0"
   style="fill:#f0d9a8" />
	<path
   d="m 34.318,54.221 v 4.438 h -1.389 c 0.531,0.424 0.916,0.852 1.158,1.279 0.424,0.756 0.637,1.611 0.637,2.572 0,1.555 -0.536,2.936 -1.604,4.15 -1.274,1.443 -2.966,2.169 -5.067,2.169 -2.137,0 -3.846,-0.741 -5.117,-2.222 -1.016,-1.18 -1.525,-2.531 -1.525,-4.059 0,-0.891 0.186,-1.725 0.555,-2.508 0.215,-0.443 0.569,-0.908 1.064,-1.385 h -1.229 v -4.438 h 12.518 l -0.001,0.004 0,0 z m -6.257,4.3 c -0.787,0 -1.458,0.279 -2.005,0.834 -0.555,0.555 -0.828,1.227 -0.828,2.014 0,0.877 0.332,1.598 0.992,2.164 0.537,0.451 1.151,0.684 1.841,0.684 0.687,0 1.304,-0.23 1.837,-0.684 0.662,-0.557 0.994,-1.275 0.994,-2.164 0,-0.795 -0.274,-1.471 -0.817,-2.018 -0.547,-0.553 -1.217,-0.83 -2.014,-0.83 z"
   id="path3089"
   inkscape:connector-curvature="0"
   style="fill:#f0d9a8" />
	<path
   d="m 34.318,35.685 v 6.207 l -5.098,4.869 h 5.098 v 4.438 H 14.059 V 46.761 H 26.306 L 21.8,42.134 v -6.07 l 5.774,6.275 6.744,-6.654 z"
   id="path3091"
   inkscape:connector-curvature="0"
   style="fill:#f0d9a8" />
	<path
   d="m 28.227,20.971 c 3.114,0 5.146,1.367 6.091,4.102 0.335,0.951 0.5,1.979 0.5,3.076 0,2.301 -0.696,4.438 -2.091,6.406 l -3.856,-2.053 c 1.305,-1.438 1.955,-2.85 1.955,-4.229 0,-0.621 -0.145,-1.148 -0.436,-1.582 -0.329,-0.504 -0.793,-0.756 -1.391,-0.756 -0.543,0 -0.996,0.277 -1.361,0.838 -0.275,0.414 -0.553,1.113 -0.832,2.096 -0.351,1.188 -0.596,1.936 -0.729,2.242 -0.207,0.484 -0.45,0.898 -0.728,1.244 -0.809,0.98 -2.029,1.473 -3.664,1.473 -1.706,0 -3.121,-0.51 -4.243,-1.523 -1.318,-1.189 -1.98,-2.771 -1.98,-4.748 0,-1.988 0.5,-3.936 1.498,-5.842 l 3.723,1.916 c -0.818,1.043 -1.229,2.098 -1.229,3.164 0,0.514 0.133,0.975 0.393,1.377 0.3,0.461 0.699,0.691 1.191,0.691 0.49,0 0.908,-0.301 1.259,-0.904 0.166,-0.271 0.445,-1.08 0.842,-2.432 0.492,-1.697 1.195,-2.9 2.105,-3.627 0.773,-0.618 1.767,-0.929 2.983,-0.929 z"
   id="path3093"
   inkscape:connector-curvature="0"
   style="fill:#f0d9a8" />
<text
   xml:space="preserve"
   style="font-size:40px;font-style:normal;font-weight:normal;line-height:125%;letter-spacing:0px;word-spacing:0px;fill:#f0d9a8;fill-opacity:1;stroke:none;font-family:Sans"
   x="162.13057"
   y="57.731956"
   id="text3101"
   sodipodi:linespacing="125%"><tspan
     sodipodi:role="line"
     x="162.13057"
     y="57.731956"
     id="tspan3105"
     style="font-style:normal;font-variant:normal;font-weight:normal;font-stretch:normal;fill:#f0d9a8;fill-opacity:1;font-family:Plantagenet Cherokee;-inkscape-font-specification:Plantagenet Cherokee">Tweak</tspan></text>
<text
   xml:space="preserve"
   style="font-size:40px;font-style:normal;font-weight:normal;line-height:125%;letter-spacing:0px;word-spacing:0px;fill:#f0d9a8;fill-opacity:1;stroke:none;font-family:Sans"
   x="122.1993"
   y="95.257736"
   id="text3109"
   sodipodi:linespacing="125%"><tspan
     sodipodi:role="line"
     id="tspan3111"
     x="122.1993"
     y="95.257736"
     style="font-size:28px;font-style:normal;font-variant:normal;font-weight:normal;font-stretch:normal;fill:#f0d9a8;fill-opacity:1;font-family:Plantagenet Cherokee;-inkscape-font-specification:Plantagenet Cherokee">your Smartphone</tspan></text>
</g>
</svg>