<?xml version="1.0" encoding="utf-8"?>
<!-- Generator: Adobe Illustrator 15.0.0, SVG Export Plug-In . SVG Version: 6.00 Build 0)  -->
<!DOCTYPE svg PUBLIC "-//W3C//DTD SVG 1.1//EN" "http://www.w3.org/Graphics/SVG/1.1/DTD/svg11.dtd">
<svg version="1.1" id="Layer_1" xmlns="http://www.w3.org/2000/svg" xmlns:xlink="http://www.w3.org/1999/xlink" x="0px" y="0px"
	 width="140px" height="140px" viewBox="0 0 140 140" enable-background="new 0 0 140 140" xml:space="preserve">
<g>
	<path fill="#F0D9A8" d="M23.233,8.554c-6.26,0-13.653,6.007-13.653,12.267l2.317,95.405c0,6.264,5.076,11.35,11.336,11.35
		l95.305,3.455c6.268,0,12.379-8.541,12.379-14.805V19.904c0-6.261-5.102-11.35-11.361-11.35H23.233z"/>
	<path fill="#BC9B6E" d="M126.419,123.131c0,4.451-3.645,8.053-8.139,8.053H17.498c-4.5,0-8.139-3.602-8.139-8.053V21.368
		c0-4.448,3.639-8.054,8.139-8.054h100.785c4.493,0,8.14,3.605,8.14,8.054v101.763H126.419z"/>
	<path fill="#7F5434" d="M14.655,22.27c0.347,11.56-0.832,23.383-1.721,34.916c-0.21,2.729-0.984,5.814-0.538,8.506
		c0.458,2.765,0.839,5.542,1.119,8.331c0.271,2.703,0.448,5.414,0.509,8.131c0.066,2.979,0.676,5.42,1.135,8.314
		c-0.006-0.85-0.224-1.643-0.428-2.461c-0.43-1.721-0.139-2.971,0.043-4.721c0.346-3.324,0.211-6.672-0.051-9.996
		c-0.523-6.645-1.46-13.353,0.026-19.948c0-2.971-0.28-6.016-0.09-8.971c0.187-2.908,0.949-5.883,0.562-8.802
		c-0.432-3.257,0.094-6.807-0.093-10.13c-0.2-3.54-0.517-7.078-0.474-10.626C13.967,15.116,14.627,21.331,14.655,22.27
		C14.771,26.127,14.582,19.844,14.655,22.27z M16.732,36.968c-0.11,5.872-0.186,11.961-1.069,17.776
		c-0.396,2.611-1.685,4.542-1.417,7.354c0.277,2.917,1.393,5.69,2.56,8.35c-0.818-3.903-1.506-7.694-1.045-11.701
		c0.224-1.945,0.903-3.739,1.019-5.686c0.148-2.498,0.291-4.995,0.392-7.495c0.103-2.534,0.201-5.07,0.261-7.606
		c0.065-2.747,0.948-5.404,0.934-8.21c-0.029-5.363-1.326-10.634-1.274-16.001c-1.898,0.597-0.394,8.833-0.234,10.781
		C17.196,28.669,17.427,32.851,16.732,36.968C16.711,38.079,18.032,29.267,16.732,36.968z M9.82,42.08
		c-0.705-6.526,1.762-12.791,1.762-19.278C11.391,23.659,7.556,48.92,9.768,48.92C9.768,46.639,9.777,44.36,9.82,42.08
		C9.091,35.337,9.747,45.971,9.82,42.08z M11.509,65.454c-0.188-2.817,0.146-5.442,0.483-8.235
		c0.545-4.523,0.788-9.077,0.915-13.629c0.26-9.283-0.007-18.592,0.438-27.869c-1.089,0.848-0.531,4.162-0.531,5.511
		c0.174,1.945,0.239,3.899,0.232,5.853c-0.016,4.37-0.387,8.729-0.793,13.077C11.469,48.546,10.467,57.045,11.509,65.454
		C11.509,65.454,9.721,51.022,11.509,65.454z M18.787,37.704c-0.453,6.078-0.229,12.298-1.264,18.322
		c-0.591,3.443-1.277,6.473-0.907,10.012c0.325,3.11,1.123,6.134,1.83,9.171c0.095-3.748-0.266-7.358-0.502-11.095
		c-0.283-4.479,0.562-9.051,0.771-13.54c0.138-4.528,0.209-9.249,0.87-13.731c1.194-5.058,0.428-10.174-0.341-15.229
		C19.589,26.986,19.846,32.389,18.787,37.704C18.713,38.694,19.899,32.12,18.787,37.704z M19.242,21.618
		c-0.196-2.735-0.362-5.474-0.382-8.217C17.662,13.603,19.043,20.379,19.242,21.618C19.048,18.912,18.808,18.911,19.242,21.618z
		 M21.419,35.744c-1.284,8.933-0.565,18.084-1.206,27.046c0.755-8.158,1.096-16.391,1.718-24.579
		c0.372-4.891,1.277-9.197,0.586-14.164c-0.315-2.262-0.771-4.501-1.231-6.737c-0.188-0.914-0.233-3.905-0.979-3.996
		C20.287,20.801,22.461,28.253,21.419,35.744C21.252,36.906,22.436,28.434,21.419,35.744z M23.837,36.06
		c-0.415,2.893-0.199,5.927-0.4,8.847c-0.221,3.198-0.539,6.387-0.824,9.58c-0.485,5.429-0.935,10.964-0.417,16.407
		c-0.103-2.103-0.026-4.186-0.026-6.286c0.854,1.423,0.369,3.453,0.409,5.019c0.625-4.708,0.86-9.198,0.966-13.985
		c0.116-5.202,0.344-10.396,0.654-15.589c0.29-4.845,1.009-9.458,0.6-14.339c-0.214-2.559-0.552-5.104-0.791-7.661
		c-0.117-1.245,0.488-5.234-1.311-4.734C23.031,20.9,24.91,28.455,23.837,36.06C23.695,37.051,24.922,28.364,23.837,36.06z
		 M22.578,77.903c0.047-0.716,0.032-0.548-0.047,0.504C22.547,78.239,22.562,78.071,22.578,77.903
		C22.578,77.758,22.552,78.081,22.578,77.903z M26.495,34.587c-0.288,7.107-0.718,14.095-1.456,21.178
		c-0.738,7.088-0.914,13.948-0.914,21.038c0.083-2.625-0.138-5.451,0.535-8.012c0,2.077,0.41,4.126,0.41,6.198
		c0.682-4.914,0.645-10.286,0.751-15.267c0.124-5.767,0.4-11.53,0.755-17.288c0.332-5.376,0.765-10.761,0.675-16.152
		c-0.044-2.662-0.179-5.321-0.318-7.979c-0.064-1.232,0.561-5.484-1.255-4.986C26.19,20.402,27.025,27.475,26.495,34.587
		C26.449,35.722,27.051,27.118,26.495,34.587z M24.828,83.484c-0.41-1.992-0.677-4.021-0.704-6.116
		C24.104,79.342,23.737,81.629,24.828,83.484z M33.192,21.256c-0.27,14.444-0.242,28.95-2.397,43.265
		c2.962-0.226,1.999-9.886,2.112-11.928c0.308-5.528,0.878-11.04,1.086-16.572c0.217-5.78,0.309-11.569,0.309-17.353
		c0-1.427-0.017-2.854-0.023-4.281c0,0.065-0.129-2.088-0.968-1.073C33.312,15.959,33.227,18.61,33.192,21.256
		C33.124,24.919,33.216,19.431,33.192,21.256z M35.68,19.214c0,11.051-0.475,22.05-0.796,33.093
		c-0.151,5.196-0.116,10.139-1.25,15.226c-0.577,2.586,0.427,5.027,0.94,7.563c0.605,2.988,1.253,6.166,1.253,9.229
		c0.801-3.162-0.29-6.076-0.838-9.204c-0.591-3.371-0.927-6.867-0.172-10.241c0.687-3.066,0.437-6.268,0.515-9.401
		c0.09-3.581,0.252-7.159,0.498-10.732c0.471-6.846,0.852-13.621,0.93-20.489c0.038-3.287,0.032-6.57-0.044-9.856
		c-0.033-1.436-0.885-1.568-0.893-0.094C35.817,15.942,35.782,17.58,35.68,19.214C35.68,21.173,35.802,17.255,35.68,19.214z
		 M36.405,89.646c0.52-2.352,0.072-4.836,0.052-7.215C36.457,84.838,36.405,87.242,36.405,89.646
		C36.866,87.559,36.405,87.91,36.405,89.646z M28.383,32.35c-0.528,7.228-0.986,14.514-1.205,21.761
		c-0.104,3.47-0.431,6.742-0.775,10.183c-0.354,3.535,0.125,6.801,0.628,10.277c-0.404-6.781-0.066-13.25,0.596-20.028
		c0.711-7.279,1.729-14.493,1.886-21.817c0.067-3.154,0.199-6.307,0.275-9.46c0.081-3.343-0.485-6.641-0.485-9.948
		c-1.297-0.801-0.884,1.632-0.887,2.13c-0.01,1.765-0.017,3.529-0.022,5.294C28.383,24.611,28.383,28.481,28.383,32.35
		C28.309,33.365,28.383,25.993,28.383,32.35z M31.115,26.174c0,4.679,0.214,9.48-0.144,14.14c-0.381,4.964-1.838,9.88-1.356,14.891
		c1.959-0.018,1.381-5.342,1.607-6.572c0.702-3.819,0.417-7.717,0.496-11.576c0.09-4.401,0.192-8.797,0.211-13.2
		c0.011-2.349,0.027-4.699,0.005-7.049c-0.009-0.932,0.589-3.92-0.941-3.495C31.129,17.604,30.799,21.88,31.115,26.174
		C31.115,27.069,30.867,22.803,31.115,26.174z M38.267,34.453c-0.132,8.716-1.332,17.368-1.764,26.07
		c-0.201,4.044-0.937,7.852-0.538,11.938c0.421,4.319,1.494,8.531,2.209,12.805c-0.14-5.311-0.97-10.563-0.762-15.894
		c0.233-5.994,0.575-11.998,0.829-17.998c0.537-12.679,0.804-25.371,0.804-38.062c-0.241-0.064-0.706-0.065-0.946,0
		C38.269,20.357,38.403,27.407,38.267,34.453C38.241,36.157,38.366,29.327,38.267,34.453z M40.322,77.506
		c-0.047-1.308-0.095-2.647-0.068-3.976C40.18,74.846,40.227,76.182,40.322,77.506z M40.033,37.511
		c-0.106,6.639-0.345,13.246-0.903,19.864c-0.582,6.886-1.017,13.584-0.113,20.455c0.087-2.426,0.384-4.988,1.426-7.213
		c0.367-2.826,0.345-5.628,0.353-8.475c0.015-6.028-0.026-12.048,0.282-18.07c0.297-5.806,0.384-11.613,0.438-17.427
		c0.026-2.813,0.002-5.627-0.008-8.44c-0.004-1.31-0.023-2.619-0.037-3.929c-0.014-1.332-0.24-0.961-1.392-0.961
		C40.129,21.381,40.108,29.446,40.033,37.511C40.007,39.132,40.107,29.512,40.033,37.511z M42.351,22.416
		c-0.283,9.183-0.288,18.368-0.288,27.554c2.07,0,1.176-5.217,1.185-6.479c0.508-4.425,0.771-8.886,0.78-13.338
		c0.009-4.36,0.269-8.719-0.081-13.074c-0.082-1.028-0.195-2.055-0.338-3.077c-0.113-1.224-0.749-0.791-0.82,0.271
		C42.605,16.985,42.464,19.7,42.351,22.416C42.277,24.807,42.451,20.011,42.351,22.416z M45.324,41.548
		c-0.106,7.492,0.575,15.629-0.825,23.013c-0.36,1.902-1.147,3.627-1.344,5.584c-0.197,1.958-0.033,3.929,0.195,5.878
		c0.43,3.676,1.296,7.271,2.147,10.867c-0.344-6.221-2.66-12.396-1.782-18.598c0.385-2.721,1.535-5.181,2.071-7.864
		c0.082-3.115,0.245-6.217,0.138-9.333c-0.219-6.384,0.03-12.791-0.052-19.178c-0.039-3.021-0.054-6.04-0.047-9.062
		c0.004-1.71,0.015-3.42,0.031-5.13c0.012-1.247-0.338-3.241,0.073-4.411c-0.229-0.061-0.64-0.053-0.871,0
		C45.24,22.727,45.42,32.138,45.324,41.548C45.298,43.373,45.35,39.023,45.324,41.548z M44.285,74.967
		c1.697,6.299,1.775,12.639,2.638,19.035c0.752-5.139-0.907-10.951-1.576-16.072c-0.394-3.017-0.93-6.094-0.639-9.135
		c0.271-2.846,1.078-5.488,1.078-8.366C45.124,65.336,44.121,69.966,44.285,74.967C45.811,80.631,44.166,71.346,44.285,74.967z
		 M51.564,38.986c-0.312,5.546-0.369,11.1-0.735,16.648c-0.169,2.569-0.106,5.321-0.839,7.812c-0.877,2.2-1.084,4.725-1.064,7.071
		c0.506-3.788,2.116-7.453,3.094-11.132c-0.128,1.228-0.119,2.481-0.355,3.695c-0.268,1.376-1.084,2.268-1.498,3.554
		c-0.679,2.111-0.503,4.906,0.166,6.999c-0.135-4.517,1.743-8.665,1.802-13.083c0.071-5.26,0.04-10.517,0.034-15.776
		c-0.006-5.199,0.416-10.347,0.209-15.561c-0.21-5.298-0.587-10.594-0.551-15.899c-1.579-0.407-0.882,2.208-0.867,3.169
		c0.037,2.474,0.151,4.945,0.276,7.416C51.488,28.923,51.771,33.954,51.564,38.986C51.517,39.82,51.925,30.212,51.564,38.986z
		 M53.907,37.957c-0.548,8.445-0.021,17.11,0.262,25.563c0.14-3.53,0.909-6.925,0.902-10.448c-0.008-4.456,0.384-8.832,0.394-13.3
		c0.011-5.023-0.365-10.033-0.698-15.042c-0.153-2.301-0.293-4.604-0.374-6.909c-0.037-1.017,0.62-4.917-0.894-4.507
		C53.877,21.522,53.883,29.741,53.907,37.957C53.761,40.205,53.887,31.165,53.907,37.957z M48.055,34.467
		c0.079-3.003-0.476-5.984-0.562-8.994c-0.105-3.721,0.026-7.443,0.013-11.166c-0.009-2.56-0.421,0.364-0.439,1.106
		c-0.051,2.103-0.115,4.204-0.126,6.307C46.919,25.993,47.137,30.283,48.055,34.467C48.055,34.467,46.483,27.308,48.055,34.467z
		 M10.859,93.973c-0.298-4.26-0.612-8.121-0.188-12.395c0.426-4.296,0.68-8.693-0.949-12.789c0,5.665,0,11.336-0.364,16.99
		c-0.092,3.348,0.059,6.883,1.573,9.934C10.932,95.135,10.898,94.551,10.859,93.973C10.785,92.912,10.932,95.063,10.859,93.973z
		 M46.053,69.431c0.306-2.767,1.178-5.51,1.33-8.279c0.166-3.024,0.285-6.058,0.285-9.086c-1.059,4.16-0.801,8.496-1.836,12.591
		c-1.053,4.169-0.504,8.508,0.484,12.628C45.84,74.694,45.757,72.049,46.053,69.431C46.341,66.829,45.785,71.801,46.053,69.431z
		 M46.316,77.284c0.203,1.196,0.599,2.349,0.965,3.505C46.907,79.635,46.616,78.458,46.316,77.284
		C46.368,77.59,46.609,78.43,46.316,77.284z M47.238,69.66c0.215-1.729,0.63-3.418,1.059-4.954
		C47.621,66.356,47.305,67.993,47.238,69.66z M51.443,97.631c0.052,0.588,0.115,1.176,0.189,1.762
		c-0.161-2.754,0.182-5.313-0.215-8.096C51.517,93.406,51.517,95.52,51.443,97.631C51.491,98.219,51.517,95.518,51.443,97.631z
		 M47.238,69.66c-0.433,3.037,0.194,5.296,0.961,8.191c0.88,3.324,1.504,6.713,2.034,10.107
		C50.069,81.752,46.923,75.926,47.238,69.66C47.018,71.206,47.164,71.135,47.238,69.66z M49.87,38.404
		c-0.192,8.626,0.641,17.898-1.574,26.302c2.983-7.371,1.715-16.553,1.924-24.351c0.24-8.964-1.098-18.116-0.305-27.042
		c-1.037-0.237-0.586,3.135-0.571,3.887c0.05,2.361,0.207,4.719,0.363,7.075C50.021,28.969,50.378,33.711,49.87,38.404
		C49.849,39.349,50.741,30.355,49.87,38.404z M57.17,87.471c0,0.188,0.026,0.361,0.026,0.545
		C57.195,88.016,57.17,87.811,57.17,87.471z M57.096,86.471c0.026,0.408,0.052,0.75,0.074,1.002
		C57.148,87.137,57.122,86.797,57.096,86.471z M55.649,48.557c0.071,3.445-0.787,6.825-0.708,10.267
		c0.079,3.402-0.215,6.372-0.664,9.71c-0.839,6.25,2.222,11.841,2.818,17.937c0-5.904-1.616-11.627-1.175-17.6
		c0.459-6.224,0.417-12.45,0.614-18.697c0.196-6.184,1.29-12.215,0.937-18.442c-0.349-6.142-1.354-12.253-1.268-18.417
		c-0.161,0-0.321,0-0.482,0C55.748,25.051,56.057,36.826,55.649,48.557C55.743,53.114,55.721,46.49,55.649,48.557z M57.578,48.305
		c-0.047,2.488-0.053,5.081,1.09,7.361c0.259-2.575,0.176-5.095,0.734-7.623c0.871-3.945,1.212-7.99,1.276-12.024
		c0.066-4.145-0.16-8.289-0.457-12.421c-0.087-1.205-0.618-10.38-1.144-10.282C60.434,24.994,59.275,36.727,57.578,48.305
		C57.531,50.769,59.298,36.57,57.578,48.305z M9.359,120.408c0,1.777,0.436,3.545,1.28,5.109c-0.337-4.486-0.8-8.963-1.28-13.438
		C9.359,114.855,9.359,117.633,9.359,120.408C9.359,122.262,9.359,120.408,9.359,120.408z M14.697,88.633
		c0,7.742,0.871,15.354,1.975,23.025c0.55,3.818,1.143,7.633,1.7,11.451c0.294,2.014,0.579,4.025,0.839,6.043
		c0.241,1.861,0.186,2.029,1.967,2c-0.6-7.098-1.709-14.141-2.935-21.152c-0.62-3.543-1.272-7.082-1.916-10.623
		C15.689,95.867,14.697,92.215,14.697,88.633C14.697,89.504,14.697,89.432,14.697,88.633z M17.02,85.869
		c-0.349-4.197,0.173-8.68,0.173-12.916c-1.338,4.482-2.088,8.678-1.497,13.357c0.593,4.701,1.388,9.346,2.29,13.99
		c1.021,5.264,1.866,10.563,2.559,15.879c0.371,2.85,0.699,5.705,0.985,8.564c0.104,1.045,0.16,6.633,1.148,6.406
		C21.761,115.922,18.265,101.031,17.02,85.869C16.921,84.68,17.118,87.063,17.02,85.869z M15.326,118.951
		c0.757,2.113,0.813,4.33,0.563,6.541c-0.136,1.205-0.34,2.398-0.486,3.604c-0.176,1.453,1.184,1.566,2.461,1.828
		c-1.256-9.598-3.092-19.109-4.394-28.701C12.322,107.943,13.402,113.533,15.326,118.951
		C16.752,122.932,13.47,113.725,15.326,118.951z M18.735,84.559c-0.444-2.535-0.49-5.055-0.772-7.59
		c0.116,1.773-0.27,3.523-0.2,5.313c0.093,2.396,0.529,4.775,0.815,7.154c0.595,4.949,1.289,9.887,1.985,14.82
		c0.683,4.844,1.368,9.686,1.952,14.541c0.289,2.4,0.553,4.803,0.78,7.211c0.09,0.955-0.048,5.396,1.029,5.141
		C23.556,115.65,21.567,99.807,18.735,84.559C18.326,82.227,18.954,85.738,18.735,84.559z M17.963,76.971
		c-0.129-1.369-0.254-2.721-0.771-4.013C17.431,74.297,17.676,75.641,17.963,76.971C17.916,76.467,17.843,76.415,17.963,76.971z
		 M26.233,131.152c0.137,0,0.273,0,0.41,0c-0.296-8.299-1.177-16.572-2.612-24.75C24.849,114.643,25.771,122.879,26.233,131.152
		C26.233,131.152,25.771,122.887,26.233,131.152z M23.18,85.766c-0.768-3.576-0.471-6.812-0.349-10.397
		c0.056-1.642-0.173-3.28-0.23-4.921c-0.062-1.766,0.52-4.252-0.433-5.843c0,2.617,0.008,5.22,0.054,7.837
		c0.048,2.689-0.571,5.169-0.66,7.838c-0.199,5.949,1.958,11.561,3.235,17.289c1.3,5.832,2.175,11.754,2.708,17.701
		c0.251,2.811,0.427,5.627,0.537,8.445c0.038,0.98,0.002,7.523,0.508,7.434C28.45,115.68,25.855,100.916,23.18,85.766
		C22.677,83.424,23.354,86.752,23.18,85.766z M26.883,87.221c-1.491-6.014-2.224-12.228-2.224-18.43
		c-0.559,2.124-0.235,4.201-0.437,6.336c-0.232,2.455-0.021,4.934,0.413,7.354c0.934,5.201,1.858,10.318,2.474,15.582
		c1.285,10.984,2.114,22.027,2.312,33.086c0.064,0,0.129,0,0.194,0C29.812,116.465,29.058,101.754,26.883,87.221
		C25.891,83.221,29.107,102.088,26.883,87.221z M33.867,91.266c0.138-4.955,0.337-10.377-1.131-15.168
		c0.947,3.832-0.022,8.193-0.002,12.146c0.023,4.67,0.024,9.338,0.02,14.008c-0.009,9.623,0.299,19.277,0.024,28.895
		c1.17,0.283,0.714-1.354,0.741-2.086c0.063-1.76,0.118-3.52,0.163-5.279c0.093-3.588,0.152-7.178,0.188-10.768
		C33.942,105.766,33.919,98.516,33.867,91.266C33.988,86.914,33.962,104.559,33.867,91.266z M36.405,84.434
		c0.112-1.377,0.052-2.77,0.052-4.148c-0.478,3.66-1.01,7.063-1.084,10.768c-0.09,4.508-0.204,9.016-0.323,13.521
		c-0.233,8.857-0.486,17.717-0.627,26.578c1.196,0.277,0.777-2.479,0.823-3.279c0.125-2.193,0.239-4.385,0.344-6.578
		c0.192-4.025,0.35-8.051,0.475-12.078C36.321,100.957,36.405,92.697,36.405,84.434C36.457,83.797,36.405,86.168,36.405,84.434z
		 M30.438,109.496c-0.317-6.719-0.091-13.771-1.194-20.406c-0.488-2.93-1.139-5.832-1.595-8.77c-0.512-3.299-0.659-6.27-1.758-9.443
		c0.353,4.734,0.392,9.418,1.451,14.08c1.188,5.234,1.838,10.367,2.234,15.723c0.75,10.152,0.715,20.295,0.715,30.467
		c0.194,0.049,0.558,0.053,0.75,0C30.849,123.957,31.635,116.621,30.438,109.496C30.292,106.402,31.498,115.805,30.438,109.496z
		 M31.665,131.152c0.632-1.605,0.273-4.627,0.304-6.584c0.046-2.938,0.076-5.877,0.097-8.816c0.041-5.9,0.041-11.803,0.041-17.703
		C31.507,109.063,30.954,120.129,31.665,131.152C31.665,131.152,30.967,120.344,31.665,131.152z M37.711,95.963
		c0,11.758-1.327,23.463-2.03,35.189c0.733,0.145,0.811-5.447,0.88-6.383c0.238-3.174,0.49-6.348,0.705-9.523
		C37.7,108.83,37.972,102.393,37.711,95.963C37.711,107.404,38.198,107.977,37.711,95.963z M40.516,80.045
		c-0.302-3.355-0.66-6.934,0.288-10.218c-2.228,3.792-2.116,9.353-1.794,13.589c0.41,5.395,0.555,10.807,0.51,16.217
		c-0.087,10.525-0.895,21.021-1.589,31.52c1.202,0.285,0.993-3.424,1.085-4.342c0.217-2.164,0.434-4.326,0.641-6.488
		c0.413-4.313,0.789-8.629,1.063-12.951C41.295,98.27,41.396,89.127,40.516,80.045C40.443,79.236,42.205,97.484,40.516,80.045z
		 M39.571,124.166c0,2.344-0.32,4.674-0.675,6.986C39.583,129.105,39.803,126.396,39.571,124.166
		C39.571,126.492,39.813,126.492,39.571,124.166z M46.555,91.842c-0.089-5.324-0.7-10.645-1.995-15.813
		c-1.265-5.048,0.548-10.592,1.224-15.599c-1.07,5.352-3.068,9.763-1.8,15.352c1.369,6.041,1.771,12.258,1.588,18.438
		c-0.367,12.414-2.956,24.617-4.309,36.936c1.496,0.393,1.761-6.158,1.962-7.447c0.555-3.559,1.13-7.113,1.645-10.678
		C45.884,106.014,46.667,98.938,46.555,91.842C46.461,86.252,46.755,104.559,46.555,91.842z M50.332,73.637
		c-0.669-2.094-0.843-4.889-0.165-7c0.315-0.981,0.992-1.675,1.281-2.664c0.436-1.493,0.412-3.052,0.572-4.586
		c-1.513,5.702-4.448,11.221-2.125,17.066c2.228,5.605,3.099,11.686,3.271,17.686c0.372,12.895-3.271,24.586-5.98,37.016
		c1.414,0,2.08,0.492,2.291-1.055c0.383-2.807,0.801-5.607,1.22-8.41c0.829-5.553,1.66-11.109,2.192-16.699
		C53.888,94.49,53.768,83.715,50.332,73.637C50.305,73.553,56.566,91.926,50.332,73.637z M50.379,131.152
		c1.798,0.506,1.633-2.896,1.887-4.119c0.567-2.727,1.161-5.447,1.695-8.182c1.003-5.135,1.782-10.336,1.782-15.582
		C53.9,112.553,51.632,121.762,50.379,131.152C50.379,131.152,51.632,121.762,50.379,131.152z M45.183,117.906
		c-0.394,4.588-2.462,8.736-3.12,13.246c1.742,0.502,1.957-3.25,2.259-4.48C45.028,123.801,45.424,120.865,45.183,117.906
		C44.795,122.418,45.592,122.932,45.183,117.906z M49.85,80.322c-0.33-3.521-0.798-7.041-1.574-10.494
		C48.276,73.389,49.063,76.868,49.85,80.322C49.677,78.477,49.073,76.913,49.85,80.322z M51.417,91.297
		c0-3.732-0.743-7.354-1.567-10.975c1.545,17.045-1.853,33.979-3.89,50.83c1.321,0.336,1.062-2.275,1.198-3.174
		c0.267-1.756,0.558-3.508,0.858-5.258c0.598-3.484,1.236-6.963,1.802-10.453C50.943,105.334,51.749,98.334,51.417,91.297
		C51.417,91.113,51.517,93.42,51.417,91.297z M56.981,93.865c0,6.031,0.622,11.799-0.645,17.762
		c-1.38,6.498-2.984,12.955-4.001,19.525c0.618,0,1.236,0,1.854,0c0.314,0,0.623-3.814,0.694-4.342
		c0.532-3.953,1.142-7.896,1.714-11.846c0.536-3.705,1.097-7.293,0.898-11.039C57.317,100.574,56.981,97.223,56.981,93.865
		C56.981,99.09,56.981,98.049,56.981,93.865z M56.037,131.152c1.325,0,1.634,0.422,1.745-1.078c0.186-2.52,0.4-5.033,0.645-7.547
		c0.456-4.689,1.012-9.369,1.669-14.033C57.617,115.783,56.455,123.48,56.037,131.152C56.037,131.152,56.466,123.268,56.037,131.152
		z M63.451,37.101c0.302-2.142,1.066-23.787-0.369-23.787c-1.901,0-1.591,0.16-1.602,2.192c-0.014,2.522,0.091,5.044,0.282,7.559
		C62.118,27.766,62.77,32.438,63.451,37.101C63.451,37.101,62.271,29.027,63.451,37.101z M61.689,60.389
		c-0.352,3.509,0.485,6.992,1.621,10.291c-0.043-9.703,1.552-19.147,2.932-28.734c0.807-5.607,1.497-11.245,1.641-16.913
		c0.072-2.838,0.007-5.681-0.244-8.51c-0.038-0.435-0.151-3.207-0.526-3.207c-0.462,0-0.924,0-1.386,0
		C67.141,29.141,62.833,44.693,61.689,60.389C61.375,63.52,62.853,44.424,61.689,60.389z M69.113,92.383
		c0.47-2.186,0.952-4.352,1.207-6.576C69.752,87.992,69.449,90.16,69.113,92.383C69.207,91.947,69.23,91.611,69.113,92.383z
		 M69.113,92.383c-0.172,0.953-0.246,1.473-0.246,1.473C68.967,93.373,69.04,92.881,69.113,92.383z M70.173,58.056
		c-1.161,9.666-0.43,19.217-0.63,28.907c2.139-5.475,1.238-12.119,1.296-17.958c0.066-6.721,0.843-13.442,1.96-20.065
		c1.086-6.432,3.522-13.031,3.573-19.568c0.017-1.943-0.396-16.633-2.596-16.057c2.097,7.668,2.456,15.158,1.023,22.986
		C73.465,43.597,71.092,50.677,70.173,58.056C69.884,60.463,71.671,46.031,70.173,58.056z M76.361,30.404
		c-0.105,9.444-0.772,18.882-2.044,28.242c-0.587,4.317-1.394,8.598-2.179,12.882c-0.728,3.957,0.761,8.948,1.369,12.897
		c0.229-4.928-0.16-9.968,0.374-14.87c0.689-6.313,1.399-12.62,1.908-18.952c0.527-6.559,0.896-13.132,1.018-19.712
		c0.061-3.291,0.06-6.583-0.016-9.875c-0.023-1.099,0.079-7.896-0.818-7.706C76.321,19.003,76.432,24.704,76.361,30.404
		C76.244,40.919,76.387,28.337,76.361,30.404z M67.614,47.285c1.316-6.325,2.969-12.322,3.191-18.836
		c0.103-3.044,0.002-6.095-0.288-9.126c-0.161-1.679-0.379-3.352-0.655-5.015c-0.223-1.35-0.41-0.995-1.618-0.995
		C70.215,24.56,69.839,36.105,67.614,47.285C67.782,46.478,69.838,36.108,67.614,47.285z M67.614,47.285
		c-0.461,2.069-0.703,3.291-0.703,3.291C67.153,49.487,67.394,48.387,67.614,47.285z M70.828,47.975
		c1.722-6.032,2.622-12.273,2.696-18.545c0.035-3.024-0.114-6.05-0.413-9.06c-0.167-1.684-0.381-3.363-0.633-5.036
		c-0.14-0.918,0.119-2.373-1.193-2.021C73.201,24.811,72.782,36.512,70.828,47.975C74.257,35.962,72.835,36.195,70.828,47.975z
		 M68.967,57.332c0.708-3.101,1.323-6.222,1.86-9.356C69.98,51.053,69.437,54.173,68.967,57.332
		C69.69,54.165,68.967,57.332,68.967,57.332z M75.416,65.256c0.392-2.643,0.705-5.295,1.021-7.948
		C75.913,59.938,75.63,62.585,75.416,65.256C75.805,62.625,75.416,65.256,75.416,65.256z M76.435,57.307
		c1.404-7.431,2.184-14.973,2.438-22.529c0.133-3.94,0.125-7.884-0.008-11.824c-0.042-1.243-0.198-9.82-1.052-9.64
		C78.63,27.981,78.072,42.714,76.435,57.307C79.193,42.72,78.053,42.887,76.435,57.307z M77.639,66.87
		c-0.704,3.793,0.424,7.515,0.776,11.271c-0.396-4.223,0.029-8.271,0.363-12.5c0.474-6.289,0.869-12.583,1.15-18.884
		c0.266-5.939,0.43-11.883,0.457-17.829c0.016-2.975-0.004-5.949-0.061-8.923c-0.028-1.488-0.066-2.975-0.113-4.462
		c-0.029-0.932,0.475-2.593-0.946-2.231C80.278,31.157,80.379,49.164,77.639,66.87C76.916,70.762,80.376,49.184,77.639,66.87z
		 M82.476,22.803c-1.287,4.385-0.646,9.123-0.313,13.597c0.293-1.938-0.308-3.944-0.106-5.937
		C82.313,27.921,82.862,25.363,82.476,22.803C81.248,26.985,83.108,26.984,82.476,22.803z M83.492,35.492
		c0.069-4.257,0.03-8.515-0.063-12.771c-0.047-2.094-0.105-4.188-0.172-6.281c-0.033-1.074,0.604-3.586-1.097-3.126
		c0.435,8.581,1.108,17.151,1.282,25.743C83.464,37.869,83.479,36.68,83.492,35.492C83.617,27.928,83.47,37.608,83.492,35.492z
		 M86.229,21.764c0,3.505-0.198,7.008-0.127,10.55C86.196,28.796,87.046,25.281,86.229,21.764z M86.804,37.412
		c-0.281-0.79-0.457-1.611-0.574-2.44c0.144,1.936,0.391,3.866,0.797,5.765C87.026,39.635,86.873,38.511,86.804,37.412
		C86.517,36.604,86.925,39.348,86.804,37.412z M86.229,34.972c-0.055-0.895-0.102-1.774-0.127-2.658
		C86.082,33.199,86.128,34.077,86.229,34.972z M89.048,45.306c-1.229-10.835-1.968-21.125-0.383-31.992
		c-1.591,4.322-1.262,10.594-1.234,15.274C87.461,34.189,87.944,39.81,89.048,45.306C89.048,45.306,87.093,35.577,89.048,45.306z
		 M84.457,33.643c-0.119-5.704-0.117-11.409-0.117-17.114c0,6.413-1.354,13.066,0.146,19.4
		C84.464,35.167,84.457,34.405,84.457,33.643C84.339,28.035,84.457,34.995,84.457,33.643z M86.321,74.508
		c0.306-20.357-0.779-40.787-0.461-61.19c-0.898-0.187-0.545,4.653-0.553,5.561c-0.021,2.596-0.035,5.192-0.045,7.789
		c-0.019,5.194-0.011,10.389,0.041,15.583C85.408,53.007,85.698,63.765,86.321,74.508C86.343,73.069,85.138,54.139,86.321,74.508z
		 M94.47,94.531c-0.031-1.367-0.049-2.719-0.197-4.076C94.272,91.822,94.427,93.166,94.47,94.531
		C94.47,94.531,94.444,93.734,94.47,94.531z M89.923,52.908c1.135,9.761,1.768,19.596,2.943,29.33
		c-0.092-5.402,0.313-10.758-0.405-16.122c-0.769-5.757-1.374-11.537-1.808-17.329c-0.883-11.8-1.049-23.652-0.496-35.473
		c-1.026-0.268-0.92,0.14-0.963,1.097c-0.08,1.827-0.144,3.655-0.189,5.483c-0.093,3.656-0.117,7.313-0.078,10.97
		C89.006,38.221,89.349,45.574,89.923,52.908C90.603,58.746,88.88,39.613,89.923,52.908z M96.308,75.764
		c-0.586-9.836-2.625-19.607-3.776-29.396c-1.289-10.959-2.019-22.032-1.111-33.052c-1.179-0.275-0.915,4.509-0.952,5.501
		c-0.095,2.564-0.115,5.131-0.074,7.697c0.092,5.502,0.477,10.996,1.047,16.468C92.588,53.974,94.483,64.869,96.308,75.764
		C96.308,75.764,92.845,55.084,96.308,75.764z M93.669,16.53c-4.609,8.865-0.604,19.875,1.498,28.875
		C93.194,35.739,92.017,26.364,93.669,16.53C89.321,24.893,92.438,23.853,93.669,16.53z M99.81,55.87
		c0.073,0.281,0.146,0.563,0.222,0.844c-2.33-14.48-6.63-28.562-3.242-43.314c-5.619,13.631-0.754,28.865,2.974,42.312
		c-0.039-0.378-0.08-0.756-0.119-1.135C99.698,55.008,99.753,55.439,99.81,55.87C99.882,56.148,99.761,55.435,99.81,55.87z
		 M105.587,45.525c0.199-10.768-2.563-21.4-1.207-32.21c-1.588-0.415-1.301,4.09-1.372,5.198c-0.202,3.141-0.188,6.293-0.002,9.434
		C103.354,33.867,104.301,39.741,105.587,45.525C105.587,45.525,103.271,35.105,105.587,45.525z M107.832,51.916
		c0.844,2.489,0.802,5.395,2.776,7.372c-0.789-2.616-1.756-5.172-2.202-7.882c-0.687-4.162,0.473-8.183,0.712-12.338
		c0.494-8.587-0.654-17.165-0.391-25.754c-0.603,0-1.203,0-1.805,0c-0.959,0-0.656,2.89-0.684,3.726
		c-0.123,3.921,0.101,7.845,0.4,11.753C107.229,36.481,108.187,44.192,107.832,51.916C108.585,54.139,108.414,39.227,107.832,51.916
		z M103.365,67.301c0.077-3.96-1.568-7.907-2.398-11.781c-0.97-4.522-1.692-9.096-2.172-13.696
		c-0.983-9.473-0.91-19.036,0.026-28.51c-1.534-0.398-1.143,3.146-1.229,4.172c-0.201,2.432-0.343,4.869-0.42,7.309
		c-0.152,4.848-0.051,9.706,0.337,14.541C98.271,48.853,100.142,58.304,103.365,67.301C103.365,67.301,97.317,50.42,103.365,67.301z
		 M106.117,92.436c0,1.23,0,2.436,0,3.654C106.237,94.848,106.216,93.639,106.117,92.436z M104.812,65.032
		c0.371,6.951,0.101,13.981,0.558,20.903c0.556-5.885,0.799-11.668,0.649-17.582c-0.078-3.072-0.354-6.113-0.646-9.171
		c-0.305-3.191-1.271-6.128-1.984-9.247c-2.75-12.043-2.674-24.417-1.162-36.623c-1.754-0.486-1.203,1.989-1.264,3.119
		c-0.13,2.426-0.197,4.855-0.212,7.285c-0.024,4.534,0.146,9.067,0.47,13.589C101.886,46.608,103.201,55.851,104.812,65.032
		C104.979,68.172,101.696,47.277,104.812,65.032z M110.468,53.116c0,3.607,1.891,6.339,3.236,9.534
		c-0.57-3.635-2.609-6.791-2.609-10.587c0-4.962,0.207-9.922,0.438-14.878c0.235-5.063,0.499-10.125,0.618-15.192
		c0.06-2.532,0.082-5.065,0.048-7.598c-0.022-1.625-0.81-1.082-2.243-1.082C111.601,26.536,109.865,39.853,110.468,53.116
		C110.468,57.285,109.865,39.845,110.468,53.116z M114.435,25.206c0.342,5.121,0.074,10.269-0.259,15.383
		c-0.159,2.431-0.34,4.861-0.479,7.293c-0.168,2.921,0.175,4.579,1.1,7.336c-0.512-0.884-0.105-3.427-0.111-4.459
		c-0.013-2.151,0.021-4.303,0.073-6.454c0.107-4.257,0.298-8.512,0.378-12.77c0.073-3.912,0.053-7.828-0.205-11.733
		c-0.144-2.169-0.357-4.334-0.664-6.486c-0.338-0.239-1.619,0-2.057,0c0.734,1.44,0.827,3.847,1.205,5.45
		C113.916,20.887,114.317,23.026,114.435,25.206C114.703,29.231,114.192,20.714,114.435,25.206z M114.794,55.218
		c0.168,0.894,0.336,1.426,0.336,1.426C115.063,56.159,114.942,55.688,114.794,55.218z M116.487,24.337
		c0.488,3.427,0.002,6.863-0.164,10.293c-0.172,3.556,0.518,6.906,0.962,10.411c0.226-2.16,0.022-4.376,0.058-6.547
		c0.053-3.315,0.743-6.535,0.791-9.838c0.047-3.202-0.39-6.383-0.822-9.548c-0.203-1.422,0.197-6.371-1.865-5.792
		C115.444,17.016,116.069,20.67,116.487,24.337C117.31,30.115,116.074,20.714,116.487,24.337z M116.074,49.972
		c0,4.167,1.278,8.151,1.821,12.25c0.594,4.472-0.832,8.458-0.893,12.864c-0.061,4.416-0.425,8.873-0.374,13.273
		c0.024,2.213,0.104,3.855-0.56,6.004c-0.547,1.773-1.012,3.566-0.525,5.418c0.219-3.016,2.04-5.516,2.292-8.471
		c0.38-4.451,0.177-9.014,0.293-13.481c0.06-4.53,0.604-9.095,0.427-13.617C118.368,59.383,117.431,54.602,116.074,49.972
		C116.074,53.635,116.996,53.116,116.074,49.972z M119.335,32.471c-0.533,5.775-0.053,11.88,0.008,17.681
		c0.061,5.861,1.039,11.729,0.453,17.591c2.418,0,1.031-7.633,0.835-9.086c-0.667-4.949-0.42-9.63-0.517-14.588
		c-0.104-5.416,0.098-10.718,0.264-16.115c0.082-2.681-0.107-5.364-0.337-8.034c-0.117-1.369-0.247-2.736-0.365-4.105
		c-0.14-1.626,0.138-2.079-1.562-2.341c0.189,3.506,0.804,6.967,1.484,10.406C120.194,26.879,119.92,29.48,119.335,32.471
		C119.22,33.718,119.796,30.115,119.335,32.471z M125.771,29.016c0.033,20.035,0.678,40.045,0.974,60.076
		c0.233-9.035,0.457-18.014,0.457-27.063c0-4.011-0.005-8.017-0.082-12.027c-0.106-5.542-0.231-11.084-0.338-16.626
		c-0.048-2.5-0.093-5.001-0.138-7.501c-0.045-2.375,0.215-5.41-1.08-7.468C125.733,21.945,125.771,25.473,125.771,29.016
		C125.794,43.371,125.771,26.961,125.771,29.016z M122.093,41.245c-0.617-3.411-0.554-7.019-0.349-10.467
		c0.204-3.44,1.229-6.713-0.089-10.066c0,2.201,0.312,4.401,0.1,6.6c-0.197,2.053-0.814,3.966-0.92,6.052
		c-0.188,4.938,0.02,9.957,1.383,14.734C122.218,45.815,122.125,43.528,122.093,41.245C121.56,38.296,122.147,45.184,122.093,41.245
		z M123.521,28.532c0,11.64,0.277,23.319,1.836,34.869c-0.235-7.634-0.711-15.227-0.66-22.873c0.029-4.305,0.127-8.608,0.188-12.913
		c0.028-2.044,0.132-4.084,0.125-6.129c-0.007-2.327,0.294-3.99-1.584-5.574C123.552,20.119,123.521,24.325,123.521,28.532
		C123.521,40.266,123.521,27.554,123.521,28.532z M59.419,59.012c-0.91,9.254,0.155,18.93,1.567,28.087
		c-0.019-12.115-0.683-24.255-0.001-36.366C60.285,53.462,60.086,56.28,59.419,59.012C59.152,61.723,60.095,56.242,59.419,59.012z
		 M79.888,65.256c-0.313,3.916-0.825,7.955-0.823,11.876c0.003,4.121,0.993,8.146,1.335,12.236c0.591-5.326-0.377-10.9-0.555-16.254
		c0.127-5.661,0.081-11.471,2.008-16.875C80.528,59.041,80.138,62.202,79.888,65.256C79.626,68.538,80.156,61.994,79.888,65.256z
		 M89.583,80.406c-0.214-6.553-0.605-13.178-1.332-19.692c0.307,10.863,0.514,21.754,1.678,32.573
		C89.826,88.967,89.991,84.729,89.583,80.406C89.462,76.692,89.899,83.764,89.583,80.406z M88.251,60.715
		c-0.072-2.126-0.24-4.241-0.797-6.562C87.729,56.473,88.011,58.589,88.251,60.715z M89.923,52.908
		c-0.475-4.132-1.037-8.258-1.84-12.341c2.23,18.869,2.883,37.952,4.426,56.888c-0.016-6.646-0.031-13.297-0.168-19.941
		C91.875,69.283,90.875,61.097,89.923,52.908C89.438,48.678,90.603,58.745,89.923,52.908z M85.476,84.309
		c-2.912-12.994,0.276-26.43-0.506-39.556c-0.853,7.207-2.013,14.401-2.128,21.672c-0.059,3.649,0.237,7.248,0.729,10.86
		c0.451,3.304,1.57,6.438,2.049,9.726C85.321,86.412,85.521,84.957,85.476,84.309C84.897,81.729,85.593,85.977,85.476,84.309z
		 M99.274,79.098c0.672-8.816-1.812-17.355-3.112-25.982c-0.53,3.507,0.271,7.02,0.748,10.482c0.463,3.361,0.7,6.802,0.931,10.187
		c0.488,7.188,1.41,14.351,1.727,21.56C99.563,89.922,99.235,84.52,99.274,79.098C99.587,74.989,99.251,82.311,99.274,79.098z
		 M101.382,66.158c-0.554-3.864-1.309-7.698-1.74-11.58c0.938,7.741,1.707,15.634,1.346,23.438
		c-0.406,8.768,0.695,17.557-0.477,26.291c1.332,0,1.188,0.096,1.217-1.229c0.033-1.596,0.024-3.191,0.028-4.787
		c0.009-3.662,0.011-7.326,0.013-10.988C101.772,80.264,102.185,73.157,101.382,66.158
		C100.919,62.929,101.771,69.539,101.382,66.158z M122.292,66.687c-0.307,4.825-0.501,9.653-0.664,14.483
		c-0.08,2.379-0.011,4.732-0.048,7.109c-0.026,1.814-0.836,3.922-0.649,5.672c0.045,0.416,1.047,0.529,1.11,0.145
		c0.146-0.902,0.249-1.781,0.249-2.697c0-2.303,0.002-4.604,0.066-6.906C122.522,78.518,123.632,72.621,122.292,66.687
		C122.192,68.255,122.608,68.088,122.292,66.687z M59.492,131.152c0.439-0.367,0.136-1.051-0.026-1.84
		C59.475,129.926,59.483,130.539,59.492,131.152C59.492,131.152,59.492,130.549,59.492,131.152z M61.326,111.637
		c-2.577,5.771-3.022,11.531-1.86,17.682C59.492,123.379,60.181,117.459,61.326,111.637
		C59.465,115.805,60.168,117.525,61.326,111.637z M61.951,119.988c0.651-13.93,0.607-27.898,1.868-41.796
		c-1.254,8.823-1.854,17.729-2.107,26.636c-0.134,4.732-0.169,9.469-0.144,14.201c0.012,2.201,0.037,4.402,0.071,6.604
		c0.013,0.848-0.23,5.666,0.532,5.52C61.931,127.436,61.789,123.709,61.951,119.988C62.586,106.402,61.789,123.713,61.951,119.988z
		 M69.376,90.049c0.389-1.871,0.805-3.732,1.28-5.584c-3.177,7.533-3.874,15.111-3.852,23.246c0.011,4.117,0.099,8.232,0.134,12.35
		c0.022,2.592,0.118,5.18,0.241,7.768c0.058,1.221-0.596,3.842,1.307,3.324C67.757,117.471,66.765,103.6,69.376,90.049
		C69.67,88.633,66.764,103.604,69.376,90.049z M70.052,99.088c-0.736,5.529-1.536,11.074-1.576,16.664
		c-0.02,2.795,0.155,5.59,0.575,8.354c0.208,1.369,0.444,2.719,0.604,4.098c0.094,0.813-0.211,3.254,1,2.949
		C69.573,120.498,69.14,109.771,70.052,99.088C68.799,108.494,69.113,110.078,70.052,99.088z M64.447,93.865
		c-1.016,6.855-1.201,13.799-1.232,20.721c-0.014,3.135-0.022,6.27,0.096,9.402c0.064,1.703,0.154,3.404,0.257,5.107
		c0.06,0.992-0.342,2.443,1.095,2.057c-0.284-5.945-1.375-11.787-1.248-17.758C63.556,106.875,64.447,100.391,64.447,93.865
		C63.209,102.221,64.447,103.27,64.447,93.865z M67.562,87.594c-1.749,7.346-2.462,14.889-2.541,22.428
		c-0.041,3.875,0.079,7.748,0.276,11.617c0.09,1.762,0.196,3.521,0.31,5.281c0.054,0.832-0.201,4.467,0.843,4.232
		C65.328,116.547,64.988,102.084,67.562,87.594C64.039,102.389,65.705,98.049,67.562,87.594z M72.542,99.088
		c-1.759,5.625-2.291,11.535-2.205,17.406c0.046,3.137,0.259,6.27,0.527,9.393c0.121,1.404,0.254,2.809,0.389,4.209
		c0.139,1.42,0.271,1.057,1.51,1.057C72.277,120.475,71.673,109.762,72.542,99.088C69.28,109.52,71.671,109.785,72.542,99.088z
		 M78.751,79.236c-3.21,8.281-4.627,17.117-5.028,25.963c-0.203,4.465-0.162,8.938-0.005,13.402
		c0.088,2.436,0.208,4.869,0.347,7.305c0.053,0.939-0.161,5.488,0.896,5.246C74.304,113.762,76.087,96.4,78.751,79.236
		C72.348,95.762,76.027,96.793,78.751,79.236z M76.771,131.152c0.478,0,0.955,0,1.433,0c-0.229-2.676-0.474-5.348-0.698-8.021
		C77.117,125.789,76.865,128.467,76.771,131.152C76.771,131.152,76.869,128.363,76.771,131.152z M83.733,89.682
		c-3.039,6.658-4.261,13.955-4.52,21.229c-0.132,3.703-0.025,7.41,0.191,11.105c0.119,2.033,0.273,4.064,0.441,6.096
		c0.084,0.994-0.391,3.453,1.158,3.041C80.187,117.305,79.735,103.125,83.733,89.682C77.88,102.506,79.728,103.152,83.733,89.682z
		 M88.083,123.131c-1.148,1.898-1.688,2.93-1.688,5.188c0.261,1.094,0.051,3.281,1.615,2.836
		C87.517,128.502,87.296,125.75,88.083,123.131C87.36,124.324,87.267,125.848,88.083,123.131z M89.951,124.166
		c1.558-5.227,1.854-10.24,1.854-15.672c-0.271,4.379-0.472,8.482-1.936,12.611c-0.639,1.801-1.957,9.313,0.363,10.047
		C89.871,128.814,89.633,126.531,89.951,124.166C90.574,122.076,89.636,126.512,89.951,124.166z M82.187,131.152
		c0.582,0,1.164,0,1.746,0c-0.426-5.471-1.123-10.912-1.457-16.391C81.757,120.189,81.879,125.699,82.187,131.152
		C82.187,131.152,81.876,125.652,82.187,131.152z M86.397,128.313c0-11.066,2.054-22.037,1.795-33.109
		c-0.111-4.781,0.106-9.539-0.182-14.328c-0.289-5.01-0.59-10.017-0.695-15.035c-1.051,4.964-1.195,10.039-0.77,15.082
		c0.514,6.064,0.4,11.828,0.006,17.898c-0.371,5.729-0.757,11.459-0.972,17.197c-0.106,2.873-0.172,5.746-0.173,8.621
		c0,1.445,0.017,2.891,0.052,4.336c0.024,0.984-0.459,2.563,1.009,2.176C86.416,130.207,86.397,129.26,86.397,128.313
		C86.397,127.623,86.397,129.26,86.397,128.313z M94.058,117.924c0.385-10.445,0.479-20.938,0.127-31.385
		c-0.164-4.934-0.213-9.859-0.377-14.771c-0.18-5.343-1.268-10.611-1.688-15.937c1.066,12.89,0.792,25.813,0.844,38.737
		c0.027,7.033,0.172,14.104-0.094,21.135c-0.07,1.871-3.643,16.576,0.242,15.447C92.451,126.742,92.069,122.066,94.058,117.924
		C94.104,116.652,92.048,122.111,94.058,117.924z M96.421,118.391c0.737-10.957,1.271-22.045-0.891-32.887
		c0.354,8.42,0.13,16.848-0.146,25.266c-0.133,4.082-0.374,7.824-1.233,11.818c-0.303,1.408-0.805,9.182,1.453,8.563
		C95.035,126.896,94.794,122.461,96.421,118.391C96.496,117.289,94.778,122.5,96.421,118.391z M98.429,123.07
		c0.276-1.365,0.223-2.736,0.223-4.119c-0.36,2.561-1.178,5.006-1.317,7.602c-0.06,1.08-0.685,5.078,1.049,4.6
		C98.026,128.479,97.841,125.723,98.429,123.07C98.55,122.471,97.854,125.666,98.429,123.07z M101.283,125.494
		c0.046-2.926,0.079-5.813-0.771-8.645c0,3.717-0.048,7.436-0.02,11.148c0.003,0.375-0.324,4.027,0.693,3.152
		C101.187,129.264,101.283,127.379,101.283,125.494C101.33,122.537,101.283,126.465,101.283,125.494z M107.979,109.041
		c0-2.621,0-5.242,0-7.861c-1.476,5.006-0.773,10.813-0.653,15.967c0.05,2.572,0.351,5.076,0.53,7.641
		c0.099,1.414,0.15,2.832,0.175,4.25c0.014,0.816-0.525,2.432,0.767,2.115C108.056,123.779,108.037,116.438,107.979,109.041
		C107.979,106.402,108,111.672,107.979,109.041z M111.24,119.916c0.145-4.158-0.414-8.264-0.892-12.381
		c-0.281-2.414-0.521-4.842-0.44-7.275c0.069-2.143,0.562-4.248,0.562-6.395c-0.342,2.775-1.085,5.447-1.007,8.268
		c0.097,3.455,0.817,6.859,1.185,10.291c0.142,1.313,0.232,2.631,0.201,3.951c-0.039,1.625-0.643,3.234-0.309,4.807
		c0.699,3.291,1.202,6.625,1.554,9.971c0.081,0,0.161,0,0.242,0C111.569,127.465,111.021,123.689,111.24,119.916
		C111.386,115.699,111.024,123.611,111.24,119.916z M103.677,124.348c-0.052-11.904-0.051-23.813-0.051-35.719
		c-1.758,8.875-1.336,17.953-1.204,26.943c0.068,4.658-0.171,9.301-0.171,13.957c0,0.68,0.047,2.666,1.445,1.617
		C103.696,128.883,103.677,126.615,103.677,124.348C103.626,112.672,103.677,126.197,103.677,124.348z M106.069,115.842
		c0.043-12.9,0.048-25.801,0.048-38.701c0,4.32-0.794,8.715-1.03,13.037c-0.275,5.051-0.346,10.111-0.339,15.172
		c0.006,5.037,0.067,10.074,0.155,15.111c0.041,2.293,0.015,4.576,0.168,6.865c0.087,1.275,0.16,2.553,0.222,3.832
		c0.21,0.164,1.121,0,1.406,0C106.366,126.025,106.004,120.988,106.069,115.842C106.091,109.303,106.042,118.006,106.069,115.842z
		 M111.701,104.307c-0.565-3.922,0.682-7.656,1.258-11.494c-2.323,5.813-1.767,11.979-0.549,17.963
		c1.37,6.732,2.315,13.529,2.922,20.377c0.097,0,0.192,0,0.289,0c-0.651-4.619-1.313-9.244-1.593-13.904
		C113.761,112.777,112.576,108.686,111.701,104.307C111.097,100.123,112.33,107.457,111.701,104.307z M113.587,103.27
		c0.696,4.211,1.958,8.305,2.641,12.516c0.816,5.049,1.662,10.092,2.338,15.162c0.263,0-0.619-13.094-0.767-14.295
		C117.224,111.916,115.606,107.568,113.587,103.27C114.19,106.92,114.815,105.885,113.587,103.27z M116.074,102.221
		c2.745,9.336,4.079,18.354,4.618,28.064c1.033-0.49,1.094-0.268,0.968-1.576c-0.134-1.385-0.28-2.771-0.442-4.154
		c-0.322-2.756-0.707-5.504-1.177-8.238C119.203,111.434,118.179,106.729,116.074,102.221
		C116.535,103.789,116.683,103.525,116.074,102.221z M118.539,103.27c2.333,3.234,2.581,7.676,3.155,11.482
		c0.695,4.604,1.271,9.227,1.679,13.865c1.25-1.063,0.249-4.262,0.054-5.826c-0.302-2.428-0.654-4.852-1.058-7.266
		C121.662,111.281,121.13,106.854,118.539,103.27C119.481,104.578,119.483,104.578,118.539,103.27z M126.642,97.447
		c0-3.285,0-6.568,0-9.854c-0.721,11.455-0.052,22.725,0.461,34.174C127.976,113.746,126.642,105.465,126.642,97.447
		C126.642,96.469,126.642,98.428,126.642,97.447z M124.149,98.049c-1.127,4.359-0.037,8.846,0.471,13.207
		c0.542,4.658,1.011,9.326,1.419,13.998c0.451-1.559-0.259-4.1-0.408-5.736c-0.233-2.564-0.464-5.131-0.668-7.697
		C124.599,107.254,124.149,102.631,124.149,98.049C123.207,101.699,124.149,99.875,124.149,98.049z"/>
	<path fill="#F0D9A8" d="M66.03,37.753c0.025,0.368,0.538,10.454,0.558,10.934c-0.354,0.324-10.05,9.17-10.409,9.481
		c-0.469-0.054-10.834-1.239-11.255-1.283c-0.271-0.337-7.84-9.785-7.84-9.785l0.043,1.744c0.224,7.159,0.243,7.581,2.791,12.175
		c4.56,8.163,15.792,9.449,24.237,6.031c0.204,0.302,0.47,0.653,0.47,0.653s3.571,4.225,4.153,4.91
		c-0.761,0.688-22.56,20.814-22.56,20.814c-1.832,1.678-2.878,3.943-2.994,6.377c0,0.131,0,0.242,0,0.369
		c0,2.199,0.803,4.271,2.301,5.881l1.231,1.357c3.305,3.57,8.978,3.717,12.66,0.316c0,0,21.155-19.518,21.96-20.26
		c0.713,0.83,19.412,22.877,19.412,22.877c1.182,1.387,2.813,2.221,4.602,2.363c1.81,0.146,3.553-0.41,4.935-1.584
		c1.563-1.344,2.396-3.24,2.396-5.16c0-1.541-0.535-3.104-1.607-4.365c0,0-19.117-22.533-19.787-23.313
		c0.176-0.164,0.354-0.327,0.354-0.327c1.969-1.813,2.973-4.285,2.973-6.729c0-1.798-0.561-3.575-1.672-5.107
		c0.688-0.609,28.611-26.378,28.611-26.378c0.377-0.344,0.578-0.838,0.602-1.383c0.023-0.034,0.023-0.068,0.023-0.103
		c0-0.637-0.27-1.305-0.764-1.821c-0.938-1.015-2.412-1.192-3.277-0.391c0,0-28.26,26.055-28.771,26.549
		c-3.278-2.079-7.616-1.754-10.655,0.848c-0.602-0.684-3.814-4.488-3.814-4.488s-0.315-0.314-0.582-0.57
		c2.166-3.552,3.974-8.71,3.974-13.647c0-1.575-0.175-3.127-0.603-4.591c-0.893-3.148-2.746-5.404-5.494-6.701l-0.494-0.245
		c-2.723-1.295-4.529-2.156-12.53-4.534l-1.875-0.562C57.318,28.112,65.784,37.473,66.03,37.753z M83.656,64.022
		c0.065-0.058,0.135-0.083,0.202-0.083c0.066,0.047,0.086,0.106,0.086,0.158c0,0.055-0.02,0.104-0.086,0.161
		c0,0-1.875,1.726-2.481,2.297c-0.108-0.113-0.108-0.122-0.202-0.234C81.733,65.784,83.656,64.022,83.656,64.022z M87.207,67.874
		c0.088-0.089,0.248-0.104,0.291-0.049c0.022,0.014,0.022,0.049,0.022,0.066c0,0.068-0.049,0.146-0.11,0.213
		c0,0-2.035,1.881-2.638,2.455c-0.11-0.115-0.11-0.125-0.224-0.236C85.153,69.772,87.207,67.874,87.207,67.874z M90.759,71.729
		c0.092-0.104,0.223-0.112,0.291-0.057c0,0.032,0,0.057,0,0.086c0,0.101-0.045,0.155-0.09,0.188c0,0-2.166,2.021-2.813,2.604
		c-0.09-0.123-0.09-0.141-0.205-0.244C88.55,73.762,90.759,71.729,90.759,71.729z M47.226,97.742c0-0.064,0.043-0.139,0.086-0.191
		c0,0,23.099-21.313,23.904-22.06c0.109,0.125,0.109,0.138,0.197,0.246c-0.735,0.692-23.879,22.044-23.879,22.044
		c-0.088,0.092-0.248,0.104-0.291,0.049L47.226,97.742z M50.884,101.717l-0.087-0.033l-0.02-0.092c0-0.063,0.043-0.146,0.087-0.199
		c0,0,22.938-21.148,23.744-21.889c0.115,0.105,0.115,0.121,0.204,0.232c-0.735,0.688-23.726,21.891-23.726,21.891
		C51.021,101.68,50.953,101.717,50.884,101.717z M54.347,105.525l-0.023-0.078c0-0.078,0.049-0.146,0.092-0.193
		c0,0,22.783-21.016,23.588-21.756c0.088,0.115,0.11,0.125,0.196,0.236c-0.734,0.682-23.563,21.738-23.563,21.738
		C54.552,105.568,54.393,105.582,54.347,105.525z"/>
	
		<radialGradient id="SVGID_1_" cx="162.4629" cy="971.7109" r="79.9091" gradientTransform="matrix(1 0 0 1 -83.8398 -943.3838)" gradientUnits="userSpaceOnUse">
		<stop  offset="0" style="stop-color:#7F5434"/>
		<stop  offset="0.1767" style="stop-color:#7A5132"/>
		<stop  offset="0.3854" style="stop-color:#6C462B"/>
		<stop  offset="0.6104" style="stop-color:#54361F"/>
		<stop  offset="0.8452" style="stop-color:#331E0F"/>
		<stop  offset="1" style="stop-color:#190C03"/>
	</radialGradient>
	<path fill="url(#SVGID_1_)" d="M121.985,34.615c-0.735-0.795-1.854-0.962-2.504-0.358L90.423,61.06
		c-3.129-2.246-7.592-1.998-10.631,0.805l-0.182,0.156l-4.156-4.902c-0.269-0.303-0.56-0.582-0.85-0.83
		c4.758-7.446,6.744-20.549-1.68-24.546c-3.036-1.432-4.509-2.233-12.95-4.745l7.524,8.343l0.582,11.38l-10.79,9.827l-11.721-1.34
		l-6.949-8.676c0.223,7.19,0.223,7.527,2.723,12.015c4.536,8.144,15.815,9.135,23.946,5.646c0.199,0.328,0.422,0.653,0.67,0.969
		l4.516,5.291l-22.96,21.174c-3.464,3.199-3.755,8.516-0.65,11.861l1.227,1.354c3.107,3.355,8.421,3.48,11.886,0.285l22.381-20.65
		l19.791,23.322c2.23,2.613,6.142,2.939,8.755,0.717c2.614-2.225,2.95-6.145,0.717-8.756L91.496,76.051l0.739-0.687
		c3.351-3.09,3.728-8.142,0.959-11.514l28.945-26.704C122.792,36.547,122.722,35.418,121.985,34.615z M88.841,65.246
		c0.246,0.292,0.197,0.762-0.111,1.066l-3.082,2.83l-0.916-1.066l3.033-2.805C88.104,64.98,88.567,64.968,88.841,65.246z
		 M84.212,61.429c0.313-0.3,0.811-0.311,1.076-0.023c0.268,0.291,0.223,0.762-0.111,1.051l-2.906,2.694l-0.918-1.076L84.212,61.429z
		 M47.783,96.008c-0.267-0.289-0.224-0.756,0.111-1.063l24.301-22.439l0.916,1.072l-24.257,22.41
		C48.52,96.277,48.049,96.289,47.783,96.008z M52.406,99.826c-0.335,0.301-0.805,0.313-1.07,0.02
		c-0.249-0.271-0.224-0.76,0.11-1.051l24.146-22.289l0.918,1.069L52.406,99.826z M55.957,103.682
		c-0.333,0.299-0.803,0.311-1.071,0.021c-0.27-0.293-0.222-0.764,0.112-1.061l23.99-22.139l0.915,1.072L55.957,103.682z
		 M92.281,70.16l-3.242,2.984l-0.916-1.086l3.196-2.938c0.33-0.3,0.806-0.3,1.065-0.019C92.658,69.395,92.591,69.86,92.281,70.16z"
		/>
	<path fill="#190C03" d="M52.226,98.072c-0.135-1.596-0.266-3.203-0.378-4.85l-0.087,0.078c-0.228,1.832-0.358,3.713-0.407,5.6
		c0.025-0.021,0.048-0.057,0.068-0.094L52.226,98.072z M49.967,65.246c-0.086-1.453-0.173-2.9-0.266-4.375
		c-0.087-1.787-0.198-3.554-0.267-5.205l-0.673-0.078c0,0.167-0.019,0.337-0.039,0.503c-0.247,3.237,0.2,6.065,0.645,8.958
		C49.571,65.112,49.77,65.18,49.967,65.246z M39.561,55.043c0.333,0.849,0.785,1.752,1.454,2.97c0.023-2.783,0-5.595,0.043-8.398
		l-1.115-1.386C39.628,50.508,39.541,52.775,39.561,55.043z M47.715,55.642c0-0.055,0-0.11,0.025-0.179l-0.181-0.021
		c0.198,1.249,0.402,2.425,0.514,3.439C48.074,58.883,47.962,57.71,47.715,55.642z M60.313,92.637c0-0.049,0-0.078,0-0.111
		l-0.309,0.316c-0.025,0.25-0.049,0.512-0.068,0.764c-0.092,1.131-0.271,2.27-0.63,3.479c-0.397,0.76-0.713,1.598-0.935,2.471
		l1.182-1.1c0.247-0.98,0.469-1.977,0.63-3.025C60.221,94.492,60.289,93.563,60.313,92.637z M56.873,100.912
		c0.043-0.146,0.069-0.301,0.112-0.455c-0.18,0.311-0.359,0.576-0.538,0.844L56.873,100.912z M61.428,92.758
		c-0.02,1.129-0.044,2.242-0.267,3.354c-0.155,0.412-0.291,0.822-0.421,1.252l1.695-1.574c0.02-0.049,0.044-0.1,0.069-0.146
		c0.043-1.174,0.086-2.346,0.13-3.52c0-0.59,0.025-1.174,0.025-1.764l-1.231,1.133C61.428,91.918,61.428,92.334,61.428,92.758z
		 M77.335,83.959l-0.338,0.313c0.092,0.885,0.229,1.766,0.355,2.646c0.092,0.645,0.182,1.299,0.271,1.941l0.24-0.23
		c-0.063-0.555-0.131-1.104-0.197-1.639C77.56,85.975,77.423,84.971,77.335,83.959z M78.785,82.629l-0.27,0.234
		c0.11,1.463,0.358,3.047,0.647,4.574l0.533-0.506c-0.313-1.303-0.627-2.586-0.867-3.855C78.81,82.92,78.785,82.773,78.785,82.629z
		 M60.183,99.787c-0.271,1.764-0.296,3.537-0.136,5.301l1.139-1.061c-0.111-1.855-0.068-3.689,0.334-5.475L60.183,99.787z
		 M47.695,64.378c0.218-1.493,0.442-2.982,0.669-4.479c-0.538,1.365-1.007,2.724-1.429,4.099
		C47.177,64.134,47.448,64.26,47.695,64.378z M77.447,40.221c-0.604-1.642-1.367-3.941-1.744-6.434
		c-0.131-0.146-0.268-0.279-0.401-0.412c-0.021,0.424-0.045,0.85-0.045,1.271c0.694,2.066,0.694,4.969,2.553,6.814
		C77.807,41.461,77.669,41.035,77.447,40.221z M42.109,53.521c0.18,2.523,0.489,4.959,0.825,7.291
		c0.228,0.259,0.449,0.506,0.673,0.737c0-0.11,0-0.219,0-0.335c0.043-2.746,0.11-5.627,0.154-8.251l-1.25-1.553
		C42.356,52.16,42.243,52.863,42.109,53.521z M67.504,73.188c0.044,0.529,0.068,1.054,0.092,1.601c0,0,0-0.623,0-1.666
		L67.504,73.188z M60.183,65.246c0.019,0.161,0.019,0.311,0.038,0.471c0.271-0.043,0.519-0.112,0.785-0.17c0-0.436,0-0.88,0-1.303
		c0-2.02-0.043-3.998-0.092-5.931c-0.043-1.161-0.111-2.356-0.174-3.496c0.111,0.86,0.198,1.708,0.334,2.567
		c-0.024,1.899,0.13,3.643,0.334,5.295c0,0.915,0.02,1.841,0.02,2.771c0.382-0.087,0.761-0.179,1.139-0.289
		c-0.087-2.772-0.243-5.564-0.446-8.47c0.179-1.396,0.203-2.913,0.116-4.625l-2.951,2.683c0.068,1.563,0.181,3.218,0.311,4.813
		C59.757,61.498,59.936,63.386,60.183,65.246z M68.487,83.076L68.487,83.076l1.115-1.018c0-0.277,0-0.605,0-0.984
		c0-1.391,0.023-2.814,0.023-4.255l-0.693,0.639C68.866,79.303,68.734,81.152,68.487,83.076z M78.671,80.799
		c0.052-2.813,0.852-5.287,1.295-8.347c-1.047,2.67-1.489,5.554-1.518,8.544L78.671,80.799z M69.273,47.804
		c-0.426-2.973-1.052-6.309-1.453-9.505c0.066,0.267,0.135,0.524,0.222,0.783c0,0-0.155-0.872-0.446-2.438
		c-0.023-0.066-0.023-0.146-0.048-0.201l0.068,1.095c0.043,0.214,0.112,0.415,0.16,0.627c0.378,3.695,0.781,7.092,0.979,10.118
		c0.136,3.116,0.247,6.197,0.204,9.481c-0.224,3.741-0.111,7.36-0.025,10.912l0.693,0.823c0-3.179,0-6.308,0-9.122
		c0-1.159,0-2.31,0-3.494C69.917,54.048,69.626,50.931,69.273,47.804z M56.853,83.033l-1.699,1.564
		c-0.093,1.291-0.156,2.574-0.223,3.859l1.627-1.508C56.674,85.641,56.762,84.336,56.853,83.033z M94.979,68.222
		c-0.086-1.018-0.377-2.016-0.867-2.95c-0.023,0.624-0.066,1.25-0.094,1.884c-0.065,2.036-0.086,4.07-0.108,6.087
		c0.58-1.015,0.938-2.123,1.052-3.237C94.979,69.405,94.979,68.799,94.979,68.222z M63.42,28.071c0,0,0,0-0.025,0
		c0.044,0.188,0.087,0.378,0.136,0.558C63.531,28.629,63.482,28.415,63.42,28.071z M73.648,63.91c0-2.024,0-4.012,0-5.943
		c0,0.066,0,0.135-0.021,0.2c0-1.138,0-2.289,0-3.439c0-2.614-0.066-5.216-0.16-7.817c-0.268-2.847-0.469-5.539-0.778-8.266
		c-0.828-2.669-1.474-5.316-1.99-7.916c-0.219-0.102-0.465-0.214-0.688-0.314c0.619,5.395,1.447,10.834,2.432,16.362
		c0.16,2.904,0.291,5.828,0.334,8.644c0.022,1.004,0.045,2.009,0.092,3.006c0.045,1.496,0.088,2.979,0.156,4.477
		c-0.111,1.095-0.111,2.156-0.044,3.183c-0.204,2.269-0.315,4.569-0.427,6.883l0.559,0.635l-0.578,0.537
		c-0.064,1.77-0.11,3.533-0.135,5.313l1.25-1.139c0-0.949,0-1.898,0-2.834c0.108-1.162,0.088-2.277,0-3.371
		C73.648,69.326,73.648,66.586,73.648,63.91z M48.829,96.008c0,0-0.019,0-0.019,0.012c0.112,3.334,0.377,6.684,0.65,10.021
		c0.291,0.197,0.601,0.379,0.915,0.533c-0.228-3.871-0.408-7.736-0.426-11.592L48.829,96.008z M56.626,56.492l-1.274-0.155
		c-0.018,2.076,0.135,4.123,0.296,6.053c0.112,1.206,0.224,2.457,0.31,3.711c0.403,0,0.781,0,1.164-0.023
		c-0.048-1.596-0.111-3.174-0.204-4.671C56.829,59.843,56.717,58.193,56.626,56.492z M56.539,103.154l-0.6,0.549
		c-0.315,0.289-0.81,0.303-1.053,0.012c-0.27-0.277-0.222-0.758,0.088-1.049l0.495-0.443c0.043-1.832,0.13-3.65,0.266-5.467
		l-1.163,1.086c-0.068,3.191-0.068,6.387,0.023,9.604c0.291-0.021,0.578-0.043,0.874-0.086c-0.025-0.703-0.025-1.406-0.049-2.104
		c0.067,0.277,0.16,0.568,0.271,0.896c0.043,0.383,0.112,0.75,0.181,1.129c0.285-0.066,0.6-0.154,0.915-0.26
		C56.558,105.758,56.447,104.465,56.539,103.154z M122.501,35.56c-0.088-0.31-0.268-0.634-0.516-0.915
		c-0.334,0.783-0.313,1.677-0.225,2.57c0,0.103,0,0.192,0.021,0.279l0.357-0.322c0.18-0.169,0.291-0.384,0.356-0.605
		C122.501,36.233,122.501,35.898,122.501,35.56z M102.509,89.041c-0.736,5.629-1.41,11.279-1.92,16.953l0.625,0.713
		c0.422-5.824,0.961-11.648,1.475-17.453L102.509,89.041z M75.394,85.758l-0.735,0.666c0.021,1.656,0.086,3.344,0.086,5.098
		l0.649-0.604c0-1.166,0-2.32,0-3.475C75.394,86.869,75.394,86.314,75.394,85.758z M96.253,81.688
		c0.023,0.137,0.023,0.27,0.023,0.402c0.088,6.246,0.021,12.486-0.066,18.732l0.469,0.555c0.021-6.313,0.047-12.609,0.09-18.988
		c0-0.043,0-0.078,0-0.135L96.253,81.688z M93.933,78.93c0,0.691,0,1.336,0,1.773c0.625,6.229,0.982,12.512,1.16,18.801l0.227,0.279
		c-0.069-6.525-0.161-13.064-0.291-19.568L93.933,78.93z M103.022,54.796c-0.137-1.753-0.153-3.52-0.022-5.339l-0.981,0.916
		c-0.021,1.663,0.18,3.285,0.492,4.913L103.022,54.796z M72.466,93.629l1.14-1.061c0-1.725,0-3.449,0.022-5.188l-1.229,1.117
		C72.421,90.221,72.443,91.918,72.466,93.629z M66.302,99.168c-0.024,0.066-0.048,0.137-0.048,0.193l0.469-0.451
		c0.02-0.111,0.02-0.195,0.02-0.314c0-0.689,0-1.357,0-2.012C66.612,97.555,66.476,98.438,66.302,99.168z M104.272,91.115
		c-0.559,5.629-1.317,11.25-1.985,16.854c0.181,0.199,0.379,0.377,0.558,0.561c0.735-5.521,1.541-11.061,2.08-16.633L104.272,91.115
		z M113.076,40.179c0,0.744,0,1.493,0,2.221c0.106,0.983,0.155,1.965,0.198,2.948l0.472-0.448c-0.024-1.797,0-3.604,0.086-5.438
		L113.076,40.179z M109.699,43.294l-0.735,0.655c0.204,0.595,0.444,1.164,0.735,1.733C109.699,45.681,109.699,44.808,109.699,43.294
		z M111.644,46.853l0.291-0.278c0-1.81,0-3.619,0.092-5.43l-0.764,0.682C111.487,43.515,111.597,45.189,111.644,46.853z
		 M96.858,55.139l-0.182,0.146c0.021,0.349,0.045,0.672,0.068,0.982c-0.563,1.588-0.717,3.275-0.762,5.017l1.205-1.104
		c0.021-1.655,0.021-3.34,0.021-5.115c-0.131,0.288-0.268,0.578-0.354,0.87C96.858,55.699,96.858,55.43,96.858,55.139z
		 M104.921,53.043c0-0.335,0-0.693,0-1.093c0.313-1.6,0.334-2.562,0.334-4.569l-1.184,1.083c-0.156,1.63,0.045,3.261,0.445,4.959
		L104.921,53.043z M100.808,56.849c-0.131-1.854,0-3.663,0.18-5.527l-0.936,0.859c-0.043,1.71,0.064,3.418,0.248,5.125
		L100.808,56.849z M106.371,93.586c-0.576,5.301-1.695,10.467-2.634,15.568c0.179,0.102,0.334,0.178,0.49,0.256
		c0.823-5.125,1.765-10.164,2.592-15.277L106.371,93.586z M111.442,99.557c-0.646,3.232-1.205,6.48-1.678,9.738
		c0.271-0.129,0.517-0.289,0.762-0.479c0.402-2.902,0.824-5.834,1.316-8.762c-0.086-0.096-0.152-0.186-0.221-0.285L111.442,99.557z
		 M120.001,33.977c0,0.145,0,0.29,0.02,0.434c-0.02,1.509-0.063,3.019-0.086,4.534c0,0.081,0,0.158,0.021,0.236l0.735-0.669
		c0-1.029,0-2.057,0-3.074c-0.045-0.502-0.069-1.016-0.112-1.505C120.378,33.91,120.179,33.922,120.001,33.977z M115.417,38.02
		c0.021,1.764,0.021,3.552,0.021,5.315l0.648-0.604c0-1.271,0.043-2.546,0.137-3.809c-0.023-0.522-0.051-1.049-0.094-1.584
		L115.417,38.02z M49.992,89.348l-1.231,1.141c-0.019,1.207-0.019,2.438,0,3.652l1.163-1.07
		C49.925,91.822,49.949,90.58,49.992,89.348z M46.843,103.506v0.01l0.693,0.762c-0.088-1.25-0.2-2.512-0.311-3.818
		C47.067,101.443,46.935,102.461,46.843,103.506z M54.664,66.052c-0.025-0.388-0.048-0.89-0.092-1.473
		c-0.538-2.379-0.804-4.826-0.915-7.37c-0.02-0.358-0.044-0.717-0.044-1.073l-1.052-0.111c0.048,0.378,0.092,0.749,0.159,1.129
		c0.267,2.521,0.757,4.946,1.518,7.291c0.087,0.514,0.179,1.065,0.291,1.607C54.571,66.052,54.616,66.052,54.664,66.052z
		 M44.745,98.703c0-0.539,0-1.076,0.019-1.607C44.696,97.627,44.696,98.164,44.745,98.703z M52.381,99.848
		c-0.311,0.291-0.781,0.305-1.046,0.023c-0.025,2.389,0.043,4.787,0.179,7.182c0.509,0.166,1.046,0.291,1.584,0.348
		c-0.18-2.488-0.446-5.02-0.693-7.563L52.381,99.848z M57.901,102.803c-0.044,1.27,0.091,2.5,0.311,3.604
		c0.16-0.088,0.315-0.182,0.494-0.281c-0.179-1.49-0.224-3.047,0-4.711c0.044-0.123,0.067-0.244,0.112-0.365l-0.848,0.779
		C57.943,102.15,57.901,102.471,57.901,102.803z M71.104,48.866c0,0,0.021-0.739,0.046-2.089
		c-1.723-5.819-2.954-11.605-3.757-17.391c-0.334-0.11-0.668-0.234-1.028-0.355c0.267,2.088,0.606,4.143,1.009,6.198l0.106,0.122
		l0.048,0.659C68.42,40.388,69.603,44.688,71.104,48.866z M92.701,69.013c0,0,0.045-1.662,0.183-4.589
		c0.137-1.609,0.246-3.217,0.334-4.84c0.022-0.377,0.022-0.746,0.022-1.115l-0.692,0.639c0.021,1.518,0.067,3.038,0.088,4.541
		C92.658,65.451,92.683,67.234,92.701,69.013z M67.261,35.085c-0.451-2.01-0.897-4.09-1.317-6.188
		c-0.228-0.079-0.47-0.169-0.736-0.259c0.509,1.999,1.027,3.976,1.584,5.918L67.261,35.085z M84.683,61.224
		c0-0.533,0.023-1.064,0.049-1.604c-0.358,0.045-0.719,0.101-1.075,0.179c0,0.013,0,0.013,0,0.021c0,0.717,0,1.436-0.021,2.141
		l0.578-0.521C84.347,61.319,84.503,61.257,84.683,61.224z M77.738,37.037c0.131,1.138,0.4,2.088,0.778,2.982
		C78.363,38.98,78.117,37.974,77.738,37.037z M63.215,97.143c-0.469,2.262-1.001,4.125-1.046,5.979l1.381-1.271
		c0.067-1.959,0.382-3.887,1.163-5.768c0-0.164,0.024-0.334,0.024-0.504l-1.473,1.352C63.24,97.014,63.24,97.084,63.215,97.143z
		 M94.242,62.892l1.144-1.053c0.063-1.797,0.092-3.57,0.112-5.448l-0.539,0.493C94.646,58.646,94.401,60.556,94.242,62.892z
		 M100.541,86.738c0,0.246,0,0.488,0,0.732c-0.401,5.551-0.91,11.193-1.336,16.891l0.246,0.291
		c0.444-5.83,1.004-11.613,1.604-17.314L100.541,86.738z M92.615,77.385l-0.427-0.496c-0.021,0.838-0.043,1.676-0.112,2.402
		c0.291,5.932,0.582,11.813,0.873,17.678l0.601,0.729c-0.238-6.088-0.558-12.162-0.935-18.238
		C92.615,78.764,92.615,78.067,92.615,77.385z M98.423,84.238c0.045,6.238-0.246,12.396-0.537,18.555l0.402,0.477
		c0.514-6.164,0.916-12.326,0.514-18.6L98.423,84.238z M108.292,95.861c-0.668,4.699-1.764,9.373-2.746,13.992
		c0.139,0.033,0.248,0.061,0.4,0.078c0.873-4.52,1.926-9.029,2.682-13.67L108.292,95.861z M109.167,96.879
		c-0.676,4.381-1.23,8.742-1.635,13.105c0.34-0.053,0.691-0.117,1.025-0.205c0.445-3.92,1.01-7.854,1.547-11.783L109.167,96.879z
		 M85.153,82.098c0.847,1.225,1.496,2.873,1.966,4.904c0.226,1.271,0.444,2.568,0.646,3.865l0.582,0.688
		c-0.285-1.58-0.582-3.146-0.894-4.699C86.785,84.883,86,83.322,85.153,82.098z M82.851,81.141c0.428,1.451,1.01,3.336,1.496,5.191
		c0.07,0.244,0.137,0.506,0.205,0.738l0.736,0.869c-0.184-0.734-0.359-1.473-0.537-2.197C84.125,84.023,83.408,82.346,82.851,81.141
		z M90.313,77.273c-0.85,3.389-0.311,7.16,0.31,11.213c0.272,2.217,0.521,4.416,0.742,6.631l0.153,0.174
		c-0.377-4.127-0.717-8.262-0.938-12.396C90.423,80.842,90.313,78.967,90.313,77.273z M70.189,90.549
		c0.044,1.709,0.062,3.404,0.062,5.104l1.12-1.02c0-1.717,0-3.438,0-5.172L70.189,90.549z M68.487,97.305l0.494-0.459
		c-0.115-0.705-0.271-1.422-0.494-2.178C68.487,95.541,68.487,96.426,68.487,97.305z M77.287,77.344
		c0.229-1.492,0.383-2.802,0.383-3.931c-0.108,0.906-0.203,1.81-0.442,2.916c-0.538,2.002-0.56,4.075-0.402,6.188l0.354-0.338
		C77.089,80.596,77.089,78.999,77.287,77.344z M68.982,75.48l0.645-0.579c0-1.226,0-2.437,0-3.664l-0.645,0.592
		C69.001,73.047,69.001,74.262,68.982,75.48z M67.33,59.764c0.285-3.798-0.181-7.918-0.606-11.357
		c-0.023-0.124-0.043-0.258-0.069-0.381l-1.162,1.071c0.247,2.839,0.674,6.232,0.65,9.158c0.271,2.626,0.601,5.364,0.847,8.019
		c0.024,0.047,0.024,0.092,0.024,0.146l0.402,0.483C67.33,64.646,67.33,61.952,67.33,59.764z M58.211,65.985
		c0.18-0.011,0.358-0.021,0.538-0.044c-0.088-1.673-0.223-3.372-0.378-4.958c-0.068-1.752-0.137-3.439-0.247-5.182l-0.65,0.578
		c0.092,1.42,0.228,2.783,0.427,4.178C57.992,62.432,58.104,64.221,58.211,65.985z M60.938,28.094
		c-0.043-0.27-0.067-0.538-0.087-0.817c-0.247-0.067-0.45-0.135-0.693-0.2c0,0.065,0.025,0.121,0.025,0.188L60.938,28.094z
		 M71.346,73.303c0-1.584,0-3.161,0-4.71c-0.355,1.816-0.601,3.626-0.803,5.447L71.346,73.303z M62.795,77.549l-1.299,1.194
		c0,1.218,0,2.435,0,3.646l1.299-1.188C62.795,79.977,62.795,78.764,62.795,77.549z M64.398,53.444
		c-0.155-0.983-0.286-1.978-0.421-2.97l-0.383,0.346c0.338,1.965,0.649,3.908,0.984,5.864
		C64.578,56.683,64.509,55.533,64.398,53.444z M55.888,94.688c0.161-1.891,0.334-3.771,0.494-5.658l-1.565,1.447
		c-0.086,1.801-0.154,3.604-0.202,5.402L55.888,94.688z M70.141,81.568l1.205-1.146c0-1.738,0-3.479,0-5.203l-0.979,0.905
		C70.233,77.936,70.164,79.746,70.141,81.568z M62.769,83.129l-1.273,1.182c-0.024,1.762-0.024,3.5-0.044,5.254l1.25-1.15
		C62.727,86.643,62.769,84.895,62.769,83.129z M63.797,87.408l1.43-1.33c0.067-1.752,0.067-3.506,0.067-5.256l-1.362,1.238
		C63.889,83.846,63.84,85.619,63.797,87.408z M63.977,80.102l1.294-1.182c-0.044-1.162-0.087-2.336-0.155-3.511l-1.071,0.979
		C64.02,77.635,64,78.864,63.977,80.102z M60.381,90.555c0.019-1.205,0.043-2.396,0.043-3.621c-0.068,1.26-0.18,2.541-0.268,3.82
		L60.381,90.555z M84.552,69.595c0.02-2.157,0.043-4.279,0.063-6.59c0-0.01,0-0.024,0-0.033l-1.005,0.931c0,0.196,0,0.411,0,0.61
		c-0.245,1.675-0.289,3.227-0.225,4.737c0.021,0.747,0.09,1.492,0.156,2.246c-0.693,2.896-1.852,4.82-1.162,7.395
		c0,0,0.049-0.782,0.229-2.152c0.8-2.346,1.386-3.318,1.81-4.93C84.503,71.057,84.526,70.322,84.552,69.595z M87.942,67.035
		c0.023,0.685,0,1.363-0.02,2.07c-0.023,0.697-0.066,1.417-0.16,2.133c-0.154,0.607-0.379,1.396-0.379,1.941
		c-0.154,0.471,0.023,0.76,0.961,0.58c0,0,0.092-0.438,0.18-1.195l-0.401-0.479l0.472-0.443c0-0.717,0-1.375,0-1.979
		c0-1.186,0.022-2.214,0.022-3.25L87.942,67.035z M88.011,60.856c-0.045,1.378-0.088,2.738-0.131,4.11c0,0.092,0,0.175,0,0.252
		c0.242-0.16,0.533-0.184,0.777-0.058c0-0.417,0-0.825,0.021-1.26c0.114-1.222,0.204-2.43,0.297-3.636
		c-0.297-0.131-0.605-0.241-0.918-0.344C88.035,60.238,88.035,60.549,88.011,60.856z M92.615,74.028c0-1.063,0-2.123,0-3.197v-3.213
		c-0.05,0.581-0.067,1.157-0.113,1.738c0.063,0.16,0.046,0.325-0.021,0.494c-0.022,0.325-0.043,0.662-0.067,0.979
		c-0.043,1.076-0.108,2.14-0.131,3.199c-0.023,0.442-0.023,0.897-0.043,1.354c0.131-0.123,0.241-0.261,0.377-0.396L92.615,74.028
		L92.615,74.028z M81.242,85.52l0.582-0.549c-0.425-1.049-0.869-2.01-1.271-2.873C80.728,83.229,80.976,84.369,81.242,85.52z
		 M71.346,82.346l-1.226,1.15c-0.023,1.723,0.021,3.438,0.044,5.162l1.207-1.107C71.346,85.822,71.346,84.08,71.346,82.346z
		 M63.594,93.818c-0.02,0.313-0.02,0.629-0.044,0.938l1.318-1.207c0-0.18,0.023-0.346,0.023-0.514
		c0.112-1.662,0.18-3.318,0.247-4.957l-1.409,1.309C63.686,90.861,63.642,92.346,63.594,93.818z M72.4,86.6l1.229-1.137
		c0-1.756,0.021-3.486,0.021-5.225l-1.248,1.154C72.375,83.129,72.375,84.865,72.4,86.6z M75.369,80.174
		c-0.429,1.424-0.603,2.859-0.67,4.307l0.692-0.633C75.369,82.629,75.369,81.396,75.369,80.174z"/>
	<path fill="#190C03" d="M18.692,112.506v3.967H33.11v4.787H18.692v3.898h-3.993v-12.652H18.692L18.692,112.506z"/>
	<path fill="#190C03" d="M20.593,87.283l12.518,6.557v2.953l-6.864,3.131l6.864,2.992v2.979l-12.518,6.436v-4.938l6.598-2.992
		l-6.598-3.146v-2.775l6.785-3.131l-6.785-3.143V87.283z"/>
	<path fill="#190C03" d="M27.675,72.485v9.294c1.879,0,2.817-0.902,2.817-2.709c0-0.926-0.396-1.628-1.185-2.12v-4.289
		c1.127,0.343,2.004,0.849,2.619,1.513c1.123,1.205,1.683,2.817,1.683,4.844c0,2.57-0.783,4.504-2.349,5.803
		c-1.168,0.971-2.592,1.455-4.274,1.455c-1.996,0-3.618-0.605-4.868-1.818c-1.25-1.217-1.874-2.932-1.874-5.143
		c0-2.729,0.99-4.672,2.972-5.842c1.119-0.656,2.414-0.981,3.894-0.981h0.565V72.485z M25.152,76.627
		c-1.411,0.313-2.118,1.149-2.118,2.51c0,0.752,0.227,1.359,0.676,1.824c0.356,0.367,0.84,0.6,1.442,0.699V76.627z"/>
	<path fill="#190C03" d="M33.11,55.852v4.438h-1.389c0.531,0.424,0.916,0.852,1.158,1.279c0.424,0.756,0.637,1.611,0.637,2.572
		c0,1.557-0.536,2.938-1.604,4.152c-1.274,1.442-2.966,2.167-5.067,2.167c-2.137,0-3.846-0.741-5.117-2.222
		c-1.016-1.18-1.525-2.529-1.525-4.059c0-0.889,0.186-1.723,0.555-2.506c0.215-0.445,0.569-0.91,1.064-1.387h-1.229v-4.438h12.518
		L33.11,55.852L33.11,55.852z M26.854,60.156c-0.787,0-1.458,0.277-2.005,0.834c-0.555,0.555-0.828,1.225-0.828,2.012
		c0,0.879,0.332,1.598,0.992,2.164c0.537,0.453,1.151,0.684,1.841,0.684c0.687,0,1.304-0.23,1.837-0.684
		c0.662-0.557,0.994-1.275,0.994-2.164c0-0.795-0.274-1.471-0.817-2.018C28.32,60.429,27.651,60.156,26.854,60.156z"/>
	<path fill="#190C03" d="M33.11,37.318v6.207l-5.098,4.869h5.098v4.438H12.852v-4.438h12.247l-4.506-4.627v-6.068l5.774,6.273
		L33.11,37.318z"/>
	<path fill="#190C03" d="M27.02,22.602c3.114,0,5.146,1.367,6.091,4.104c0.335,0.951,0.5,1.977,0.5,3.076
		c0,2.299-0.696,4.436-2.091,6.404l-3.856-2.051c1.305-1.439,1.955-2.85,1.955-4.23c0-0.619-0.145-1.146-0.436-1.58
		c-0.329-0.506-0.793-0.758-1.391-0.758c-0.543,0-0.996,0.277-1.361,0.838c-0.275,0.416-0.553,1.113-0.832,2.096
		c-0.351,1.188-0.596,1.936-0.729,2.244c-0.207,0.482-0.45,0.896-0.728,1.242c-0.809,0.98-2.029,1.473-3.664,1.473
		c-1.706,0-3.121-0.51-4.243-1.523c-1.318-1.188-1.98-2.771-1.98-4.748c0-1.988,0.5-3.934,1.498-5.842l3.724,1.916
		c-0.819,1.043-1.229,2.098-1.229,3.164c0,0.514,0.133,0.975,0.393,1.377c0.3,0.461,0.698,0.693,1.191,0.693
		c0.49,0,0.908-0.303,1.259-0.904c0.166-0.271,0.445-1.082,0.842-2.432c0.492-1.697,1.195-2.9,2.105-3.629
		C24.81,22.912,25.804,22.602,27.02,22.602z"/>
	<path fill="#F0D9A8" d="M19.9,110.875v3.967h14.418v4.787H19.9v3.898h-3.993v-12.652H19.9L19.9,110.875z"/>
	<path fill="#F0D9A8" d="M21.8,85.652l12.518,6.555v2.955l-6.864,3.129l6.864,2.994v2.979L21.8,110.699v-4.938l6.598-2.994
		L21.8,99.621v-2.773l6.785-3.131L21.8,90.572V85.652z"/>
	<path fill="#F0D9A8" d="M28.882,70.852v9.293c1.879,0,2.817-0.898,2.817-2.709c0-0.922-0.396-1.627-1.185-2.116v-4.291
		c1.127,0.342,2.004,0.849,2.619,1.512c1.123,1.207,1.683,2.82,1.683,4.847c0,2.57-0.783,4.504-2.349,5.801
		c-1.168,0.973-2.592,1.457-4.274,1.457c-1.996,0-3.618-0.605-4.868-1.818c-1.25-1.219-1.874-2.932-1.874-5.143
		c0-2.729,0.99-4.672,2.972-5.842c1.119-0.656,2.414-0.981,3.894-0.981h0.565V70.852z M26.36,74.995
		c-1.411,0.313-2.118,1.147-2.118,2.511c0,0.752,0.227,1.358,0.676,1.824c0.356,0.367,0.84,0.6,1.442,0.699V74.995z"/>
	<path fill="#F0D9A8" d="M34.318,54.221v4.438h-1.389c0.531,0.424,0.916,0.852,1.158,1.279c0.424,0.756,0.637,1.611,0.637,2.572
		c0,1.555-0.536,2.936-1.604,4.15c-1.274,1.443-2.966,2.169-5.067,2.169c-2.137,0-3.846-0.741-5.117-2.222
		c-1.016-1.18-1.525-2.531-1.525-4.059c0-0.891,0.186-1.725,0.555-2.508c0.215-0.443,0.569-0.908,1.064-1.385h-1.229v-4.438h12.518
		L34.318,54.221L34.318,54.221z M28.061,58.521c-0.787,0-1.458,0.279-2.005,0.834c-0.555,0.555-0.828,1.227-0.828,2.014
		c0,0.877,0.332,1.598,0.992,2.164c0.537,0.451,1.151,0.684,1.841,0.684c0.687,0,1.304-0.23,1.837-0.684
		c0.662-0.557,0.994-1.275,0.994-2.164c0-0.795-0.274-1.471-0.817-2.018C29.528,58.798,28.858,58.521,28.061,58.521z"/>
	<path fill="#F0D9A8" d="M34.318,35.685v6.207l-5.098,4.869h5.098v4.438H14.059v-4.438h12.247L21.8,42.134v-6.07l5.774,6.275
		L34.318,35.685z"/>
	<path fill="#F0D9A8" d="M28.227,20.971c3.114,0,5.146,1.367,6.091,4.102c0.335,0.951,0.5,1.979,0.5,3.076
		c0,2.301-0.696,4.438-2.091,6.406l-3.856-2.053c1.305-1.438,1.955-2.85,1.955-4.229c0-0.621-0.145-1.148-0.436-1.582
		c-0.329-0.504-0.793-0.756-1.391-0.756c-0.543,0-0.996,0.277-1.361,0.838c-0.275,0.414-0.553,1.113-0.832,2.096
		c-0.351,1.188-0.596,1.936-0.729,2.242c-0.207,0.484-0.45,0.898-0.728,1.244c-0.809,0.98-2.029,1.473-3.664,1.473
		c-1.706,0-3.121-0.51-4.243-1.523c-1.318-1.189-1.98-2.771-1.98-4.748c0-1.988,0.5-3.936,1.498-5.842l3.723,1.916
		c-0.818,1.043-1.229,2.098-1.229,3.164c0,0.514,0.133,0.975,0.393,1.377c0.3,0.461,0.699,0.691,1.191,0.691
		c0.49,0,0.908-0.301,1.259-0.904c0.166-0.271,0.445-1.08,0.842-2.432c0.492-1.697,1.195-2.9,2.105-3.627
		C26.017,21.282,27.011,20.971,28.227,20.971z"/>
</g>
</svg>
